<svg width="279" height="1805" viewBox="0 0 279 1805" fill="none" xmlns="http://www.w3.org/2000/svg">
<g filter="url(#filter0_d_336_1767)">
<path d="M275.036 261.79C276.988 259.837 276.988 256.671 275.036 254.718L243.216 222.899C241.263 220.946 238.097 220.946 236.145 222.899C234.192 224.851 234.192 228.017 236.145 229.97L264.429 258.254L236.145 286.538C234.192 288.491 234.192 291.657 236.145 293.609C238.097 295.562 241.263 295.562 243.216 293.609L275.036 261.79ZM3.96447 1054.46C2.01184 1056.42 2.01184 1059.58 3.96447 1061.54L35.7843 1093.36C37.7369 1095.31 40.9027 1095.31 42.8553 1093.36C44.808 1091.4 44.808 1088.24 42.8553 1086.28L14.5711 1058L42.8553 1029.72C44.808 1027.76 44.808 1024.6 42.8553 1022.64C40.9027 1020.69 37.7369 1020.69 35.7843 1022.64L3.96447 1054.46ZM134 1763.5H129C129 1766.26 131.239 1768.5 134 1768.5V1763.5ZM275.036 1767.04C276.988 1765.08 276.988 1761.92 275.036 1759.96L243.216 1728.14C241.263 1726.19 238.097 1726.19 236.145 1728.14C234.192 1730.1 234.192 1733.26 236.145 1735.22L264.429 1763.5L236.145 1791.78C234.192 1793.74 234.192 1796.9 236.145 1798.86C238.097 1800.81 241.263 1800.81 243.216 1798.86L275.036 1767.04ZM275.036 535.036C276.988 533.083 276.988 529.917 275.036 527.964L243.216 496.145C241.263 494.192 238.097 494.192 236.145 496.145C234.192 498.097 234.192 501.263 236.145 503.216L264.429 531.5L236.145 559.784C234.192 561.737 234.192 564.903 236.145 566.855C238.097 568.808 241.263 568.808 243.216 566.855L275.036 535.036ZM3.96447 790.464C2.01184 792.417 2.01184 795.583 3.96447 797.536L35.7843 829.355C37.7369 831.308 40.9027 831.308 42.8553 829.355C44.808 827.403 44.808 824.237 42.8553 822.284L14.5711 794L42.8553 765.716C44.808 763.763 44.808 760.597 42.8553 758.645C40.9027 756.692 37.7369 756.692 35.7843 758.645L3.96447 790.464ZM275.036 1499.04C276.988 1497.08 276.988 1493.92 275.036 1491.96L243.216 1460.14C241.263 1458.19 238.097 1458.19 236.145 1460.14C234.192 1462.1 234.192 1465.26 236.145 1467.22L264.429 1495.5L236.145 1523.78C234.192 1525.74 234.192 1528.9 236.145 1530.86C238.097 1532.81 241.263 1532.81 243.216 1530.86L275.036 1499.04ZM129 8.07044C129 10.8319 131.239 13.0704 134 13.0704C136.761 13.0704 139 10.8319 139 8.07044H129ZM139 24.2113C139 21.4499 136.761 19.2113 134 19.2113C131.239 19.2113 129 21.4499 129 24.2113H139ZM129 40.3522C129 43.1136 131.239 45.3522 134 45.3522C136.761 45.3522 139 43.1136 139 40.3522H129ZM139 56.4931C139 53.7316 136.761 51.4931 134 51.4931C131.239 51.4931 129 53.7316 129 56.4931H139ZM129 72.6339C129 75.3954 131.239 77.6339 134 77.6339C136.761 77.6339 139 75.3954 139 72.6339H129ZM139 88.7748C139 86.0134 136.761 83.7748 134 83.7748C131.239 83.7748 129 86.0134 129 88.7748H139ZM129 104.916C129 107.677 131.239 109.916 134 109.916C136.761 109.916 139 107.677 139 104.916H129ZM139 121.057C139 118.295 136.761 116.057 134 116.057C131.239 116.057 129 118.295 129 121.057H139ZM129 137.197C129 139.959 131.239 142.197 134 142.197C136.761 142.197 139 139.959 139 137.197H129ZM139 153.338C139 150.577 136.761 148.338 134 148.338C131.239 148.338 129 150.577 129 153.338H139ZM129 169.479C129 172.241 131.239 174.479 134 174.479C136.761 174.479 139 172.241 139 169.479H129ZM139 185.62C139 182.859 136.761 180.62 134 180.62C131.239 180.62 129 182.859 129 185.62H139ZM129 201.761C129 204.522 131.239 206.761 134 206.761C136.761 206.761 139 204.522 139 201.761H129ZM139 217.902C139 215.14 136.761 212.902 134 212.902C131.239 212.902 129 215.14 129 217.902H139ZM129 234.043C129 236.804 131.239 239.043 134 239.043C136.761 239.043 139 236.804 139 234.043H129ZM139 250.184C139 247.422 136.761 245.184 134 245.184C131.239 245.184 129 247.422 129 250.184H139ZM142.594 263.254C145.355 263.254 147.594 261.015 147.594 258.254C147.594 255.493 145.355 253.254 142.594 253.254V263.254ZM159.781 253.254C157.02 253.254 154.781 255.493 154.781 258.254C154.781 261.015 157.02 263.254 159.781 263.254V253.254ZM176.969 263.254C179.73 263.254 181.969 261.015 181.969 258.254C181.969 255.493 179.73 253.254 176.969 253.254V263.254ZM194.156 253.254C191.395 253.254 189.156 255.493 189.156 258.254C189.156 261.015 191.395 263.254 194.156 263.254V253.254ZM211.344 263.254C214.105 263.254 216.344 261.015 216.344 258.254C216.344 255.493 214.105 253.254 211.344 253.254V263.254ZM228.531 253.254C225.77 253.254 223.531 255.493 223.531 258.254C223.531 261.015 225.77 263.254 228.531 263.254V253.254ZM245.719 263.254C248.48 263.254 250.719 261.015 250.719 258.254C250.719 255.493 248.48 253.254 245.719 253.254V263.254ZM262.906 253.254C260.145 253.254 257.906 255.493 257.906 258.254C257.906 261.015 260.145 263.254 262.906 263.254V253.254ZM129 265.844C129 268.606 131.239 270.844 134 270.844C136.761 270.844 139 268.606 139 265.844H129ZM139 281.025C139 278.263 136.761 276.025 134 276.025C131.239 276.025 129 278.263 129 281.025H139ZM129 296.205C129 298.966 131.239 301.205 134 301.205C136.761 301.205 139 298.966 139 296.205H129ZM139 311.385C139 308.624 136.761 306.385 134 306.385C131.239 306.385 129 308.624 129 311.385H139ZM129 326.566C129 329.327 131.239 331.566 134 331.566C136.761 331.566 139 329.327 139 326.566H129ZM139 341.746C139 338.984 136.761 336.746 134 336.746C131.239 336.746 129 338.984 129 341.746H139ZM129 356.926C129 359.688 131.239 361.926 134 361.926C136.761 361.926 139 359.688 139 356.926H129ZM139 372.107C139 369.345 136.761 367.107 134 367.107C131.239 367.107 129 369.345 129 372.107H139ZM129 387.287C129 390.048 131.239 392.287 134 392.287C136.761 392.287 139 390.048 139 387.287H129ZM139 402.467C139 399.706 136.761 397.467 134 397.467C131.239 397.467 129 399.706 129 402.467H139ZM129 417.647C129 420.409 131.239 422.647 134 422.647C136.761 422.647 139 420.409 139 417.647H129ZM139 432.828C139 430.066 136.761 427.828 134 427.828C131.239 427.828 129 430.066 129 432.828H139ZM129 448.008C129 450.77 131.239 453.008 134 453.008C136.761 453.008 139 450.77 139 448.008H129ZM139 463.188C139 460.427 136.761 458.188 134 458.188C131.239 458.188 129 460.427 129 463.188H139ZM129 478.369C129 481.13 131.239 483.369 134 483.369C136.761 483.369 139 481.13 139 478.369H129ZM139 493.549C139 490.788 136.761 488.549 134 488.549C131.239 488.549 129 490.788 129 493.549H139ZM129 508.729C129 511.491 131.239 513.729 134 513.729C136.761 513.729 139 511.491 139 508.729H129ZM139 523.91C139 521.148 136.761 518.91 134 518.91C131.239 518.91 129 521.148 129 523.91H139ZM129 539.703C129 542.465 131.239 544.703 134 544.703C136.761 544.703 139 542.465 139 539.703H129ZM139 556.109C139 553.348 136.761 551.109 134 551.109C131.239 551.109 129 553.348 129 556.109H139ZM129 572.516C129 575.277 131.239 577.516 134 577.516C136.761 577.516 139 575.277 139 572.516H129ZM139 588.922C139 586.16 136.761 583.922 134 583.922C131.239 583.922 129 586.16 129 588.922H139ZM129 605.328C129 608.09 131.239 610.328 134 610.328C136.761 610.328 139 608.09 139 605.328H129ZM139 621.734C139 618.973 136.761 616.734 134 616.734C131.239 616.734 129 618.973 129 621.734H139ZM129 638.141C129 640.902 131.239 643.141 134 643.141C136.761 643.141 139 640.902 139 638.141H129ZM139 654.547C139 651.785 136.761 649.547 134 649.547C131.239 649.547 129 651.785 129 654.547H139ZM129 670.953C129 673.715 131.239 675.953 134 675.953C136.761 675.953 139 673.715 139 670.953H129ZM139 687.359C139 684.598 136.761 682.359 134 682.359C131.239 682.359 129 684.598 129 687.359H139ZM129 703.766C129 706.527 131.239 708.766 134 708.766C136.761 708.766 139 706.527 139 703.766H129ZM139 720.172C139 717.41 136.761 715.172 134 715.172C131.239 715.172 129 717.41 129 720.172H139ZM129 736.578C129 739.34 131.239 741.578 134 741.578C136.761 741.578 139 739.34 139 736.578H129ZM139 752.984C139 750.223 136.761 747.984 134 747.984C131.239 747.984 129 750.223 129 752.984H139ZM129 769.391C129 772.152 131.239 774.391 134 774.391C136.761 774.391 139 772.152 139 769.391H129ZM139 785.797C139 783.035 136.761 780.797 134 780.797C131.239 780.797 129 783.035 129 785.797H139ZM142.594 536.5C145.355 536.5 147.594 534.261 147.594 531.5C147.594 528.739 145.355 526.5 142.594 526.5V536.5ZM159.781 526.5C157.02 526.5 154.781 528.739 154.781 531.5C154.781 534.261 157.02 536.5 159.781 536.5V526.5ZM176.969 536.5C179.73 536.5 181.969 534.261 181.969 531.5C181.969 528.739 179.73 526.5 176.969 526.5V536.5ZM194.156 526.5C191.395 526.5 189.156 528.739 189.156 531.5C189.156 534.261 191.395 536.5 194.156 536.5V526.5ZM211.344 536.5C214.105 536.5 216.344 534.261 216.344 531.5C216.344 528.739 214.105 526.5 211.344 526.5V536.5ZM228.531 526.5C225.77 526.5 223.531 528.739 223.531 531.5C223.531 534.261 225.77 536.5 228.531 536.5V526.5ZM245.719 536.5C248.48 536.5 250.719 534.261 250.719 531.5C250.719 528.739 248.48 526.5 245.719 526.5V536.5ZM262.906 526.5C260.145 526.5 257.906 528.739 257.906 531.5C257.906 534.261 260.145 536.5 262.906 536.5V526.5ZM129 802.25C129 805.011 131.239 807.25 134 807.25C136.761 807.25 139 805.011 139 802.25H129ZM139 818.75C139 815.989 136.761 813.75 134 813.75C131.239 813.75 129 815.989 129 818.75H139ZM129 835.25C129 838.011 131.239 840.25 134 840.25C136.761 840.25 139 838.011 139 835.25H129ZM139 851.75C139 848.989 136.761 846.75 134 846.75C131.239 846.75 129 848.989 129 851.75H139ZM129 868.25C129 871.011 131.239 873.25 134 873.25C136.761 873.25 139 871.011 139 868.25H129ZM139 884.75C139 881.989 136.761 879.75 134 879.75C131.239 879.75 129 881.989 129 884.75H139ZM129 901.25C129 904.011 131.239 906.25 134 906.25C136.761 906.25 139 904.011 139 901.25H129ZM139 917.75C139 914.989 136.761 912.75 134 912.75C131.239 912.75 129 914.989 129 917.75H139ZM129 934.25C129 937.011 131.239 939.25 134 939.25C136.761 939.25 139 937.011 139 934.25H129ZM139 950.75C139 947.989 136.761 945.75 134 945.75C131.239 945.75 129 947.989 129 950.75H139ZM129 967.25C129 970.011 131.239 972.25 134 972.25C136.761 972.25 139 970.011 139 967.25H129ZM139 983.75C139 980.989 136.761 978.75 134 978.75C131.239 978.75 129 980.989 129 983.75H139ZM129 1000.25C129 1003.01 131.239 1005.25 134 1005.25C136.761 1005.25 139 1003.01 139 1000.25H129ZM139 1016.75C139 1013.99 136.761 1011.75 134 1011.75C131.239 1011.75 129 1013.99 129 1016.75H139ZM129 1033.25C129 1036.01 131.239 1038.25 134 1038.25C136.761 1038.25 139 1036.01 139 1033.25H129ZM139 1049.75C139 1046.99 136.761 1044.75 134 1044.75C131.239 1044.75 129 1046.99 129 1049.75H139ZM15.4062 799C18.1677 799 20.4062 796.761 20.4062 794C20.4062 791.239 18.1677 789 15.4062 789V799ZM31.2188 789C28.4573 789 26.2188 791.239 26.2188 794C26.2188 796.761 28.4573 799 31.2188 799V789ZM47.0312 799C49.7927 799 52.0312 796.761 52.0312 794C52.0312 791.239 49.7927 789 47.0312 789V799ZM62.8438 789C60.0823 789 57.8438 791.239 57.8438 794C57.8438 796.761 60.0823 799 62.8438 799V789ZM78.6562 799C81.4177 799 83.6562 796.761 83.6562 794C83.6562 791.239 81.4177 789 78.6562 789V799ZM94.4688 789C91.7073 789 89.4688 791.239 89.4688 794C89.4688 796.761 91.7073 799 94.4688 799V789ZM110.281 799C113.043 799 115.281 796.761 115.281 794C115.281 791.239 113.043 789 110.281 789V799ZM126.094 789C123.332 789 121.094 791.239 121.094 794C121.094 796.761 123.332 799 126.094 799V789ZM15.4062 1063C18.1677 1063 20.4062 1060.76 20.4062 1058C20.4062 1055.24 18.1677 1053 15.4062 1053V1063ZM31.2188 1053C28.4573 1053 26.2188 1055.24 26.2188 1058C26.2188 1060.76 28.4573 1063 31.2188 1063V1053ZM47.0312 1063C49.7927 1063 52.0312 1060.76 52.0312 1058C52.0312 1055.24 49.7927 1053 47.0312 1053V1063ZM62.8438 1053C60.0823 1053 57.8438 1055.24 57.8438 1058C57.8438 1060.76 60.0823 1063 62.8438 1063V1053ZM78.6562 1063C81.4177 1063 83.6562 1060.76 83.6562 1058C83.6562 1055.24 81.4177 1053 78.6562 1053V1063ZM94.4688 1053C91.7073 1053 89.4688 1055.24 89.4688 1058C89.4688 1060.76 91.7073 1063 94.4688 1063V1053ZM110.281 1063C113.043 1063 115.281 1060.76 115.281 1058C115.281 1055.24 113.043 1053 110.281 1053V1063ZM126.094 1053C123.332 1053 121.094 1055.24 121.094 1058C121.094 1060.76 123.332 1063 126.094 1063V1053ZM129 1065.81C129 1068.57 131.239 1070.81 134 1070.81C136.761 1070.81 139 1068.57 139 1065.81H129ZM139 1081.44C139 1078.68 136.761 1076.44 134 1076.44C131.239 1076.44 129 1078.68 129 1081.44H139ZM129 1097.06C129 1099.82 131.239 1102.06 134 1102.06C136.761 1102.06 139 1099.82 139 1097.06H129ZM139 1112.69C139 1109.93 136.761 1107.69 134 1107.69C131.239 1107.69 129 1109.93 129 1112.69H139ZM129 1128.31C129 1131.07 131.239 1133.31 134 1133.31C136.761 1133.31 139 1131.07 139 1128.31H129ZM139 1143.94C139 1141.18 136.761 1138.94 134 1138.94C131.239 1138.94 129 1141.18 129 1143.94H139ZM129 1159.56C129 1162.32 131.239 1164.56 134 1164.56C136.761 1164.56 139 1162.32 139 1159.56H129ZM139 1175.19C139 1172.43 136.761 1170.19 134 1170.19C131.239 1170.19 129 1172.43 129 1175.19H139ZM129 1190.81C129 1193.57 131.239 1195.81 134 1195.81C136.761 1195.81 139 1193.57 139 1190.81H129ZM139 1206.44C139 1203.68 136.761 1201.44 134 1201.44C131.239 1201.44 129 1203.68 129 1206.44H139ZM129 1222.06C129 1224.82 131.239 1227.06 134 1227.06C136.761 1227.06 139 1224.82 139 1222.06H129ZM139 1237.69C139 1234.93 136.761 1232.69 134 1232.69C131.239 1232.69 129 1234.93 129 1237.69H139ZM129 1253.31C129 1256.07 131.239 1258.31 134 1258.31C136.761 1258.31 139 1256.07 139 1253.31H129ZM139 1268.94C139 1266.18 136.761 1263.94 134 1263.94C131.239 1263.94 129 1266.18 129 1268.94H139ZM129 1284.56C129 1287.32 131.239 1289.56 134 1289.56C136.761 1289.56 139 1287.32 139 1284.56H129ZM139 1300.19C139 1297.43 136.761 1295.19 134 1295.19C131.239 1295.19 129 1297.43 129 1300.19H139ZM129 1315.81C129 1318.57 131.239 1320.81 134 1320.81C136.761 1320.81 139 1318.57 139 1315.81H129ZM139 1331.44C139 1328.68 136.761 1326.44 134 1326.44C131.239 1326.44 129 1328.68 129 1331.44H139ZM129 1347.06C129 1349.82 131.239 1352.06 134 1352.06C136.761 1352.06 139 1349.82 139 1347.06H129ZM139 1362.69C139 1359.93 136.761 1357.69 134 1357.69C131.239 1357.69 129 1359.93 129 1362.69H139ZM129 1378.31C129 1381.07 131.239 1383.31 134 1383.31C136.761 1383.31 139 1381.07 139 1378.31H129ZM139 1393.94C139 1391.18 136.761 1388.94 134 1388.94C131.239 1388.94 129 1391.18 129 1393.94H139ZM129 1409.56C129 1412.32 131.239 1414.56 134 1414.56C136.761 1414.56 139 1412.32 139 1409.56H129ZM139 1425.19C139 1422.43 136.761 1420.19 134 1420.19C131.239 1420.19 129 1422.43 129 1425.19H139ZM129 1440.81C129 1443.57 131.239 1445.81 134 1445.81C136.761 1445.81 139 1443.57 139 1440.81H129ZM139 1456.44C139 1453.68 136.761 1451.44 134 1451.44C131.239 1451.44 129 1453.68 129 1456.44H139ZM129 1472.06C129 1474.82 131.239 1477.06 134 1477.06C136.761 1477.06 139 1474.82 139 1472.06H129ZM139 1487.69C139 1484.93 136.761 1482.69 134 1482.69C131.239 1482.69 129 1484.93 129 1487.69H139ZM129 1503.88C129 1506.64 131.239 1508.88 134 1508.88C136.761 1508.88 139 1506.64 139 1503.88H129ZM139 1520.62C139 1517.86 136.761 1515.62 134 1515.62C131.239 1515.62 129 1517.86 129 1520.62H139ZM129 1537.38C129 1540.14 131.239 1542.38 134 1542.38C136.761 1542.38 139 1540.14 139 1537.38H129ZM139 1554.12C139 1551.36 136.761 1549.12 134 1549.12C131.239 1549.12 129 1551.36 129 1554.12H139ZM129 1570.88C129 1573.64 131.239 1575.88 134 1575.88C136.761 1575.88 139 1573.64 139 1570.88H129ZM139 1587.62C139 1584.86 136.761 1582.62 134 1582.62C131.239 1582.62 129 1584.86 129 1587.62H139ZM129 1604.38C129 1607.14 131.239 1609.38 134 1609.38C136.761 1609.38 139 1607.14 139 1604.38H129ZM139 1621.12C139 1618.36 136.761 1616.12 134 1616.12C131.239 1616.12 129 1618.36 129 1621.12H139ZM129 1637.88C129 1640.64 131.239 1642.88 134 1642.88C136.761 1642.88 139 1640.64 139 1637.88H129ZM139 1654.62C139 1651.86 136.761 1649.62 134 1649.62C131.239 1649.62 129 1651.86 129 1654.62H139ZM129 1671.38C129 1674.14 131.239 1676.38 134 1676.38C136.761 1676.38 139 1674.14 139 1671.38H129ZM139 1688.12C139 1685.36 136.761 1683.12 134 1683.12C131.239 1683.12 129 1685.36 129 1688.12H139ZM129 1704.88C129 1707.64 131.239 1709.88 134 1709.88C136.761 1709.88 139 1707.64 139 1704.88H129ZM139 1721.62C139 1718.86 136.761 1716.62 134 1716.62C131.239 1716.62 129 1718.86 129 1721.62H139ZM129 1738.38C129 1741.14 131.239 1743.38 134 1743.38C136.761 1743.38 139 1741.14 139 1738.38H129ZM139 1755.12C139 1752.36 136.761 1750.12 134 1750.12C131.239 1750.12 129 1752.36 129 1755.12H139ZM142.594 1768.5C145.355 1768.5 147.594 1766.26 147.594 1763.5C147.594 1760.74 145.355 1758.5 142.594 1758.5V1768.5ZM159.781 1758.5C157.02 1758.5 154.781 1760.74 154.781 1763.5C154.781 1766.26 157.02 1768.5 159.781 1768.5V1758.5ZM176.969 1768.5C179.73 1768.5 181.969 1766.26 181.969 1763.5C181.969 1760.74 179.73 1758.5 176.969 1758.5V1768.5ZM194.156 1758.5C191.395 1758.5 189.156 1760.74 189.156 1763.5C189.156 1766.26 191.395 1768.5 194.156 1768.5V1758.5ZM211.344 1768.5C214.105 1768.5 216.344 1766.26 216.344 1763.5C216.344 1760.74 214.105 1758.5 211.344 1758.5V1768.5ZM228.531 1758.5C225.77 1758.5 223.531 1760.74 223.531 1763.5C223.531 1766.26 225.77 1768.5 228.531 1768.5V1758.5ZM245.719 1768.5C248.48 1768.5 250.719 1766.26 250.719 1763.5C250.719 1760.74 248.48 1758.5 245.719 1758.5V1768.5ZM262.906 1758.5C260.145 1758.5 257.906 1760.74 257.906 1763.5C257.906 1766.26 260.145 1768.5 262.906 1768.5V1758.5ZM142.594 1500.5C145.355 1500.5 147.594 1498.26 147.594 1495.5C147.594 1492.74 145.355 1490.5 142.594 1490.5V1500.5ZM159.781 1490.5C157.02 1490.5 154.781 1492.74 154.781 1495.5C154.781 1498.26 157.02 1500.5 159.781 1500.5V1490.5ZM176.969 1500.5C179.73 1500.5 181.969 1498.26 181.969 1495.5C181.969 1492.74 179.73 1490.5 176.969 1490.5V1500.5ZM194.156 1490.5C191.395 1490.5 189.156 1492.74 189.156 1495.5C189.156 1498.26 191.395 1500.5 194.156 1500.5V1490.5ZM211.344 1500.5C214.105 1500.5 216.344 1498.26 216.344 1495.5C216.344 1492.74 214.105 1490.5 211.344 1490.5V1500.5ZM228.531 1490.5C225.77 1490.5 223.531 1492.74 223.531 1495.5C223.531 1498.26 225.77 1500.5 228.531 1500.5V1490.5ZM245.719 1500.5C248.48 1500.5 250.719 1498.26 250.719 1495.5C250.719 1492.74 248.48 1490.5 245.719 1490.5V1500.5ZM262.906 1490.5C260.145 1490.5 257.906 1492.74 257.906 1495.5C257.906 1498.26 260.145 1500.5 262.906 1500.5V1490.5ZM129 0V8.07044H139V0H129ZM129 24.2113V40.3522H139V24.2113H129ZM129 56.4931V72.6339H139V56.4931H129ZM129 88.7748V104.916H139V88.7748H129ZM129 121.057V137.197H139V121.057H129ZM129 153.338V169.479H139V153.338H129ZM129 185.62V201.761H139V185.62H129ZM129 217.902V234.043H139V217.902H129ZM129 250.184V258.254H139V250.184H129ZM134 263.254H142.594V253.254H134V263.254ZM159.781 263.254H176.969V253.254H159.781V263.254ZM194.156 263.254H211.344V253.254H194.156V263.254ZM228.531 263.254H245.719V253.254H228.531V263.254ZM262.906 263.254H271.5V253.254H262.906V263.254ZM129 258.254V265.844H139V258.254H129ZM129 281.025V296.205H139V281.025H129ZM129 311.385V326.566H139V311.385H129ZM129 341.746V356.926H139V341.746H129ZM129 372.107V387.287H139V372.107H129ZM129 402.467V417.647H139V402.467H129ZM129 432.828V448.008H139V432.828H129ZM129 463.188V478.369H139V463.188H129ZM129 493.549V508.729H139V493.549H129ZM129 523.91V531.5H139V523.91H129ZM129 531.5V539.703H139V531.5H129ZM129 556.109V572.516H139V556.109H129ZM129 588.922V605.328H139V588.922H129ZM129 621.734V638.141H139V621.734H129ZM129 654.547V670.953H139V654.547H129ZM129 687.359V703.766H139V687.359H129ZM129 720.172V736.578H139V720.172H129ZM129 752.984V769.391H139V752.984H129ZM129 785.797V794H139V785.797H129ZM134 536.5H142.594V526.5H134V536.5ZM159.781 536.5H176.969V526.5H159.781V536.5ZM194.156 536.5H211.344V526.5H194.156V536.5ZM228.531 536.5H245.719V526.5H228.531V536.5ZM262.906 536.5H271.5V526.5H262.906V536.5ZM129 794V802.25H139V794H129ZM129 818.75V835.25H139V818.75H129ZM129 851.75V868.25H139V851.75H129ZM129 884.75V901.25H139V884.75H129ZM129 917.75V934.25H139V917.75H129ZM129 950.75V967.25H139V950.75H129ZM129 983.75V1000.25H139V983.75H129ZM129 1016.75V1033.25H139V1016.75H129ZM129 1049.75V1058H139V1049.75H129ZM7.5 799H15.4062V789H7.5V799ZM31.2188 799H47.0312V789H31.2188V799ZM62.8438 799H78.6562V789H62.8438V799ZM94.4688 799H110.281V789H94.4688V799ZM126.094 799H134V789H126.094V799ZM7.5 1063H15.4062V1053H7.5V1063ZM31.2188 1063H47.0312V1053H31.2188V1063ZM62.8438 1063H78.6562V1053H62.8438V1063ZM94.4688 1063H110.281V1053H94.4688V1063ZM126.094 1063H134V1053H126.094V1063ZM129 1058V1065.81H139V1058H129ZM129 1081.44V1097.06H139V1081.44H129ZM129 1112.69V1128.31H139V1112.69H129ZM129 1143.94V1159.56H139V1143.94H129ZM129 1175.19V1190.81H139V1175.19H129ZM129 1206.44V1222.06H139V1206.44H129ZM129 1237.69V1253.31H139V1237.69H129ZM129 1268.94V1284.56H139V1268.94H129ZM129 1300.19V1315.81H139V1300.19H129ZM129 1331.44V1347.06H139V1331.44H129ZM129 1362.69V1378.31H139V1362.69H129ZM129 1393.94V1409.56H139V1393.94H129ZM129 1425.19V1440.81H139V1425.19H129ZM129 1456.44V1472.06H139V1456.44H129ZM129 1487.69V1495.5H139V1487.69H129ZM129 1495.5V1503.88H139V1495.5H129ZM129 1520.62V1537.38H139V1520.62H129ZM129 1554.12V1570.88H139V1554.12H129ZM129 1587.62V1604.38H139V1587.62H129ZM129 1621.12V1637.88H139V1621.12H129ZM129 1654.62V1671.38H139V1654.62H129ZM129 1688.12V1704.88H139V1688.12H129ZM129 1721.62V1738.38H139V1721.62H129ZM129 1755.12V1763.5H139V1755.12H129ZM134 1768.5H142.594V1758.5H134V1768.5ZM159.781 1768.5H176.969V1758.5H159.781V1768.5ZM194.156 1768.5H211.344V1758.5H194.156V1768.5ZM228.531 1768.5H245.719V1758.5H228.531V1768.5ZM262.906 1768.5H271.5V1758.5H262.906V1768.5ZM134 1500.5H142.594V1490.5H134V1500.5ZM159.781 1500.5H176.969V1490.5H159.781V1500.5ZM194.156 1500.5H211.344V1490.5H194.156V1500.5ZM228.531 1500.5H245.719V1490.5H228.531V1500.5ZM262.906 1500.5H271.5V1490.5H262.906V1500.5ZM275.036 261.79C276.988 259.837 276.988 256.671 275.036 254.718L243.216 222.899C241.263 220.946 238.097 220.946 236.145 222.899C234.192 224.851 234.192 228.017 236.145 229.97L264.429 258.254L236.145 286.538C234.192 288.491 234.192 291.657 236.145 293.609C238.097 295.562 241.263 295.562 243.216 293.609L275.036 261.79ZM3.96447 1054.46C2.01184 1056.42 2.01184 1059.58 3.96447 1061.54L35.7843 1093.36C37.7369 1095.31 40.9027 1095.31 42.8553 1093.36C44.808 1091.4 44.808 1088.24 42.8553 1086.28L14.5711 1058L42.8553 1029.72C44.808 1027.76 44.808 1024.6 42.8553 1022.64C40.9027 1020.69 37.7369 1020.69 35.7843 1022.64L3.96447 1054.46ZM134 1763.5H129C129 1766.26 131.239 1768.5 134 1768.5V1763.5ZM275.036 1767.04C276.988 1765.08 276.988 1761.92 275.036 1759.96L243.216 1728.14C241.263 1726.19 238.097 1726.19 236.145 1728.14C234.192 1730.1 234.192 1733.26 236.145 1735.22L264.429 1763.5L236.145 1791.78C234.192 1793.74 234.192 1796.9 236.145 1798.86C238.097 1800.81 241.263 1800.81 243.216 1798.86L275.036 1767.04ZM275.036 535.036C276.988 533.083 276.988 529.917 275.036 527.964L243.216 496.145C241.263 494.192 238.097 494.192 236.145 496.145C234.192 498.097 234.192 501.263 236.145 503.216L264.429 531.5L236.145 559.784C234.192 561.737 234.192 564.903 236.145 566.855C238.097 568.808 241.263 568.808 243.216 566.855L275.036 535.036ZM3.96447 790.464C2.01184 792.417 2.01184 795.583 3.96447 797.536L35.7843 829.355C37.7369 831.308 40.9027 831.308 42.8553 829.355C44.808 827.403 44.808 824.237 42.8553 822.284L14.5711 794L42.8553 765.716C44.808 763.763 44.808 760.597 42.8553 758.645C40.9027 756.692 37.7369 756.692 35.7843 758.645L3.96447 790.464ZM275.036 1499.04C276.988 1497.08 276.988 1493.92 275.036 1491.96L243.216 1460.14C241.263 1458.19 238.097 1458.19 236.145 1460.14C234.192 1462.1 234.192 1465.26 236.145 1467.22L264.429 1495.5L236.145 1523.78C234.192 1525.74 234.192 1528.9 236.145 1530.86C238.097 1532.81 241.263 1532.81 243.216 1530.86L275.036 1499.04ZM129 8.07044C129 10.8319 131.239 13.0704 134 13.0704C136.761 13.0704 139 10.8319 139 8.07044H129ZM139 24.2113C139 21.4499 136.761 19.2113 134 19.2113C131.239 19.2113 129 21.4499 129 24.2113H139ZM129 40.3522C129 43.1136 131.239 45.3522 134 45.3522C136.761 45.3522 139 43.1136 139 40.3522H129ZM139 56.4931C139 53.7316 136.761 51.4931 134 51.4931C131.239 51.4931 129 53.7316 129 56.4931H139ZM129 72.6339C129 75.3954 131.239 77.6339 134 77.6339C136.761 77.6339 139 75.3954 139 72.6339H129ZM139 88.7748C139 86.0134 136.761 83.7748 134 83.7748C131.239 83.7748 129 86.0134 129 88.7748H139ZM129 104.916C129 107.677 131.239 109.916 134 109.916C136.761 109.916 139 107.677 139 104.916H129ZM139 121.057C139 118.295 136.761 116.057 134 116.057C131.239 116.057 129 118.295 129 121.057H139ZM129 137.197C129 139.959 131.239 142.197 134 142.197C136.761 142.197 139 139.959 139 137.197H129ZM139 153.338C139 150.577 136.761 148.338 134 148.338C131.239 148.338 129 150.577 129 153.338H139ZM129 169.479C129 172.241 131.239 174.479 134 174.479C136.761 174.479 139 172.241 139 169.479H129ZM139 185.62C139 182.859 136.761 180.62 134 180.62C131.239 180.62 129 182.859 129 185.62H139ZM129 201.761C129 204.522 131.239 206.761 134 206.761C136.761 206.761 139 204.522 139 201.761H129ZM139 217.902C139 215.14 136.761 212.902 134 212.902C131.239 212.902 129 215.14 129 217.902H139ZM129 234.043C129 236.804 131.239 239.043 134 239.043C136.761 239.043 139 236.804 139 234.043H129ZM139 250.184C139 247.422 136.761 245.184 134 245.184C131.239 245.184 129 247.422 129 250.184H139ZM142.594 263.254C145.355 263.254 147.594 261.015 147.594 258.254C147.594 255.493 145.355 253.254 142.594 253.254V263.254ZM159.781 253.254C157.02 253.254 154.781 255.493 154.781 258.254C154.781 261.015 157.02 263.254 159.781 263.254V253.254ZM176.969 263.254C179.73 263.254 181.969 261.015 181.969 258.254C181.969 255.493 179.73 253.254 176.969 253.254V263.254ZM194.156 253.254C191.395 253.254 189.156 255.493 189.156 258.254C189.156 261.015 191.395 263.254 194.156 263.254V253.254ZM211.344 263.254C214.105 263.254 216.344 261.015 216.344 258.254C216.344 255.493 214.105 253.254 211.344 253.254V263.254ZM228.531 253.254C225.77 253.254 223.531 255.493 223.531 258.254C223.531 261.015 225.77 263.254 228.531 263.254V253.254ZM245.719 263.254C248.48 263.254 250.719 261.015 250.719 258.254C250.719 255.493 248.48 253.254 245.719 253.254V263.254ZM262.906 253.254C260.145 253.254 257.906 255.493 257.906 258.254C257.906 261.015 260.145 263.254 262.906 263.254V253.254ZM129 265.844C129 268.606 131.239 270.844 134 270.844C136.761 270.844 139 268.606 139 265.844H129ZM139 281.025C139 278.263 136.761 276.025 134 276.025C131.239 276.025 129 278.263 129 281.025H139ZM129 296.205C129 298.966 131.239 301.205 134 301.205C136.761 301.205 139 298.966 139 296.205H129ZM139 311.385C139 308.624 136.761 306.385 134 306.385C131.239 306.385 129 308.624 129 311.385H139ZM129 326.566C129 329.327 131.239 331.566 134 331.566C136.761 331.566 139 329.327 139 326.566H129ZM139 341.746C139 338.984 136.761 336.746 134 336.746C131.239 336.746 129 338.984 129 341.746H139ZM129 356.926C129 359.688 131.239 361.926 134 361.926C136.761 361.926 139 359.688 139 356.926H129ZM139 372.107C139 369.345 136.761 367.107 134 367.107C131.239 367.107 129 369.345 129 372.107H139ZM129 387.287C129 390.048 131.239 392.287 134 392.287C136.761 392.287 139 390.048 139 387.287H129ZM139 402.467C139 399.706 136.761 397.467 134 397.467C131.239 397.467 129 399.706 129 402.467H139ZM129 417.647C129 420.409 131.239 422.647 134 422.647C136.761 422.647 139 420.409 139 417.647H129ZM139 432.828C139 430.066 136.761 427.828 134 427.828C131.239 427.828 129 430.066 129 432.828H139ZM129 448.008C129 450.77 131.239 453.008 134 453.008C136.761 453.008 139 450.77 139 448.008H129ZM139 463.188C139 460.427 136.761 458.188 134 458.188C131.239 458.188 129 460.427 129 463.188H139ZM129 478.369C129 481.13 131.239 483.369 134 483.369C136.761 483.369 139 481.13 139 478.369H129ZM139 493.549C139 490.788 136.761 488.549 134 488.549C131.239 488.549 129 490.788 129 493.549H139ZM129 508.729C129 511.491 131.239 513.729 134 513.729C136.761 513.729 139 511.491 139 508.729H129ZM139 523.91C139 521.148 136.761 518.91 134 518.91C131.239 518.91 129 521.148 129 523.91H139ZM129 539.703C129 542.465 131.239 544.703 134 544.703C136.761 544.703 139 542.465 139 539.703H129ZM139 556.109C139 553.348 136.761 551.109 134 551.109C131.239 551.109 129 553.348 129 556.109H139ZM129 572.516C129 575.277 131.239 577.516 134 577.516C136.761 577.516 139 575.277 139 572.516H129ZM139 588.922C139 586.16 136.761 583.922 134 583.922C131.239 583.922 129 586.16 129 588.922H139ZM129 605.328C129 608.09 131.239 610.328 134 610.328C136.761 610.328 139 608.09 139 605.328H129ZM139 621.734C139 618.973 136.761 616.734 134 616.734C131.239 616.734 129 618.973 129 621.734H139ZM129 638.141C129 640.902 131.239 643.141 134 643.141C136.761 643.141 139 640.902 139 638.141H129ZM139 654.547C139 651.785 136.761 649.547 134 649.547C131.239 649.547 129 651.785 129 654.547H139ZM129 670.953C129 673.715 131.239 675.953 134 675.953C136.761 675.953 139 673.715 139 670.953H129ZM139 687.359C139 684.598 136.761 682.359 134 682.359C131.239 682.359 129 684.598 129 687.359H139ZM129 703.766C129 706.527 131.239 708.766 134 708.766C136.761 708.766 139 706.527 139 703.766H129ZM139 720.172C139 717.41 136.761 715.172 134 715.172C131.239 715.172 129 717.41 129 720.172H139ZM129 736.578C129 739.34 131.239 741.578 134 741.578C136.761 741.578 139 739.34 139 736.578H129ZM139 752.984C139 750.223 136.761 747.984 134 747.984C131.239 747.984 129 750.223 129 752.984H139ZM129 769.391C129 772.152 131.239 774.391 134 774.391C136.761 774.391 139 772.152 139 769.391H129ZM139 785.797C139 783.035 136.761 780.797 134 780.797C131.239 780.797 129 783.035 129 785.797H139ZM142.594 536.5C145.355 536.5 147.594 534.261 147.594 531.5C147.594 528.739 145.355 526.5 142.594 526.5V536.5ZM159.781 526.5C157.02 526.5 154.781 528.739 154.781 531.5C154.781 534.261 157.02 536.5 159.781 536.5V526.5ZM176.969 536.5C179.73 536.5 181.969 534.261 181.969 531.5C181.969 528.739 179.73 526.5 176.969 526.5V536.5ZM194.156 526.5C191.395 526.5 189.156 528.739 189.156 531.5C189.156 534.261 191.395 536.5 194.156 536.5V526.5ZM211.344 536.5C214.105 536.5 216.344 534.261 216.344 531.5C216.344 528.739 214.105 526.5 211.344 526.5V536.5ZM228.531 526.5C225.77 526.5 223.531 528.739 223.531 531.5C223.531 534.261 225.77 536.5 228.531 536.5V526.5ZM245.719 536.5C248.48 536.5 250.719 534.261 250.719 531.5C250.719 528.739 248.48 526.5 245.719 526.5V536.5ZM262.906 526.5C260.145 526.5 257.906 528.739 257.906 531.5C257.906 534.261 260.145 536.5 262.906 536.5V526.5ZM129 802.25C129 805.011 131.239 807.25 134 807.25C136.761 807.25 139 805.011 139 802.25H129ZM139 818.75C139 815.989 136.761 813.75 134 813.75C131.239 813.75 129 815.989 129 818.75H139ZM129 835.25C129 838.011 131.239 840.25 134 840.25C136.761 840.25 139 838.011 139 835.25H129ZM139 851.75C139 848.989 136.761 846.75 134 846.75C131.239 846.75 129 848.989 129 851.75H139ZM129 868.25C129 871.011 131.239 873.25 134 873.25C136.761 873.25 139 871.011 139 868.25H129ZM139 884.75C139 881.989 136.761 879.75 134 879.75C131.239 879.75 129 881.989 129 884.75H139ZM129 901.25C129 904.011 131.239 906.25 134 906.25C136.761 906.25 139 904.011 139 901.25H129ZM139 917.75C139 914.989 136.761 912.75 134 912.75C131.239 912.75 129 914.989 129 917.75H139ZM129 934.25C129 937.011 131.239 939.25 134 939.25C136.761 939.25 139 937.011 139 934.25H129ZM139 950.75C139 947.989 136.761 945.75 134 945.75C131.239 945.75 129 947.989 129 950.75H139ZM129 967.25C129 970.011 131.239 972.25 134 972.25C136.761 972.25 139 970.011 139 967.25H129ZM139 983.75C139 980.989 136.761 978.75 134 978.75C131.239 978.75 129 980.989 129 983.75H139ZM129 1000.25C129 1003.01 131.239 1005.25 134 1005.25C136.761 1005.25 139 1003.01 139 1000.25H129ZM139 1016.75C139 1013.99 136.761 1011.75 134 1011.75C131.239 1011.75 129 1013.99 129 1016.75H139ZM129 1033.25C129 1036.01 131.239 1038.25 134 1038.25C136.761 1038.25 139 1036.01 139 1033.25H129ZM139 1049.75C139 1046.99 136.761 1044.75 134 1044.75C131.239 1044.75 129 1046.99 129 1049.75H139ZM15.4062 799C18.1677 799 20.4062 796.761 20.4062 794C20.4062 791.239 18.1677 789 15.4062 789V799ZM31.2188 789C28.4573 789 26.2188 791.239 26.2188 794C26.2188 796.761 28.4573 799 31.2188 799V789ZM47.0312 799C49.7927 799 52.0312 796.761 52.0312 794C52.0312 791.239 49.7927 789 47.0312 789V799ZM62.8438 789C60.0823 789 57.8438 791.239 57.8438 794C57.8438 796.761 60.0823 799 62.8438 799V789ZM78.6562 799C81.4177 799 83.6562 796.761 83.6562 794C83.6562 791.239 81.4177 789 78.6562 789V799ZM94.4688 789C91.7073 789 89.4688 791.239 89.4688 794C89.4688 796.761 91.7073 799 94.4688 799V789ZM110.281 799C113.043 799 115.281 796.761 115.281 794C115.281 791.239 113.043 789 110.281 789V799ZM126.094 789C123.332 789 121.094 791.239 121.094 794C121.094 796.761 123.332 799 126.094 799V789ZM15.4062 1063C18.1677 1063 20.4062 1060.76 20.4062 1058C20.4062 1055.24 18.1677 1053 15.4062 1053V1063ZM31.2188 1053C28.4573 1053 26.2188 1055.24 26.2188 1058C26.2188 1060.76 28.4573 1063 31.2188 1063V1053ZM47.0312 1063C49.7927 1063 52.0312 1060.76 52.0312 1058C52.0312 1055.24 49.7927 1053 47.0312 1053V1063ZM62.8438 1053C60.0823 1053 57.8438 1055.24 57.8438 1058C57.8438 1060.76 60.0823 1063 62.8438 1063V1053ZM78.6562 1063C81.4177 1063 83.6562 1060.76 83.6562 1058C83.6562 1055.24 81.4177 1053 78.6562 1053V1063ZM94.4688 1053C91.7073 1053 89.4688 1055.24 89.4688 1058C89.4688 1060.76 91.7073 1063 94.4688 1063V1053ZM110.281 1063C113.043 1063 115.281 1060.76 115.281 1058C115.281 1055.24 113.043 1053 110.281 1053V1063ZM126.094 1053C123.332 1053 121.094 1055.24 121.094 1058C121.094 1060.76 123.332 1063 126.094 1063V1053ZM129 1065.81C129 1068.57 131.239 1070.81 134 1070.81C136.761 1070.81 139 1068.57 139 1065.81H129ZM139 1081.44C139 1078.68 136.761 1076.44 134 1076.44C131.239 1076.44 129 1078.68 129 1081.44H139ZM129 1097.06C129 1099.82 131.239 1102.06 134 1102.06C136.761 1102.06 139 1099.82 139 1097.06H129ZM139 1112.69C139 1109.93 136.761 1107.69 134 1107.69C131.239 1107.69 129 1109.93 129 1112.69H139ZM129 1128.31C129 1131.07 131.239 1133.31 134 1133.31C136.761 1133.31 139 1131.07 139 1128.31H129ZM139 1143.94C139 1141.18 136.761 1138.94 134 1138.94C131.239 1138.94 129 1141.18 129 1143.94H139ZM129 1159.56C129 1162.32 131.239 1164.56 134 1164.56C136.761 1164.56 139 1162.32 139 1159.56H129ZM139 1175.19C139 1172.43 136.761 1170.19 134 1170.19C131.239 1170.19 129 1172.43 129 1175.19H139ZM129 1190.81C129 1193.57 131.239 1195.81 134 1195.81C136.761 1195.81 139 1193.57 139 1190.81H129ZM139 1206.44C139 1203.68 136.761 1201.44 134 1201.44C131.239 1201.44 129 1203.68 129 1206.44H139ZM129 1222.06C129 1224.82 131.239 1227.06 134 1227.06C136.761 1227.06 139 1224.82 139 1222.06H129ZM139 1237.69C139 1234.93 136.761 1232.69 134 1232.69C131.239 1232.69 129 1234.93 129 1237.69H139ZM129 1253.31C129 1256.07 131.239 1258.31 134 1258.31C136.761 1258.31 139 1256.07 139 1253.31H129ZM139 1268.94C139 1266.18 136.761 1263.94 134 1263.94C131.239 1263.94 129 1266.18 129 1268.94H139ZM129 1284.56C129 1287.32 131.239 1289.56 134 1289.56C136.761 1289.56 139 1287.32 139 1284.56H129ZM139 1300.19C139 1297.43 136.761 1295.19 134 1295.19C131.239 1295.19 129 1297.43 129 1300.19H139ZM129 1315.81C129 1318.57 131.239 1320.81 134 1320.81C136.761 1320.81 139 1318.57 139 1315.81H129ZM139 1331.44C139 1328.68 136.761 1326.44 134 1326.44C131.239 1326.44 129 1328.68 129 1331.44H139ZM129 1347.06C129 1349.82 131.239 1352.06 134 1352.06C136.761 1352.06 139 1349.82 139 1347.06H129ZM139 1362.69C139 1359.93 136.761 1357.69 134 1357.69C131.239 1357.69 129 1359.93 129 1362.69H139ZM129 1378.31C129 1381.07 131.239 1383.31 134 1383.31C136.761 1383.31 139 1381.07 139 1378.31H129ZM139 1393.94C139 1391.18 136.761 1388.94 134 1388.94C131.239 1388.94 129 1391.18 129 1393.94H139ZM129 1409.56C129 1412.32 131.239 1414.56 134 1414.56C136.761 1414.56 139 1412.32 139 1409.56H129ZM139 1425.19C139 1422.43 136.761 1420.19 134 1420.19C131.239 1420.19 129 1422.43 129 1425.19H139ZM129 1440.81C129 1443.57 131.239 1445.81 134 1445.81C136.761 1445.81 139 1443.57 139 1440.81H129ZM139 1456.44C139 1453.68 136.761 1451.44 134 1451.44C131.239 1451.44 129 1453.68 129 1456.44H139ZM129 1472.06C129 1474.82 131.239 1477.06 134 1477.06C136.761 1477.06 139 1474.82 139 1472.06H129ZM139 1487.69C139 1484.93 136.761 1482.69 134 1482.69C131.239 1482.69 129 1484.93 129 1487.69H139ZM129 1503.88C129 1506.64 131.239 1508.88 134 1508.88C136.761 1508.88 139 1506.64 139 1503.88H129ZM139 1520.62C139 1517.86 136.761 1515.62 134 1515.62C131.239 1515.62 129 1517.86 129 1520.62H139ZM129 1537.38C129 1540.14 131.239 1542.38 134 1542.38C136.761 1542.38 139 1540.14 139 1537.38H129ZM139 1554.12C139 1551.36 136.761 1549.12 134 1549.12C131.239 1549.12 129 1551.36 129 1554.12H139ZM129 1570.88C129 1573.64 131.239 1575.88 134 1575.88C136.761 1575.88 139 1573.64 139 1570.88H129ZM139 1587.62C139 1584.86 136.761 1582.62 134 1582.62C131.239 1582.62 129 1584.86 129 1587.62H139ZM129 1604.38C129 1607.14 131.239 1609.38 134 1609.38C136.761 1609.38 139 1607.14 139 1604.38H129ZM139 1621.12C139 1618.36 136.761 1616.12 134 1616.12C131.239 1616.12 129 1618.36 129 1621.12H139ZM129 1637.88C129 1640.64 131.239 1642.88 134 1642.88C136.761 1642.88 139 1640.64 139 1637.88H129ZM139 1654.62C139 1651.86 136.761 1649.62 134 1649.62C131.239 1649.62 129 1651.86 129 1654.62H139ZM129 1671.38C129 1674.14 131.239 1676.38 134 1676.38C136.761 1676.38 139 1674.14 139 1671.38H129ZM139 1688.12C139 1685.36 136.761 1683.12 134 1683.12C131.239 1683.12 129 1685.36 129 1688.12H139ZM129 1704.88C129 1707.64 131.239 1709.88 134 1709.88C136.761 1709.88 139 1707.64 139 1704.88H129ZM139 1721.62C139 1718.86 136.761 1716.62 134 1716.62C131.239 1716.62 129 1718.86 129 1721.62H139ZM129 1738.38C129 1741.14 131.239 1743.38 134 1743.38C136.761 1743.38 139 1741.14 139 1738.38H129ZM139 1755.12C139 1752.36 136.761 1750.12 134 1750.12C131.239 1750.12 129 1752.36 129 1755.12H139ZM142.594 1768.5C145.355 1768.5 147.594 1766.26 147.594 1763.5C147.594 1760.74 145.355 1758.5 142.594 1758.5V1768.5ZM159.781 1758.5C157.02 1758.5 154.781 1760.74 154.781 1763.5C154.781 1766.26 157.02 1768.5 159.781 1768.5V1758.5ZM176.969 1768.5C179.73 1768.5 181.969 1766.26 181.969 1763.5C181.969 1760.74 179.73 1758.5 176.969 1758.5V1768.5ZM194.156 1758.5C191.395 1758.5 189.156 1760.74 189.156 1763.5C189.156 1766.26 191.395 1768.5 194.156 1768.5V1758.5ZM211.344 1768.5C214.105 1768.5 216.344 1766.26 216.344 1763.5C216.344 1760.74 214.105 1758.5 211.344 1758.5V1768.5ZM228.531 1758.5C225.77 1758.5 223.531 1760.74 223.531 1763.5C223.531 1766.26 225.77 1768.5 228.531 1768.5V1758.5ZM245.719 1768.5C248.48 1768.5 250.719 1766.26 250.719 1763.5C250.719 1760.74 248.48 1758.5 245.719 1758.5V1768.5ZM262.906 1758.5C260.145 1758.5 257.906 1760.74 257.906 1763.5C257.906 1766.26 260.145 1768.5 262.906 1768.5V1758.5ZM142.594 1500.5C145.355 1500.5 147.594 1498.26 147.594 1495.5C147.594 1492.74 145.355 1490.5 142.594 1490.5V1500.5ZM159.781 1490.5C157.02 1490.5 154.781 1492.74 154.781 1495.5C154.781 1498.26 157.02 1500.5 159.781 1500.5V1490.5ZM176.969 1500.5C179.73 1500.5 181.969 1498.26 181.969 1495.5C181.969 1492.74 179.73 1490.5 176.969 1490.5V1500.5ZM194.156 1490.5C191.395 1490.5 189.156 1492.74 189.156 1495.5C189.156 1498.26 191.395 1500.5 194.156 1500.5V1490.5ZM211.344 1500.5C214.105 1500.5 216.344 1498.26 216.344 1495.5C216.344 1492.74 214.105 1490.5 211.344 1490.5V1500.5ZM228.531 1490.5C225.77 1490.5 223.531 1492.74 223.531 1495.5C223.531 1498.26 225.77 1500.5 228.531 1500.5V1490.5ZM245.719 1500.5C248.48 1500.5 250.719 1498.26 250.719 1495.5C250.719 1492.74 248.48 1490.5 245.719 1490.5V1500.5ZM262.906 1490.5C260.145 1490.5 257.906 1492.74 257.906 1495.5C257.906 1498.26 260.145 1500.5 262.906 1500.5V1490.5ZM129 0V8.07044H139V0H129ZM129 24.2113V40.3522H139V24.2113H129ZM129 56.4931V72.6339H139V56.4931H129ZM129 88.7748V104.916H139V88.7748H129ZM129 121.057V137.197H139V121.057H129ZM129 153.338V169.479H139V153.338H129ZM129 185.62V201.761H139V185.62H129ZM129 217.902V234.043H139V217.902H129ZM129 250.184V258.254H139V250.184H129ZM134 263.254H142.594V253.254H134V263.254ZM159.781 263.254H176.969V253.254H159.781V263.254ZM194.156 263.254H211.344V253.254H194.156V263.254ZM228.531 263.254H245.719V253.254H228.531V263.254ZM262.906 263.254H271.5V253.254H262.906V263.254ZM129 258.254V265.844H139V258.254H129ZM129 281.025V296.205H139V281.025H129ZM129 311.385V326.566H139V311.385H129ZM129 341.746V356.926H139V341.746H129ZM129 372.107V387.287H139V372.107H129ZM129 402.467V417.647H139V402.467H129ZM129 432.828V448.008H139V432.828H129ZM129 463.188V478.369H139V463.188H129ZM129 493.549V508.729H139V493.549H129ZM129 523.91V531.5H139V523.91H129ZM129 531.5V539.703H139V531.5H129ZM129 556.109V572.516H139V556.109H129ZM129 588.922V605.328H139V588.922H129ZM129 621.734V638.141H139V621.734H129ZM129 654.547V670.953H139V654.547H129ZM129 687.359V703.766H139V687.359H129ZM129 720.172V736.578H139V720.172H129ZM129 752.984V769.391H139V752.984H129ZM129 785.797V794H139V785.797H129ZM134 536.5H142.594V526.5H134V536.5ZM159.781 536.5H176.969V526.5H159.781V536.5ZM194.156 536.5H211.344V526.5H194.156V536.5ZM228.531 536.5H245.719V526.5H228.531V536.5ZM262.906 536.5H271.5V526.5H262.906V536.5ZM129 794V802.25H139V794H129ZM129 818.75V835.25H139V818.75H129ZM129 851.75V868.25H139V851.75H129ZM129 884.75V901.25H139V884.75H129ZM129 917.75V934.25H139V917.75H129ZM129 950.75V967.25H139V950.75H129ZM129 983.75V1000.25H139V983.75H129ZM129 1016.75V1033.25H139V1016.75H129ZM129 1049.75V1058H139V1049.75H129ZM7.5 799H15.4062V789H7.5V799ZM31.2188 799H47.0312V789H31.2188V799ZM62.8438 799H78.6562V789H62.8438V799ZM94.4688 799H110.281V789H94.4688V799ZM126.094 799H134V789H126.094V799ZM7.5 1063H15.4062V1053H7.5V1063ZM31.2188 1063H47.0312V1053H31.2188V1063ZM62.8438 1063H78.6562V1053H62.8438V1063ZM94.4688 1063H110.281V1053H94.4688V1063ZM126.094 1063H134V1053H126.094V1063ZM129 1058V1065.81H139V1058H129ZM129 1081.44V1097.06H139V1081.44H129ZM129 1112.69V1128.31H139V1112.69H129ZM129 1143.94V1159.56H139V1143.94H129ZM129 1175.19V1190.81H139V1175.19H129ZM129 1206.44V1222.06H139V1206.44H129ZM129 1237.69V1253.31H139V1237.69H129ZM129 1268.94V1284.56H139V1268.94H129ZM129 1300.19V1315.81H139V1300.19H129ZM129 1331.44V1347.06H139V1331.44H129ZM129 1362.69V1378.31H139V1362.69H129ZM129 1393.94V1409.56H139V1393.94H129ZM129 1425.19V1440.81H139V1425.19H129ZM129 1456.44V1472.06H139V1456.44H129ZM129 1487.69V1495.5H139V1487.69H129ZM129 1495.5V1503.88H139V1495.5H129ZM129 1520.62V1537.38H139V1520.62H129ZM129 1554.12V1570.88H139V1554.12H129ZM129 1587.62V1604.38H139V1587.62H129ZM129 1621.12V1637.88H139V1621.12H129ZM129 1654.62V1671.38H139V1654.62H129ZM129 1688.12V1704.88H139V1688.12H129ZM129 1721.62V1738.38H139V1721.62H129ZM129 1755.12V1763.5H139V1755.12H129ZM134 1768.5H142.594V1758.5H134V1768.5ZM159.781 1768.5H176.969V1758.5H159.781V1768.5ZM194.156 1768.5H211.344V1758.5H194.156V1768.5ZM228.531 1768.5H245.719V1758.5H228.531V1768.5ZM262.906 1768.5H271.5V1758.5H262.906V1768.5ZM134 1500.5H142.594V1490.5H134V1500.5ZM159.781 1500.5H176.969V1490.5H159.781V1500.5ZM194.156 1500.5H211.344V1490.5H194.156V1500.5ZM228.531 1500.5H245.719V1490.5H228.531V1500.5ZM262.906 1500.5H271.5V1490.5H262.906V1500.5Z" fill="#938600"/>
</g>
<defs>
<filter id="filter0_d_336_1767" x="0.5" y="0" width="278" height="1804.32" filterUnits="userSpaceOnUse" color-interpolation-filters="sRGB">
<feFlood flood-opacity="0" result="BackgroundImageFix"/>
<feColorMatrix in="SourceAlpha" type="matrix" values="0 0 0 0 0 0 0 0 0 0 0 0 0 0 0 0 0 0 127 0" result="hardAlpha"/>
<feOffset dy="2"/>
<feGaussianBlur stdDeviation="1"/>
<feComposite in2="hardAlpha" operator="out"/>
<feColorMatrix type="matrix" values="0 0 0 0 0 0 0 0 0 0 0 0 0 0 0 0 0 0 0.15 0"/>
<feBlend mode="normal" in2="BackgroundImageFix" result="effect1_dropShadow_336_1767"/>
<feBlend mode="normal" in="SourceGraphic" in2="effect1_dropShadow_336_1767" result="shape"/>
</filter>
</defs>
</svg>
