<svg width="38" height="38" viewBox="0 0 38 38" fill="none" xmlns="http://www.w3.org/2000/svg">
<path d="M0 9.56184V13.7218H5.94067L0 9.56184ZM4.92311 32.7218H13.7222V26.5605L4.92311 32.7218ZM24.2778 26.5616V32.7218H33.0758L24.2778 26.5616ZM0 24.2773V28.4373L5.94278 24.2773H0ZM33.0779 5.27734H24.2778V11.4386L33.0779 5.27734ZM38 28.4383V24.2773H32.0562L38 28.4383ZM38 13.7218V9.56184L32.0583 13.7218H38ZM13.7222 5.27734H4.92311L13.7222 11.4386V5.27734Z" fill="#00247D"/>
<path d="M26.5365 24.277L36.788 31.4559C37.2852 30.9503 37.6409 30.3138 37.833 29.6097L30.2172 24.277H26.5365ZM13.722 24.277H11.4621L1.21158 31.4548C1.76153 32.0143 2.46664 32.4143 3.25725 32.6001L13.722 25.2724V24.277ZM24.2776 13.7215H26.5375L36.788 6.54372C36.2381 5.98427 35.534 5.58422 34.7434 5.39844L24.2776 12.7261V13.7215ZM11.4621 13.7215L1.21158 6.54372C0.714416 7.05038 0.358694 7.68583 0.165527 8.38988L7.78136 13.7215H11.4621Z" fill="#CF1B2B"/>
<path d="M38 22.1662H22.1667V32.7218H24.2778V26.5616L33.0758 32.7218H33.7778C34.9568 32.7218 36.0219 32.2352 36.7882 31.4562L26.5367 24.2773H30.2174L37.8332 29.61C37.9314 29.2543 38 28.8859 38 28.4996V28.4383L32.0562 24.2773H38V22.1662ZM0 22.1662V24.2773H5.94278L0 28.4373V28.4996C0 29.6512 0.463389 30.693 1.21178 31.4551L11.4623 24.2773H13.7222V25.2727L3.25744 32.5993C3.56778 32.6732 3.88867 32.7218 4.22222 32.7218H4.92311L13.7222 26.5605V32.7218H15.8333V22.1662H0ZM38 9.49957C38 8.34795 37.5366 7.30612 36.7882 6.54401L26.5377 13.7218H24.2778V12.7264L34.7436 5.39873C34.4322 5.3259 34.1113 5.27734 33.7778 5.27734H33.0779L24.2778 11.4386V5.27734H22.1667V15.8329H38V13.7218H32.0583L38 9.56184V9.49957ZM13.7222 5.27734V11.4386L4.92311 5.27734H4.22222C3.04211 5.27734 1.97811 5.76395 1.21178 6.54401L11.4623 13.7218H7.78156L0.165722 8.39018C0.0686111 8.7459 0 9.11323 0 9.49957V9.56184L5.94067 13.7218H0V15.8329H15.8333V5.27734H13.7222Z" fill="#EEEEEE"/>
<path d="M22.1667 15.8329V5.27734H15.8333V15.8329H0V22.1662H15.8333V32.7218H22.1667V22.1662H38V15.8329H22.1667Z" fill="#CF1B2B"/>
</svg>
