<svg width="218" height="231" viewBox="0 0 218 231" fill="none" xmlns="http://www.w3.org/2000/svg">
<path d="M103.787 98.8604C97.0073 102.529 87.3841 116.154 87.3841 116.154L75.659 101.478C70.4598 103.225 66.0459 106.931 63.2539 111.896L79.0178 130.827C80.7308 132.88 83.0784 134.219 85.6389 134.603C88.1995 134.987 90.8055 134.392 92.989 132.923L112.836 119.538L102.574 129.888L99.1536 178.712C104.412 180.823 110.232 180.738 115.433 178.472L119.946 103.839C116.419 106.066 107.434 102.857 103.787 98.8604Z" fill="#FECFC4"/>
<path d="M116.128 89.8428C115.28 89.8428 114.468 90.1993 113.869 90.8341C113.27 91.4688 112.934 92.3296 112.934 93.2272C112.934 94.1249 113.27 94.9857 113.869 95.6204C114.468 96.2551 115.28 96.6117 116.128 96.6117C116.975 96.6117 117.787 96.2551 118.386 95.6204C118.985 94.9857 119.322 94.1249 119.322 93.2272C119.322 92.3296 118.985 91.4688 118.386 90.8341C117.787 90.1993 116.975 89.8428 116.128 89.8428Z" fill="#FECFC4"/>
<path d="M141.887 166.397C141.885 169.187 142.806 171.89 144.488 174.035C146.171 176.181 148.509 177.635 151.098 178.145V204.282H155.24V178.145C157.827 177.633 160.164 176.178 161.846 174.033C163.528 171.888 164.45 169.187 164.451 166.397H141.887ZM153.158 174.739C152.88 174.738 152.604 174.68 152.346 174.567C152.089 174.454 151.855 174.288 151.658 174.079C151.461 173.871 151.304 173.623 151.198 173.35C151.091 173.077 151.036 172.784 151.037 172.489C151.037 172.194 151.092 171.901 151.198 171.628C151.305 171.355 151.461 171.108 151.659 170.899C151.856 170.69 152.09 170.524 152.347 170.411C152.605 170.298 152.881 170.24 153.16 170.24C153.722 170.241 154.262 170.478 154.66 170.9C155.058 171.321 155.282 171.894 155.281 172.49C155.281 173.087 155.058 173.659 154.659 174.08C154.261 174.502 153.721 174.739 153.158 174.739Z" fill="#FECFC4"/>
<path d="M67.972 204.219C68.0768 202.842 68.5016 201.515 69.2084 200.354C72.0087 195.922 74.1539 192.195 74.1539 181.467H59.75C59.75 191.465 61.5536 195.028 64.5925 200.158C65.3632 201.368 65.8312 202.765 65.9525 204.219C65.8701 207.735 65.5187 208.979 62.2228 210.202H71.7017C68.4253 208.976 68.0132 207.731 67.972 204.219ZM64.3865 192.887L65.2931 189.699L62.7791 187.69L65.9319 187.624L66.9623 184.48L67.9926 187.624L71.1454 187.69L68.6314 189.699L69.5381 192.887L66.9623 190.987L64.3865 192.887Z" fill="#FECFC4"/>
<path d="M112.813 119.539L102.551 129.889L102.798 126.286L112.813 119.539Z" fill="#6153BD"/>
<path d="M113.99 196.945C112.739 191.186 112.418 185.244 113.04 179.372C109.497 180.41 105.766 180.498 102.183 179.63C102.427 182.366 102.126 185.126 101.297 187.73C102.739 189.491 105.668 190.307 106.263 196.967C106.35 197.895 106.758 198.757 107.409 199.385C108.059 200.014 108.906 200.366 109.787 200.373H120.811C119.967 199.323 118.923 198.475 117.748 197.884C116.572 197.294 115.291 196.973 113.99 196.945Z" fill="#6153BD"/>
<path d="M66.9215 93.5333C58.8644 92.114 46.3975 91.4808 41.6992 93.5333C46.1636 96.8803 50.9767 99.6718 56.0435 101.853C57.9642 102.404 59.7223 103.461 61.1539 104.927L64.9249 109.425C67.2347 106.216 70.3065 103.715 73.8268 102.175L66.9215 93.5333Z" fill="#6153BD"/>
<path d="M113.578 71.1953L115.144 73.095C115.197 72.6594 115.306 72.2342 115.47 71.8308C114.821 71.6837 114.188 71.4708 113.578 71.1953Z" fill="#6153BD"/>
<path d="M107.268 57.9415C101.667 64.23 110.507 69.7107 111.172 70.1049C111.149 68.3255 110.991 66.5511 110.698 64.7989C108.431 63.9944 109.482 61.1524 111.007 62.2706C111.489 62.6774 111.991 62.9188 112.079 62.2706C112.718 58.1656 115.664 57.0738 117.519 60.8731C115 55.4741 111.634 53.5353 107.268 57.9415Z" fill="#6153BD"/>
<path d="M107.746 50.3642C107.091 49.79 106.292 49.4312 105.448 49.3319C104.603 49.2326 103.749 49.3972 102.992 49.8054C102.234 50.2137 101.606 50.8477 101.184 51.6295C100.762 52.4113 100.565 53.3068 100.618 54.2056C100.67 55.1045 100.969 55.9675 101.478 56.6884C101.988 57.4094 102.685 57.9568 103.484 58.2633C104.283 58.5697 105.149 58.6219 105.976 58.4134C106.803 58.2048 107.554 57.7447 108.137 57.0895C108.897 56.1287 109.28 54.8954 109.208 53.6441C109.135 52.3928 108.611 51.2188 107.746 50.3642Z" fill="#6153BD"/>
<path d="M89.9605 82.2441C89.7751 84.2093 90.146 85.8067 91.0527 86.1308C92.1242 86.502 93.34 85.4976 94.4527 83.9036C92.9389 83.4018 91.4407 82.8484 89.9605 82.2441Z" fill="#6153BD"/>
<path d="M103.605 90.4539L102.348 92.3099C102.08 91.465 101.79 90.6277 101.48 89.7988C102.224 90.0172 102.946 90.2355 103.605 90.4539Z" fill="#6153BD"/>
<path d="M117.512 10.6462V37.1761C134.059 43.552 150.606 30.8002 167.153 37.1761V10.6462C150.606 4.27033 134.054 17.0221 117.512 10.6462Z" fill="#6153BD"/>
<path d="M167.152 59.4053V76.8735" stroke="#120071" stroke-linecap="round" stroke-linejoin="round"/>
<path d="M167.152 6.32324V46.8932" stroke="#120071" stroke-linecap="round" stroke-linejoin="round"/>
<path d="M118.872 74.5801L116.131 89.8429L106.281 74.9513" stroke="#120071" stroke-linecap="round" stroke-linejoin="round"/>
<path d="M103.787 98.8613C97.0073 102.53 87.3841 116.155 87.3841 116.155L75.659 101.479C70.4598 103.225 66.0459 106.932 63.2539 111.897L78.9799 130.828C80.6933 132.88 83.0403 134.218 85.6001 134.602C88.16 134.986 90.7653 134.391 92.9489 132.924L102.799 126.286L99.1308 178.713C104.401 180.806 110.223 180.713 115.431 178.451L119.943 103.84" stroke="#120071" stroke-linecap="round" stroke-linejoin="round"/>
<path d="M112.813 119.539L102.551 129.889L102.798 126.286L112.813 119.539Z" stroke="#120071" stroke-linecap="round" stroke-linejoin="round"/>
<path d="M122.147 202.676C121.828 201.835 121.375 201.057 120.808 200.378H109.804C108.924 200.367 108.079 200.014 107.43 199.386C106.78 198.758 106.371 197.899 106.28 196.972C106.14 194.562 105.346 192.248 103.993 190.306C103.497 189.674 102.014 188.559 101.314 187.729C100.304 191.463 101.123 191.228 102.221 192.621C103.579 194.549 104.375 196.856 104.508 199.259C104.587 200.187 104.99 201.052 105.637 201.683C106.285 202.315 107.131 202.668 108.011 202.675L122.147 202.676Z" stroke="#120071" stroke-linecap="round" stroke-linejoin="round"/>
<path d="M113.036 179.372C112.417 185.237 112.738 191.171 113.987 196.923C115.284 196.949 116.561 197.268 117.734 197.857C118.906 198.446 119.947 199.293 120.787 200.341H109.783C108.903 200.338 108.055 199.989 107.404 199.361C106.753 198.734 106.345 197.873 106.259 196.945C106.132 194.533 105.337 192.214 103.972 190.279C103.463 189.639 101.973 188.533 101.293 187.703C101.396 187.332 101.499 186.939 101.643 186.48C102.183 184.252 102.367 181.943 102.186 179.65" stroke="#120071" stroke-linecap="round" stroke-linejoin="round"/>
<path d="M73.8268 102.18L66.9215 93.5333C58.8644 92.114 46.3975 91.4808 41.6992 93.5333C46.1654 96.8773 50.9781 99.6685 56.0435 101.853C57.9653 102.403 59.7234 103.461 61.1539 104.927L64.9249 109.425" stroke="#120071" stroke-linecap="round" stroke-linejoin="round"/>
<path d="M41.7001 93.5337C40.8009 92.8637 39.9213 92.1646 39.0625 91.4375C43.6176 89.1229 56.8665 89.5815 65.0472 91.1754L66.9203 93.5337" stroke="#120071" stroke-linecap="round" stroke-linejoin="round"/>
<path d="M115.14 73.0937L113.555 71.1963C114.175 71.4664 114.816 71.679 115.471 71.8295" stroke="#120071" stroke-linecap="round" stroke-linejoin="round"/>
<path d="M55.6698 61.7158C55.6285 61.7813 53.826 60.3678 51.6515 58.6129C49.2156 56.6592 49.4455 55.4043 52.62 57.1936C54.186 58.1811 55.9008 58.8754 57.6892 59.2461" stroke="#120071" stroke-linecap="round" stroke-linejoin="round"/>
<path d="M58.9477 57.4831C58.9477 57.4831 53.525 53.3999 53.1779 53.116C50.6433 51.0635 49.8863 51.976 51.8179 54.2733C53.5944 56.3867 56.001 58.815 56.001 58.815" stroke="#120071" stroke-linecap="round" stroke-linejoin="round"/>
<path d="M96.1841 72.2443C82.8311 67.244 68.488 60.0625 68.386 60.0165C67.283 59.5189 66.1605 58.0295 66.3666 56.9136C66.718 55.014 67.501 52.3018 66.5933 52.1099C65.2137 51.8191 64.3884 55.9092 63.0902 56.8481C62.6368 57.1757 61.3397 56.1701 60.8853 55.7127C60.1261 54.9462 57.5481 52.3707 57.2998 52.1099C55.0222 49.7183 54.263 50.7825 55.9191 53.0706C56.7809 54.2172 57.5014 55.4754 58.0633 56.8148" stroke="#120071" stroke-linecap="round" stroke-linejoin="round"/>
<path d="M59.9145 56.3916C58.1955 58.0563 57.0802 60.3058 56.7617 62.7503" stroke="#120071" stroke-linecap="round" stroke-linejoin="round"/>
<path d="M60.9256 58.2686C60.225 60.998 60.6783 63.247 62.8626 64.6445" stroke="#120071" stroke-linecap="round" stroke-linejoin="round"/>
<path d="M124.887 84.9082C125.047 86.1746 125.088 87.4549 125.01 88.7294" stroke="#120071" stroke-linecap="round" stroke-linejoin="round"/>
<path d="M111.144 70.1255C105.93 67.0226 103.094 62.1613 108.135 57.068C112.545 53.0721 115.863 57.2645 117.511 60.8673" stroke="#120071" stroke-linecap="round" stroke-linejoin="round"/>
<path d="M107.742 50.3652C107.087 49.791 106.288 49.4321 105.444 49.3328C104.599 49.2336 103.745 49.3982 102.988 49.8064C102.23 50.2146 101.602 50.8487 101.18 51.6305C100.758 52.4123 100.561 53.3077 100.614 54.2066C100.666 55.1054 100.965 55.9684 101.475 56.6894C101.984 57.4103 102.681 57.9577 103.48 58.2642C104.279 58.5707 105.146 58.6229 105.972 58.4143C106.799 58.2058 107.55 57.7456 108.133 57.0905C108.893 56.1296 109.276 54.8964 109.204 53.6451C109.131 52.3938 108.608 51.2198 107.742 50.3652Z" stroke="#120071" stroke-linecap="round" stroke-linejoin="round"/>
<path d="M91.0947 86.1534C90.1859 85.8247 89.7748 84.1997 89.9625 82.2334" stroke="#120071" stroke-linecap="round" stroke-linejoin="round"/>
<path d="M94.453 83.9038C83.1541 80.0861 64.4673 70.22 57.4026 65.8679C55.9178 64.9485 54.4103 64.0843 52.9104 63.204C52.2983 62.847 51.6937 62.4757 51.097 62.0904C48.5559 60.4424 48.6861 59.4046 51.8801 60.6929C53.0863 61.1714 54.3363 61.5153 55.6098 61.7192H55.6304C56.0534 61.795 56.4796 61.8387 56.908 61.8502" stroke="#120071" stroke-linecap="round" stroke-linejoin="round"/>
<path d="M165.668 55.911C163.629 55.7271 163.587 53.1126 165.565 53.1379C167.028 53.1574 168.079 53.2252 169.233 53.2907C171.19 53.4056 171.149 56.1638 169.542 56.2166C168.246 56.1833 166.954 56.0813 165.668 55.911Z" stroke="#120071" stroke-linecap="round" stroke-linejoin="round"/>
<path d="M167.194 47.1549C167.915 47.133 168.43 47.1445 169.131 47.133C170.985 47.1043 171.047 49.8912 169.522 50.0371C168.733 50.0934 167.942 50.0934 167.152 50.0371" stroke="#120071" stroke-linecap="round" stroke-linejoin="round"/>
<path d="M165.173 58.8803C163.215 58.6424 163.215 56.1072 165.131 56.1946C166.553 56.2601 167.562 56.3566 168.676 56.4566C170.55 56.6244 170.468 59.2952 168.923 59.2952C167.975 59.2952 166.986 59.101 165.173 58.8803Z" stroke="#120071" stroke-linecap="round" stroke-linejoin="round"/>
<path d="M167.134 50.1084C167.893 50.1302 168.535 50.1946 169.277 50.2176C171.255 50.2796 171.296 53.078 169.648 53.1872C168.659 53.2527 167.608 53.0964 165.712 52.9907C165.5 52.9942 165.29 52.9435 165.1 52.8427C164.91 52.742 164.746 52.5942 164.622 52.412C164.497 52.2297 164.416 52.0183 164.385 51.7958C164.354 51.5732 164.374 51.346 164.444 51.1335C164.538 50.8485 164.716 50.6049 164.953 50.4359" stroke="#120071" stroke-linecap="round" stroke-linejoin="round"/>
<path d="M129.031 68.7502C144.28 60.3436 162.29 45.4462 164.722 45.6266C167.586 45.8392 167.331 45.9714 167.071 51.1728C167.007 52.4369 164.928 52.5702 164.557 48.5296C164.866 51.6325 163.526 53.7482 161.548 54.4251" stroke="#120071" stroke-linecap="round" stroke-linejoin="round"/>
<path d="M168.553 59.2734C165.957 59.5355 162.66 59.4918 158.353 62.836C151.006 68.5496 143.348 73.7992 135.418 78.5574" stroke="#120071" stroke-linecap="round" stroke-linejoin="round"/>
<path d="M101.516 89.8145C102.257 90.0546 102.944 90.2362 103.624 90.4327L102.364 92.2853" stroke="#120071" stroke-linecap="round" stroke-linejoin="round"/>
<path d="M101.517 89.8141C102.585 92.7403 103.348 95.7811 103.794 98.8827C107.442 102.879 116.426 106.066 119.954 103.839C122.056 96.4843 124.694 93.9916 125.023 88.7293C128.98 86.6113 133.286 84.1002 135.78 81.6983C135.78 76.8509 132.998 71.1254 129.042 68.75C125.752 70.877 122.361 72.8229 118.883 74.58C117.646 75.1489 117.11 75.3224 116.497 75.0822C114.415 76.1958 111.469 75.912 108.831 75.0167C108.424 75.15 107.996 75.188 107.574 75.1259C103.701 74.5707 99.8902 73.6051 96.1992 72.2436C99.6404 73.6825 94.8348 87.1399 91.1094 86.1493C94.5369 87.4996 98.0082 88.722 101.517 89.8141Z" stroke="#120071" stroke-linecap="round" stroke-linejoin="round"/>
<path d="M116.482 75.0829C116.1 74.9279 115.768 74.6568 115.53 74.3033C115.292 73.9499 115.157 73.5299 115.143 73.0959C115.197 72.6615 115.307 72.2363 115.468 71.8317C119.8 72.5465 119.413 65.6064 117.508 60.8704C115.654 57.0711 112.665 58.1559 112.068 62.2679C111.974 62.9183 111.418 62.6621 110.976 62.2897C109.451 61.1761 108.4 64.0136 110.667 64.818C110.963 66.5694 111.122 68.345 111.141 70.124C111.13 72.3512 110.791 74.3761 108.812 75.0151" stroke="#120071" stroke-linecap="round" stroke-linejoin="round"/>
<path d="M89.0938 224.676V202.71H130.966V224.676" stroke="#120071" stroke-linecap="round" stroke-linejoin="round"/>
<path d="M47.2227 224.676V213.692H89.095V224.676" stroke="#120071" stroke-linecap="round" stroke-linejoin="round"/>
<path d="M130.965 224.676V208.518H172.858V224.676" stroke="#120071" stroke-linecap="round" stroke-linejoin="round"/>
<path d="M117.512 10.6462V37.1761C134.059 43.552 150.606 30.8002 167.153 37.1761V10.6462C150.606 4.27033 134.054 17.0221 117.512 10.6462Z" stroke="#120071" stroke-linecap="round" stroke-linejoin="round"/>
<path d="M161.134 204.282V208.518H145.164V204.282H161.134Z" stroke="#120071" stroke-linecap="round" stroke-linejoin="round"/>
<path d="M141.887 166.397C141.892 169.185 142.815 171.884 144.497 174.028C146.178 176.172 148.512 177.628 151.098 178.145V204.282H155.24V178.145C157.829 177.637 160.168 176.183 161.851 174.037C163.534 171.891 164.454 169.188 164.451 166.397H141.887Z" stroke="#120071" stroke-linecap="round" stroke-linejoin="round"/>
<path d="M145.001 174.63C142.889 174.718 140.793 174.193 138.941 173.111C137.089 172.03 135.551 170.434 134.492 168.494H142.081" stroke="#120071" stroke-linecap="round" stroke-linejoin="round"/>
<path d="M161.402 174.63C163.515 174.718 165.611 174.193 167.463 173.111C169.315 172.03 170.853 170.434 171.912 168.494H164.349" stroke="#120071" stroke-linecap="round" stroke-linejoin="round"/>
<path d="M152.336 110.849C152.336 111.609 152.124 112.353 151.725 112.985C151.327 113.617 150.76 114.11 150.097 114.4C149.378 114.716 148.583 114.778 147.828 114.578C147.073 114.378 146.399 113.925 145.906 113.288C145.412 112.651 145.125 111.862 145.086 111.039C145.048 110.215 145.261 109.401 145.693 108.715C146.125 108.03 146.754 107.51 147.486 107.232C148.219 106.954 149.016 106.933 149.761 107.172C150.506 107.411 151.158 107.898 151.621 108.56C152.085 109.222 152.335 110.025 152.336 110.849Z" stroke="#120071" stroke-linecap="round" stroke-linejoin="round"/>
<path d="M155.295 172.492C155.295 172.825 155.225 173.153 155.091 173.454C154.956 173.755 154.761 174.02 154.518 174.231C154.275 174.442 153.991 174.594 153.687 174.675C153.382 174.756 153.064 174.764 152.756 174.7C152.345 174.612 151.967 174.397 151.67 174.083C151.373 173.768 151.171 173.367 151.088 172.931C151.006 172.495 151.047 172.042 151.208 171.631C151.369 171.219 151.641 170.868 151.991 170.621C152.399 170.331 152.89 170.201 153.379 170.252C153.868 170.303 154.325 170.533 154.672 170.901C155.07 171.323 155.294 171.896 155.295 172.492Z" stroke="#120071" stroke-linecap="round" stroke-linejoin="round"/>
<path d="M83.8086 33.748V41.5869" stroke="#120071" stroke-linecap="round" stroke-linejoin="round"/>
<path d="M87.5082 37.668H80.0898" stroke="#120071" stroke-linecap="round" stroke-linejoin="round"/>
<path d="M67.188 149.104L64.6328 155.141H69.2899L66.7347 161.179" stroke="#120071" stroke-linecap="round" stroke-linejoin="round"/>
<path d="M71.582 103.318L84.0652 118.928C86.2907 121.81 88.0422 121.701 90.0205 118.949C93.7079 113.818 100.447 104.844 106.072 100.826" stroke="#120071" stroke-linecap="round" stroke-linejoin="round"/>
<path d="M69.8906 104.429L83.6763 121.264C84.1244 121.814 84.6839 122.251 85.3131 122.54C85.9424 122.83 86.6252 122.965 87.3107 122.936C87.9962 122.906 88.6665 122.713 89.2717 122.37C89.8769 122.028 90.4014 121.545 90.8062 120.958C94.8006 115.17 101.707 105.892 107.539 101.743" stroke="#120071" stroke-linecap="round" stroke-linejoin="round"/>
<path d="M108.136 122.793L104.262 180.023" stroke="#120071" stroke-linecap="round" stroke-linejoin="round"/>
<path d="M72.1985 213.606H61.7305L62.225 210.199H71.704L72.1985 213.606Z" stroke="#120071" stroke-linecap="round" stroke-linejoin="round"/>
<path d="M62.7184 196.989C60.0189 196.989 53.8164 193.441 53.8164 184.052H59.8129" stroke="#120071" stroke-linecap="round" stroke-linejoin="round"/>
<path d="M68.6335 189.696L69.5402 192.883L66.9644 190.984L64.3886 192.883L65.2952 189.696L62.7812 187.687L65.934 187.599L66.9644 184.455L67.9947 187.599L71.1475 187.687L68.6335 189.696Z" stroke="#120071" stroke-linecap="round" stroke-linejoin="round"/>
<path d="M71.7046 210.196C68.4281 208.973 67.9954 207.729 67.9748 204.213C68.077 202.836 68.5019 201.508 69.2112 200.348C72.1492 195.65 74.1567 191.936 74.1567 181.461H59.7734C59.7734 191.459 61.577 195.022 64.616 200.152C65.3887 201.361 65.8568 202.759 65.976 204.213C65.9066 207.729 65.5422 208.973 62.2462 210.196H71.7046Z" stroke="#120071" stroke-linecap="round" stroke-linejoin="round"/>
<path d="M71.2891 196.989C74.0091 196.989 80.088 193.427 80.088 184.041H74.1122" stroke="#120071" stroke-linecap="round" stroke-linejoin="round"/>
<path d="M189.036 224.676H28.9648" stroke="#120071" stroke-linecap="round" stroke-linejoin="round"/>
<path d="M116.131 89.8428C115.284 89.8428 114.472 90.1993 113.873 90.8341C113.274 91.4688 112.938 92.3296 112.938 93.2272C112.938 94.1249 113.274 94.9857 113.873 95.6204C114.472 96.2551 115.284 96.6117 116.131 96.6117C116.979 96.6117 117.791 96.2551 118.39 95.6204C118.989 94.9857 119.325 94.1249 119.325 93.2272C119.325 92.3296 118.989 91.4688 118.39 90.8341C117.791 90.1993 116.979 89.8428 116.131 89.8428Z" stroke="#120071"/>
</svg>
