<svg width="200" height="200" viewBox="0 0 200 200" fill="none" xmlns="http://www.w3.org/2000/svg">
<path d="M153.975 111.957L128.415 127.572C126.157 128.952 123.451 129.4 120.869 128.821C118.287 128.243 116.031 126.683 114.577 124.472L101.022 103.846L103.915 112.543L98.451 166.479C98.451 170.184 75.2734 170.133 75.2734 166.46L93.5546 90.6885C98.3617 88.9903 103.527 88.567 108.546 89.4597C120.022 93.9412 122.744 111.94 122.744 111.94C135.977 99.9639 140.74 95.6526 141.006 95.4167C144.595 92.6019 157.5 109.173 153.975 111.957Z" fill="#FECFC4"/>
<path d="M64.7461 47.7752C63.7252 47.6419 62.5571 50.0806 61.7969 53.5791C63.1978 53.0113 64.7202 52.8096 66.2206 52.993C66.2017 50.8378 65.8614 47.9066 64.7461 47.7752Z" fill="#FECFC4"/>
<path d="M61.0596 59.5908C60.9461 63.1818 61.5889 66.926 63.1391 65.715C63.8764 65.129 64.6316 63.4852 65.2187 61.2375C63.7129 61.059 62.2795 60.4915 61.0596 59.5908Z" fill="#FECFC4"/>
<path d="M79.2266 55.79L71.4567 54.8457C72.2885 56.3193 71.8915 59.553 70.7383 60.7063L72.0616 60.8764C72.9482 60.7699 73.8447 60.9759 74.5949 61.4615C74.7461 60.7242 74.8934 60.3461 75.8993 60.4416C76.9387 60.4485 77.9643 60.6807 78.9052 61.1222C79.3405 60.3092 79.5946 59.4117 79.6501 58.4913C79.7055 57.5708 79.5611 56.6493 79.2266 55.79Z" fill="#FECFC4"/>
<path d="M167.098 176.763L150.48 168.54L152.295 160.185L164.319 166.159L167.098 176.763Z" fill="#FECFC4"/>
<path d="M161.576 155.627L154.09 151.923L155.356 146.062H159.062L161.576 155.627Z" fill="#FECFC4"/>
<path d="M49.7347 176.763L33.1172 168.54L34.9321 160.185L46.9557 166.159L49.7347 176.763Z" fill="#FECFC4"/>
<path d="M44.2129 155.627L36.7266 151.923L37.9932 146.062H41.6986L44.2129 155.627Z" fill="#FECFC4"/>
<path d="M123.843 151.299L121.914 160.364H116.375L99.8711 152.187L101.1 140.031L123.843 151.299Z" fill="#6153BD"/>
<path d="M128.229 130.541L126.301 139.597L108.02 130.541H128.229Z" fill="#6153BD"/>
<path d="M83.6874 131.391L80.9462 142.811L68.3555 136.572L69.641 130.541H81.9482L83.6874 131.391Z" fill="#6153BD"/>
<path d="M78.1653 154.267L76.7096 160.326H63.3438L65.8959 148.18L78.1653 154.267Z" fill="#6153BD"/>
<path d="M170.613 184.383H145.242V178.617H170.613V184.383Z" fill="#6153BD"/>
<path d="M53.2689 184.383H27.8984V178.617H53.2689V184.383Z" fill="#6153BD"/>
<path d="M82.4033 73.0127C82.3276 74.0346 82.2331 74.9231 82.1953 75.4325C86.0738 75.0365 84.9554 73.543 82.4033 73.0127Z" fill="#6153BD"/>
<path d="M71.719 73.5997C71.738 74.0902 72.7021 74.6206 74.2901 75.0166C74.3468 74.5251 74.5548 73.5241 74.7249 72.54C72.5887 72.6923 71.7001 73.1072 71.719 73.5997Z" fill="#6153BD"/>
<path d="M76.2948 62.5781C75.6709 64.9791 75.0471 65.2427 74.6879 64.8835C74.5585 64.9223 74.4252 64.9482 74.2899 64.9602C75.9346 66.0188 75.0272 66.9452 73.8919 66.7362C75.4421 67.6437 74.7237 68.5511 73.665 68.382C73.0269 68.2768 72.4163 68.0451 71.869 67.7004C71.7598 68.058 71.6207 68.4058 71.4531 68.7402C72.5387 69.367 73.7128 69.8263 74.9356 70.1023C75.7515 68.753 76.2072 67.2167 76.259 65.6407C76.0161 64.6328 76.0284 63.5801 76.2948 62.5781Z" fill="#6153BD"/>
<path d="M97.8125 63.5604C97.8553 63.8042 97.8802 64.051 97.8881 64.2987L98.7388 63.1445L97.8125 63.5604Z" fill="#6153BD"/>
<path d="M110.266 76.3788C110.058 77.2663 109.906 77.8534 109.793 78.3628L113.385 75.6216L110.266 76.3788Z" fill="#6153BD"/>
<path d="M94.7092 168.615C91.6277 169.159 88.4972 169.375 85.3702 169.258C84.9722 171.64 83.423 177.955 83.0449 179.805C81.5794 179.831 80.1517 180.274 78.9294 181.083C77.7071 181.891 76.741 183.032 76.1445 184.371H88.1114C88.8549 184.359 89.5681 184.074 90.1153 183.57C90.6625 183.067 91.0057 182.38 91.0795 181.64C91.1884 179.718 91.8589 177.871 93.0078 176.326C93.8774 175.287 95.0306 174.455 94.4824 171.903C94.215 170.81 94.2943 169.661 94.7092 168.615Z" fill="#6153BD"/>
<path d="M169.988 91.634C164.468 95.0369 157.019 97.8159 153.711 98.384C152.385 98.6189 151.149 99.2137 150.138 100.103L149.457 100.784C146.338 97.0408 142.633 94.1672 140.969 95.4717L140.797 95.6219L147.395 89.5345C147.92 89.0595 148.596 88.7851 149.304 88.7594C156.341 88.5166 166.567 89.442 169.988 91.634Z" fill="#6153BD"/>
<path d="M112.875 48.8572C112.868 48.5106 112.736 48.1783 112.503 47.9212C112.27 47.6642 111.953 47.4994 111.609 47.4572C111.833 47.1845 111.95 46.8388 111.936 46.4858C111.922 46.1328 111.779 45.7973 111.534 45.5429C111.289 45.2886 110.959 45.1332 110.607 45.1064C110.254 45.0796 109.905 45.1832 109.624 45.3975C109.585 45.1323 109.477 44.8822 109.309 44.6733C109.141 44.4643 108.92 44.3042 108.67 44.2095C108.419 44.1148 108.147 44.0891 107.883 44.1349C107.619 44.1808 107.372 44.2965 107.168 44.4702C106.894 44.7018 106.712 45.0242 106.656 45.3786C106.377 45.1597 106.028 45.0512 105.674 45.0739C105.321 45.0966 104.988 45.2489 104.74 45.5017C104.492 45.7544 104.346 46.0898 104.329 46.4437C104.313 46.7975 104.428 47.1449 104.652 47.4194C104.397 47.452 104.156 47.5511 103.951 47.7067C103.747 47.8623 103.588 48.069 103.489 48.3059C103.356 48.0872 103.177 47.9006 102.964 47.7598C102.75 47.6191 102.508 47.5276 102.255 47.492C102.002 47.4565 101.744 47.4778 101.5 47.5544C101.256 47.631 101.032 47.7609 100.845 47.9348C100.594 48.1678 100.419 48.4702 100.341 48.8034C100.166 48.5905 99.9401 48.425 99.6842 48.3223C99.4282 48.2195 99.1505 48.1828 98.8766 48.2155C98.6027 48.2482 98.3414 48.3493 98.1168 48.5094C97.8922 48.6695 97.7115 48.8835 97.5913 49.1318C97.431 49.4646 97.3875 49.8418 97.4679 50.2024C97.1239 50.0813 96.7494 50.0783 96.4035 50.1941C96.0577 50.3098 95.7603 50.5376 95.5585 50.8413C95.3567 51.1451 95.262 51.5075 95.2894 51.8712C95.3168 52.2348 95.4647 52.579 95.7097 52.8491C95.334 52.8891 94.9836 53.0578 94.7181 53.3268C94.4526 53.5957 94.2883 53.9482 94.2532 54.3244C94.218 54.7007 94.3142 55.0775 94.5252 55.391C94.7363 55.7044 95.0494 55.9352 95.4112 56.044C95.222 56.153 95.0566 56.2989 94.9251 56.4732C94.7935 56.6475 94.6984 56.8465 94.6454 57.0583C94.5925 57.2702 94.5828 57.4905 94.6169 57.7062C94.6511 57.9219 94.7283 58.1285 94.8441 58.3136L94.9764 57.7644C96.5077 51.5078 99.5136 55.1933 99.8917 57.5564C99.9862 57.9913 100.251 58.0291 100.799 57.3863C101.952 56.044 103.463 58.1296 101.197 59.9385C100.975 60.5555 100.898 61.2151 100.97 61.8668L101.027 62.7364C101.235 62.6613 101.425 62.5434 101.584 62.3903C101.744 62.2373 101.87 62.0525 101.953 61.8479C102.062 62.1094 102.236 62.3384 102.459 62.5126C102.682 62.6867 102.947 62.8002 103.227 62.8419C103.507 62.8835 103.793 62.852 104.057 62.7504C104.321 62.6487 104.555 62.4804 104.734 62.2618C104.976 61.9696 105.109 61.603 105.11 61.224C105.41 61.428 105.768 61.5272 106.13 61.5063C106.492 61.4854 106.837 61.3454 107.111 61.1083C107.384 60.8711 107.572 60.5501 107.645 60.1951C107.717 59.8401 107.67 59.471 107.511 59.1455C107.744 59.1777 107.98 59.1588 108.204 59.0903C108.429 59.0218 108.635 58.9051 108.81 58.7486C108.984 58.592 109.123 58.3992 109.215 58.1837C109.308 57.9682 109.352 57.7351 109.345 57.5007C109.352 57.2179 109.277 56.9391 109.13 56.6978C108.982 56.4564 108.768 56.2626 108.513 56.1396C108.808 56.0544 109.073 55.8894 109.279 55.6629C109.486 55.4363 109.625 55.157 109.683 54.856C109.739 54.555 109.711 54.2442 109.602 53.9581C109.493 53.672 109.307 53.4217 109.064 53.2352C109.325 53.0033 109.491 52.6819 109.529 52.3347C109.805 52.5504 110.15 52.6585 110.499 52.6389C110.849 52.6193 111.179 52.4733 111.429 52.2281C111.679 51.9829 111.831 51.6552 111.857 51.3062C111.883 50.9571 111.782 50.6104 111.571 50.3307C111.933 50.2925 112.268 50.12 112.509 49.8473C112.751 49.5746 112.881 49.2213 112.875 48.8572Z" fill="#6153BD"/>
<path d="M104.256 108.82L103.896 112.544L101.004 103.848L104.256 108.82Z" fill="#6153BD"/>
<path d="M103.048 84.3947C103.054 84.5865 102.986 84.7735 102.859 84.9173C102.732 85.0612 102.555 85.1512 102.364 85.1688C102.173 85.186 101.982 85.129 101.831 85.0095C101.681 84.8901 101.582 84.7173 101.555 84.527C101.549 84.3352 101.616 84.1483 101.743 84.0044C101.87 83.8605 102.048 83.7706 102.239 83.7529C102.43 83.736 102.621 83.7931 102.771 83.9125C102.922 84.0319 103.021 84.2045 103.048 84.3947Z" fill="#6153BD"/>
<path d="M95.2939 79.2336C95.2974 79.3321 95.2814 79.4304 95.2469 79.5227C95.2124 79.6151 95.16 79.6997 95.0928 79.7718C95.0256 79.8439 94.9448 79.9021 94.8551 79.943C94.7654 79.9839 94.6686 80.0067 94.57 80.0102C94.4715 80.0137 94.3733 79.9977 94.2809 79.9632C94.1886 79.9287 94.1039 79.8763 94.0318 79.8091C93.9597 79.7419 93.9015 79.6611 93.8606 79.5714C93.8197 79.4817 93.7969 79.3849 93.7934 79.2863C93.7864 79.0874 93.8588 78.8938 93.9945 78.7481C94.1303 78.6025 94.3183 78.5167 94.5173 78.5097C94.7163 78.5027 94.9099 78.5751 95.0555 78.7108C95.2012 78.8466 95.2869 79.0346 95.2939 79.2336Z" fill="#6153BD"/>
<path d="M102.309 73.2205C102.317 73.4126 102.25 73.6002 102.123 73.7444C101.996 73.8887 101.818 73.9786 101.626 73.9957C101.435 74.0128 101.244 73.9558 101.094 73.8363C100.943 73.7169 100.844 73.5442 100.817 73.3539C100.81 73.1617 100.877 72.9742 101.004 72.83C101.131 72.6857 101.308 72.5958 101.5 72.5787C101.691 72.5616 101.882 72.6186 102.033 72.738C102.183 72.8575 102.282 73.0302 102.309 73.2205Z" fill="#6153BD"/>
<path d="M112.875 48.8572C112.868 48.5106 112.736 48.1783 112.503 47.9212C112.27 47.6642 111.953 47.4994 111.609 47.4572C111.833 47.1845 111.95 46.8388 111.936 46.4858C111.922 46.1328 111.779 45.7973 111.534 45.5429C111.289 45.2886 110.959 45.1332 110.607 45.1064C110.254 45.0796 109.905 45.1832 109.624 45.3975C109.585 45.1323 109.477 44.8822 109.309 44.6733C109.141 44.4643 108.92 44.3042 108.67 44.2095C108.419 44.1148 108.147 44.0891 107.883 44.1349C107.619 44.1808 107.372 44.2965 107.168 44.4702C106.894 44.7018 106.712 45.0242 106.656 45.3786C106.377 45.1597 106.028 45.0512 105.674 45.0739C105.321 45.0966 104.988 45.2489 104.74 45.5017C104.492 45.7544 104.346 46.0898 104.329 46.4437C104.313 46.7975 104.428 47.1449 104.652 47.4194C104.397 47.452 104.156 47.5511 103.951 47.7067C103.747 47.8623 103.588 48.069 103.489 48.3059C103.356 48.0872 103.177 47.9006 102.964 47.7598C102.75 47.6191 102.508 47.5276 102.255 47.492C102.002 47.4565 101.744 47.4778 101.5 47.5544C101.256 47.631 101.032 47.7609 100.845 47.9348C100.594 48.1678 100.419 48.4702 100.341 48.8034C100.166 48.5905 99.9401 48.425 99.6842 48.3223C99.4282 48.2195 99.1505 48.1828 98.8766 48.2155C98.6027 48.2482 98.3414 48.3493 98.1168 48.5094C97.8922 48.6695 97.7115 48.8835 97.5913 49.1318C97.431 49.4646 97.3875 49.8418 97.4679 50.2024C97.1239 50.0813 96.7494 50.0783 96.4035 50.1941C96.0577 50.3098 95.7603 50.5376 95.5585 50.8413C95.3567 51.1451 95.262 51.5075 95.2894 51.8712C95.3168 52.2348 95.4647 52.579 95.7097 52.8491C95.334 52.8891 94.9836 53.0578 94.7181 53.3268C94.4526 53.5957 94.2883 53.9482 94.2532 54.3244C94.218 54.7007 94.3142 55.0775 94.5252 55.391C94.7363 55.7044 95.0494 55.9352 95.4112 56.044C95.222 56.153 95.0566 56.2989 94.9251 56.4732C94.7935 56.6475 94.6984 56.8465 94.6454 57.0583C94.5925 57.2702 94.5828 57.4905 94.6169 57.7062C94.6511 57.9219 94.7283 58.1285 94.8441 58.3136L94.9764 57.7644C96.5077 51.5078 99.5136 55.1933 99.8917 57.5564C99.9862 57.9913 100.251 58.0291 100.799 57.3863C101.952 56.044 103.463 58.1296 101.197 59.9385C100.975 60.5555 100.898 61.2151 100.97 61.8668L101.027 62.7364C101.235 62.6613 101.425 62.5434 101.584 62.3903C101.744 62.2373 101.87 62.0525 101.953 61.8479C102.062 62.1094 102.236 62.3384 102.459 62.5126C102.682 62.6867 102.947 62.8002 103.227 62.8419C103.507 62.8835 103.793 62.852 104.057 62.7504C104.321 62.6487 104.555 62.4804 104.734 62.2618C104.976 61.9696 105.109 61.603 105.11 61.224C105.41 61.428 105.768 61.5272 106.13 61.5063C106.492 61.4854 106.837 61.3454 107.111 61.1083C107.384 60.8711 107.572 60.5501 107.645 60.1951C107.717 59.8401 107.67 59.471 107.511 59.1455C107.744 59.1777 107.98 59.1588 108.204 59.0903C108.429 59.0218 108.635 58.9051 108.81 58.7486C108.984 58.592 109.123 58.3992 109.215 58.1837C109.308 57.9682 109.352 57.7351 109.345 57.5007C109.352 57.2179 109.277 56.9391 109.13 56.6978C108.982 56.4564 108.768 56.2626 108.513 56.1396C108.808 56.0544 109.073 55.8894 109.279 55.6629C109.486 55.4363 109.625 55.157 109.683 54.856C109.739 54.555 109.711 54.2442 109.602 53.9581C109.493 53.672 109.307 53.4217 109.064 53.2352C109.325 53.0033 109.491 52.6819 109.529 52.3347C109.805 52.5504 110.15 52.6585 110.499 52.6389C110.849 52.6193 111.179 52.4733 111.429 52.2281C111.679 51.9829 111.831 51.6552 111.857 51.3062C111.883 50.9571 111.782 50.6104 111.571 50.3307C111.933 50.2925 112.268 50.12 112.509 49.8473C112.751 49.5746 112.881 49.2213 112.875 48.8572Z" stroke="#120071" stroke-linejoin="round"/>
<path d="M100.758 43.918L100.815 48.7586" stroke="#120071" stroke-linecap="round" stroke-linejoin="round"/>
<path d="M118.247 48.3994L115.902 52.6142" stroke="#120071" stroke-linecap="round" stroke-linejoin="round"/>
<path d="M136.242 79.0723H131.402" stroke="#120071" stroke-linecap="round" stroke-linejoin="round"/>
<path d="M131.669 96.4172L127.453 94.0361" stroke="#120071" stroke-linecap="round" stroke-linejoin="round"/>
<path d="M83.707 109.688L86.0702 105.474" stroke="#120071" stroke-linecap="round" stroke-linejoin="round"/>
<path d="M70.8125 97.1165L73.1945 95.6807" stroke="#120071" stroke-linecap="round" stroke-linejoin="round"/>
<path d="M65.8398 79.0723H70.6606" stroke="#120071" stroke-linecap="round" stroke-linejoin="round"/>
<path d="M82.9688 48.853L85.4642 52.9922" stroke="#120071" stroke-linecap="round" stroke-linejoin="round"/>
<path d="M170.613 184.383H145.242V178.617H170.613V184.383Z" stroke="#120071" stroke-linecap="round" stroke-linejoin="round"/>
<path d="M167.094 176.763L150.477 168.54L152.291 160.185L164.315 166.159L167.094 176.763Z" stroke="#120071" stroke-linecap="round" stroke-linejoin="round"/>
<path d="M161.576 155.627L154.09 151.923L155.356 146.062H159.062L161.576 155.627Z" stroke="#120071" stroke-linecap="round" stroke-linejoin="round"/>
<path d="M164.317 166.158L152.293 160.184L154.089 151.923L161.575 155.627L164.317 166.158Z" stroke="#120071" stroke-linecap="round" stroke-linejoin="round"/>
<path d="M167.569 178.559H148.305L150.479 168.54L167.096 176.763L167.569 178.559Z" stroke="#120071" stroke-linecap="round" stroke-linejoin="round"/>
<path d="M53.2689 184.383H27.8984V178.617H53.2689V184.383Z" stroke="#120071" stroke-linecap="round" stroke-linejoin="round"/>
<path d="M49.7347 176.763L33.1172 168.54L34.9321 160.185L46.9557 166.159L49.7347 176.763Z" stroke="#120071" stroke-linecap="round" stroke-linejoin="round"/>
<path d="M44.2129 155.627L36.7266 151.923L37.9932 146.062H41.6986L44.2129 155.627Z" stroke="#120071" stroke-linecap="round" stroke-linejoin="round"/>
<path d="M46.9533 166.158L34.9297 160.184L36.7257 151.923L44.212 155.627L46.9533 166.158Z" stroke="#120071" stroke-linecap="round" stroke-linejoin="round"/>
<path d="M50.2056 178.559H30.9414L33.1155 168.54L49.733 176.763L50.2056 178.559Z" stroke="#120071" stroke-linecap="round" stroke-linejoin="round"/>
<path d="M69.6419 130.541L58.2422 184.383" stroke="#120071" stroke-linecap="round" stroke-linejoin="round"/>
<path d="M139.912 184.383L128.228 130.541L116.848 184.383" stroke="#120071" stroke-linecap="round" stroke-linejoin="round"/>
<path d="M76.7096 160.326H63.3438L69.6391 130.541H83.8935" stroke="#120071" stroke-linecap="round" stroke-linejoin="round"/>
<path d="M102.061 130.541H128.225L121.911 160.364H99.0547" stroke="#120071" stroke-linecap="round" stroke-linejoin="round"/>
<path d="M109.645 79.2046H125.903" stroke="#120071" stroke-linecap="round" stroke-linejoin="round"/>
<path d="M122.727 77.6445L125.903 79.2047L122.953 81.1808" stroke="#120071" stroke-linecap="round" stroke-linejoin="round"/>
<path d="M68.9023 52.0667C72.5796 47.7719 77.0947 44.2727 82.1711 41.7832C87.2475 39.2937 92.7786 37.8663 98.4258 37.5883C104.073 37.3104 109.717 38.1878 115.014 40.1667C120.31 42.1457 125.147 45.1847 129.228 49.0976" stroke="#120071" stroke-linecap="round" stroke-linejoin="round"/>
<path d="M86.8236 118.407C81.5979 116.582 76.7884 113.734 72.676 110.029C68.5635 106.324 65.2306 101.836 62.872 96.8288C60.5136 91.8209 59.177 86.3932 58.9404 80.8629C58.7038 75.3326 59.5719 69.8106 61.4939 64.6196" stroke="#120071" stroke-linecap="round" stroke-linejoin="round"/>
<path d="M111.154 119.312C108.507 120.017 105.797 120.454 103.062 120.616" stroke="#120071" stroke-linecap="round" stroke-linejoin="round"/>
<path d="M136.395 58.1543C140.007 64.3456 141.959 71.3648 142.061 78.532C142.164 85.6992 140.414 92.7715 136.981 99.0637" stroke="#120071" stroke-linecap="round" stroke-linejoin="round"/>
<path d="M74.2891 75.0166C74.4025 73.9768 75.1965 70.6883 75.0642 69.9321" stroke="#120071" stroke-linecap="round" stroke-linejoin="round"/>
<path d="M76.2551 65.6216C76.204 67.1977 75.7483 68.7341 74.9317 70.0832C73.7091 69.807 72.535 69.3482 71.4492 68.722C71.6202 68.3893 71.7595 68.0411 71.8651 67.6822" stroke="#120071" stroke-linecap="round" stroke-linejoin="round"/>
<path d="M61.0577 59.5909C60.9443 63.1639 61.4915 65.8166 62.5134 65.9419C63.7979 66.1011 65.3491 62.1609 65.973 57.1511C66.5969 52.1413 66.0486 47.9444 64.7442 47.7752C63.7233 47.6419 62.5552 50.0816 61.795 53.5791" stroke="#120071" stroke-linecap="round" stroke-linejoin="round"/>
<path d="M70.7539 60.7063C71.9071 59.553 72.3041 56.3203 71.4723 54.8457" stroke="#120071" stroke-linecap="round" stroke-linejoin="round"/>
<path d="M78.9062 61.1413C79.3461 60.3299 79.6028 59.4321 79.6583 58.5108C79.7138 57.5896 79.5668 56.6674 79.2276 55.8091" stroke="#120071" stroke-linecap="round" stroke-linejoin="round"/>
<path d="M66.2203 52.9933C62.6661 52.6341 59.6035 54.1077 59.3388 56.3395C59.0742 58.5713 61.6761 60.7175 65.2044 61.2518" stroke="#120071" stroke-linecap="round" stroke-linejoin="round"/>
<path d="M72.0782 60.8767L70.7548 60.7065L63.1172 65.7343" stroke="#120071" stroke-linecap="round" stroke-linejoin="round"/>
<path d="M65.2773 48.1157L71.4782 54.8459L79.8531 55.8857C83.5207 56.3394 83.2182 61.8786 79.5128 61.7651" stroke="#120071" stroke-linecap="round" stroke-linejoin="round"/>
<path d="M82.4013 73.0355C85.6151 73.6782 86.5982 75.8682 78.0342 75.513C72.0642 75.2643 69.0922 72.941 74.7258 72.5439" stroke="#120071" stroke-linecap="round" stroke-linejoin="round"/>
<path d="M82.1915 75.4325C82.2482 74.5061 82.5089 72.2754 82.5507 70.4227C82.6204 67.3033 82.4055 66.5252 81.6055 65.0357C80.8741 63.6629 79.9935 62.3748 78.9797 61.195C78.4334 60.6975 77.0315 60.5831 75.9171 60.4766C75.0275 60.3911 74.8435 60.6856 74.7071 61.1731C74.4922 62.1662 74.4037 63.183 74.4425 64.1979C74.4723 65.0487 75.4255 66.0695 76.3141 62.5721C75.8603 64.6706 76.0872 66.4854 77.7319 67.6008" stroke="#120071" stroke-linecap="round" stroke-linejoin="round"/>
<path d="M71.8905 64.1094C71.1532 64.374 71.1532 65.3939 71.9094 65.9243C72.5138 66.3146 73.1878 66.5848 73.8944 66.7203C75.0287 66.9441 75.9361 66.0019 74.2924 64.9432" stroke="#120071" stroke-linecap="round" stroke-linejoin="round"/>
<path d="M71.9082 65.9243C71.7423 66.004 71.6018 66.1281 71.5023 66.2828C71.4027 66.4375 71.3479 66.6168 71.344 66.8008C71.3401 66.9847 71.3872 67.1661 71.4801 67.3249C71.573 67.4837 71.7081 67.6137 71.8703 67.7004C72.4176 68.0457 73.0275 68.2775 73.6663 68.382C74.725 68.5531 75.4573 67.6437 73.8932 66.7362" stroke="#120071" stroke-linecap="round" stroke-linejoin="round"/>
<path d="M74.6134 61.4805C73.9652 61.0907 73.2322 60.8636 72.4771 60.8188C71.4373 60.789 71.3398 62.1502 72.3637 62.5591C73.0225 62.8534 73.7249 63.0383 74.4432 63.1063" stroke="#120071" stroke-linecap="round" stroke-linejoin="round"/>
<path d="M72.0208 62.3501C71.2835 62.6725 71.2825 63.7331 72.0964 64.2794C72.8607 64.7989 73.7888 65.0204 74.7053 64.9023" stroke="#120071" stroke-linecap="round" stroke-linejoin="round"/>
<path d="M71.7199 73.5996C71.6443 82.7685 71.7298 88.3256 71.8522 91.7673C71.8796 93.0565 72.2817 94.3098 73.0095 95.3742C73.7374 96.4386 74.7594 97.2681 75.9508 97.7613C77.1422 98.2545 78.4515 98.3901 79.7187 98.1515C80.9859 97.913 82.1562 97.3106 83.0868 96.4179C86.3086 93.3384 89.2798 90.0069 91.9721 86.455" stroke="#120071" stroke-linecap="round" stroke-linejoin="round"/>
<path d="M84.7126 74.4834C84.1375 77.7918 82.7922 86.5846 82.3047 88.7995" stroke="#120071" stroke-linecap="round" stroke-linejoin="round"/>
<path d="M83.8551 79.6481C80.5279 81.0282 73.4952 80.7824 71.6992 78.4541" stroke="#120071" stroke-linecap="round" stroke-linejoin="round"/>
<path d="M97.8125 63.56C98.1299 63.4406 98.4394 63.3022 98.7388 63.144L97.8951 64.2793" stroke="#120071" stroke-linecap="round" stroke-linejoin="round"/>
<path d="M94.8412 58.3096C93.5536 64.3293 96.5635 63.9373 97.8093 63.5642C97.9689 64.3388 97.9238 65.1416 97.6785 65.8935C97.4332 66.6453 96.9961 67.3202 96.4103 67.8516C97.9227 72.5401 100.153 72.0117 103.065 66.3402C101.742 65.7731 101.212 64.184 101.023 62.7284" stroke="#120071" stroke-linecap="round" stroke-linejoin="round"/>
<path d="M84.1211 77.9468C87.6185 72.729 91.7259 69.9649 94.4999 68.948C95.1991 68.7055 95.8467 68.3343 96.4093 67.8535" stroke="#120071" stroke-linecap="round" stroke-linejoin="round"/>
<path d="M91.4932 74.4126C90.2992 76.927 89.139 78.0016 91.9658 86.4521C92.3827 87.6998 92.8921 89.1187 93.516 90.7306" stroke="#120071" stroke-linecap="round" stroke-linejoin="round"/>
<path d="M109.777 78.345C109.891 77.8336 110.042 77.2505 110.25 76.355L113.388 75.6167" stroke="#120071" stroke-linecap="round" stroke-linejoin="round"/>
<path d="M108.491 89.4786C108.515 85.7317 108.946 81.9984 109.777 78.3446C114.566 74.7337 108.682 78.659 143.144 53.0109C145.359 51.3632 138.588 42.0659 136.357 43.6907C136.357 43.6907 108.869 64.6574 106.806 65.734C105.142 66.6046 103.932 66.6981 103.062 66.32" stroke="#120071" stroke-linecap="round" stroke-linejoin="round"/>
<path d="M149.685 46.5088C149.975 46.2999 150.188 46.0014 150.29 45.6581C150.399 44.8621 148.66 43.9427 146.622 44.5636C145.528 44.8959 145.167 45.7357 146.921 45.9616" stroke="#120071" stroke-linecap="round" stroke-linejoin="round"/>
<path d="M149.856 44.8971C150.643 43.8583 149.055 42.5559 146.79 43.1409C145.719 43.4225 145.583 44.0802 147.027 44.4593" stroke="#120071" stroke-linecap="round" stroke-linejoin="round"/>
<path d="M143.465 51.1018C145.049 50.0157 146.756 49.1209 148.55 48.4362C151.336 47.1875 149.361 45.292 146.603 46.0542C145.789 46.28 146.093 47.3775 148.248 47.3208" stroke="#120071" stroke-linecap="round" stroke-linejoin="round"/>
<path d="M138.246 43.9566C140.42 42.482 146.483 38.2314 146.697 38.5836C146.972 39.0413 145.014 41.892 145.014 41.892C145.014 41.892 144.976 44.9765 143.024 45.0113" stroke="#120071" stroke-linecap="round" stroke-linejoin="round"/>
<path d="M145.051 41.8383C149.758 40.118 154.205 40.4583 153.501 40.7985C152.185 41.4393 148.516 42.5239 146.789 43.1408" stroke="#120071" stroke-linecap="round" stroke-linejoin="round"/>
<path d="M147.433 48.1156C147.475 47.8182 147.417 47.5153 147.27 47.2539" stroke="#120071" stroke-linecap="round" stroke-linejoin="round"/>
<path d="M94.6888 168.596C91.6072 169.14 88.4767 169.355 85.3497 169.239C84.9517 171.621 83.4025 177.936 83.0244 179.786H83.0055C81.5409 179.82 80.1161 180.269 78.8972 181.082C77.6783 181.894 76.7155 183.037 76.1211 184.376H88.1098C88.8534 184.364 89.5665 184.079 90.1138 183.575C90.661 183.072 91.0041 182.385 91.0779 181.645C91.1869 179.723 91.8573 177.876 93.0062 176.331C93.8759 175.292 95.0102 174.479 94.4619 171.927C94.2048 170.819 94.2837 169.659 94.6888 168.596Z" stroke="#120071" stroke-linecap="round" stroke-linejoin="round"/>
<path d="M140.797 95.5863L147.395 89.5168C147.919 89.0404 148.596 88.7658 149.304 88.7417C156.338 88.5158 166.564 89.459 169.986 91.6331C164.466 95.036 157.017 97.8151 153.709 98.3832C152.066 98.6829 150.57 99.5205 149.455 100.764" stroke="#120071" stroke-linecap="round" stroke-linejoin="round"/>
<path d="M5.47656 184.383H194.527" stroke="#120071" stroke-linecap="round" stroke-linejoin="round"/>
<path d="M65.8984 148.18L78.1489 154.248" stroke="#120071" stroke-linecap="round" stroke-linejoin="round"/>
<path d="M99.8711 152.187L116.375 160.363" stroke="#120071" stroke-linecap="round" stroke-linejoin="round"/>
<path d="M68.3555 136.572L80.9462 142.811" stroke="#120071" stroke-linecap="round" stroke-linejoin="round"/>
<path d="M101.098 140.031L123.84 151.299" stroke="#120071" stroke-linecap="round" stroke-linejoin="round"/>
<path d="M81.9492 130.541L83.7074 131.411" stroke="#120071" stroke-linecap="round" stroke-linejoin="round"/>
<path d="M108.016 130.541L126.297 139.597" stroke="#120071" stroke-linecap="round" stroke-linejoin="round"/>
<path d="M98.4308 166.48L104.271 108.822L114.557 124.477C116.01 126.688 118.267 128.248 120.849 128.826C123.431 129.405 126.137 128.957 128.395 127.577L153.974 111.956C155.864 110.463 153.054 105.05 149.455 100.764C147.582 98.5342 143.097 93.799 140.799 95.585L122.707 111.956C122.707 111.956 119.983 93.9602 108.507 89.4787C103.488 88.586 98.3226 89.0094 93.5155 90.7076L75.2344 166.48C75.2344 170.184 98.4308 170.184 98.4308 166.48Z" stroke="#120071" stroke-linecap="round" stroke-linejoin="round"/>
<path d="M103.896 112.544L101.004 103.848L104.273 108.822" stroke="#120071" stroke-linecap="round" stroke-linejoin="round"/>
<path d="M98.5451 70.9717C97.3352 76.2651 97.6377 82.4649 99.0745 89.3284" stroke="#120071" stroke-linecap="round" stroke-linejoin="round"/>
<path d="M106.203 93.8848C108.071 95.7117 110.533 96.8064 113.141 96.9693" stroke="#120071" stroke-linecap="round" stroke-linejoin="round"/>
<path d="M76.4453 161.432C76.4453 163.756 98.9423 163.756 98.9423 161.432" stroke="#120071" stroke-linecap="round" stroke-linejoin="round"/>
<path d="M150.103 114.322C152.575 111.934 139.613 96.81 136.98 99.0636" stroke="#120071" stroke-linecap="round" stroke-linejoin="round"/>
<path d="M60.1671 118.395H51.4141" stroke="#120071" stroke-linecap="round" stroke-linejoin="round"/>
<path d="M55.793 122.772V114.019" stroke="#120071" stroke-linecap="round" stroke-linejoin="round"/>
<path d="M170.423 77.4741L167.985 77.1348L166.907 74.9219L165.829 77.1348L163.391 77.4741L165.149 79.1954L164.733 81.6142L166.907 80.462L169.081 81.6142L168.665 79.1954L170.423 77.4741Z" stroke="#120071" stroke-linecap="round" stroke-linejoin="round"/>
<path d="M34.3828 47.2261V48.9275" stroke="#120071" stroke-linecap="round" stroke-linejoin="round"/>
<path d="M32.7952 50.5156H31.0938" stroke="#120071" stroke-linecap="round" stroke-linejoin="round"/>
<path d="M37.6702 50.5156H35.9688" stroke="#120071" stroke-linecap="round" stroke-linejoin="round"/>
<path d="M34.3828 53.787V52.1045" stroke="#120071" stroke-linecap="round" stroke-linejoin="round"/>
<path d="M35.9692 50.5158C35.5469 50.5158 35.142 50.3481 34.8434 50.0495C34.5449 49.751 34.3772 49.3461 34.3772 48.9238C34.3772 49.3461 34.2094 49.751 33.9109 50.0495C33.6123 50.3481 33.2074 50.5158 32.7852 50.5158C33.2069 50.5174 33.6109 50.6856 33.9091 50.9839C34.2074 51.2821 34.3756 51.6861 34.3772 52.1078C34.3787 51.6861 34.547 51.2821 34.8452 50.9839C35.1434 50.6856 35.5474 50.5174 35.9692 50.5158Z" stroke="#120071" stroke-linecap="round" stroke-linejoin="round"/>
<path d="M115.277 17.3384L118.019 21.194L121.214 15.5981" stroke="#120071" stroke-linecap="round" stroke-linejoin="round"/>
</svg>
