<svg width="200" height="200" viewBox="0 0 200 200" fill="none" xmlns="http://www.w3.org/2000/svg">
<g clip-path="url(#clip0_344_982)">
<path d="M162.505 134.788L126.544 140.42C124.809 132.258 123.887 128.19 123.28 125.268C120.743 113.129 110.704 108.964 107.924 108.042C107.574 110.242 95.3715 117.866 89.8333 114.381C69.5596 142.19 57.0558 160.364 30.2628 187.007C26.1426 191.02 38.1432 204.804 42.2834 200.854C68.068 176.58 81.7761 163.295 101.223 138.427L97.4643 125.314L113.585 154.413C114.73 156.477 116.452 158.122 118.515 159.126C120.579 160.129 122.886 160.442 125.125 160.024L165.526 152.375C169.147 151.755 166.213 134.085 162.505 134.788Z" fill="#FECFC4"/>
<path d="M72.3415 42.9007L66.3012 13.4214L57.0007 15.5227C56.5184 15.6407 56.0778 15.9003 55.7304 16.271C55.3829 16.6418 55.1428 17.1087 55.0381 17.6172C54.9333 18.1257 54.9682 18.655 55.1386 19.1436C55.3089 19.6321 55.6079 20.0598 56.0007 20.3768C56.8961 21.1016 57.5757 22.0803 57.9594 23.1973C58.3431 24.3144 58.415 25.5234 58.1666 26.6821C57.9181 27.8405 57.3597 28.9004 56.5571 29.7367C55.7544 30.5729 54.7411 31.1508 53.6363 31.4023C52.5315 31.6537 51.3814 31.5682 50.3213 31.1558C49.2612 30.7434 48.3354 30.0213 47.653 29.0746C46.9704 28.1279 46.5596 26.996 46.469 25.8122C46.3784 24.6285 46.6115 23.4421 47.1412 22.3929C47.3726 21.9344 47.4754 21.4164 47.4375 20.8989C47.3997 20.3814 47.2227 19.8859 46.9272 19.47C46.6318 19.054 46.23 18.7349 45.7686 18.5494C45.3074 18.364 44.8053 18.32 44.3211 18.4225L35.6406 20.3768L41.6841 49.8561C41.8274 50.5527 42.2281 51.161 42.7983 51.5472C43.3684 51.9333 44.0612 52.0658 44.7243 51.9154L58.984 48.7004C59.1177 47.1808 59.3777 44.073 60.064 43.1108C60.8441 42.0193 61.4041 45.6546 61.7841 48.049L70.3846 46.0947C71.0469 45.9432 71.625 45.5217 71.9918 44.923C72.3587 44.3242 72.4845 43.5969 72.3415 42.9007Z" fill="#FECFC4"/>
<path d="M97.5997 72.4443L95.6849 74.7348C95.6128 74.2085 95.4798 73.6933 95.2891 73.2008C96.0799 73.0246 96.8536 72.7714 97.5997 72.4443Z" fill="#6153BD"/>
<path d="M111.523 92.4277C110.921 94.1358 110.426 95.8836 110.043 97.66C112.523 97.764 112.683 97.827 115.043 97.827L111.523 92.4277Z" fill="#6153BD"/>
<path d="M103.268 135.755C102.588 136.658 101.888 137.541 101.228 138.423L97.4688 125.311L103.268 135.755Z" fill="#6153BD"/>
<path d="M105.2 59.6064C98.8441 51.9576 94.9607 55.4878 92.8438 59.8586C95.0839 55.4038 98.623 56.7486 99.423 61.6657C99.5031 62.2331 99.8031 62.191 99.8631 62.149C100.183 62.0598 100.483 61.9025 100.743 61.6867C102.603 60.3209 103.883 63.746 101.103 64.7336C100.742 66.8571 100.535 69.0062 100.483 71.1626C100.483 71.1626 112.021 67.785 105.2 59.6064Z" fill="#6153BD"/>
<path d="M112.562 57.7357C110.202 60.3204 106.507 60.63 104.302 58.4082C102.097 56.1863 102.222 52.2933 104.582 49.7087C106.942 47.1241 110.637 46.8144 112.842 49.0363C115.048 51.2581 114.923 55.1511 112.562 57.7357Z" fill="#6153BD"/>
<path d="M29.6838 191.018C17.5295 201.053 10.1038 205.209 10.3007 206.881C10.7218 210.475 23.2814 204.591 29.5807 205.137C31.0726 205.302 32.581 205.159 34.0209 204.717C35.641 204.192 36.8632 202.763 38.4211 201.103C34.421 198.993 31.3078 195.399 29.6838 191.018Z" fill="#6153BD"/>
<path d="M175.165 137.625C170.734 134.398 168.849 135.524 164.785 136.637C166.687 140.768 167.47 145.37 167.045 149.938C172.184 149.182 178.265 148.404 182.025 148.168C187.485 147.836 192.265 147.329 192.646 146.382C194.008 143.067 180.323 141.448 175.165 137.625Z" fill="#6153BD"/>
<path d="M157.122 78.3674L152.883 78.8098C153.843 75.9111 155.662 75.6988 157.122 78.3674Z" fill="#6153BD"/>
<path d="M157.923 91.146C156.983 93.3314 155.483 93.4154 154.203 91.4612L157.923 91.146Z" fill="#6153BD"/>
<path d="M130.484 37.3333C130.394 37.3534 130.302 37.3547 130.212 37.337C130.123 37.3193 130.036 37.283 129.961 37.2302C129.884 37.1773 129.818 37.1091 129.768 37.0295C129.716 36.9497 129.682 36.8601 129.664 36.7659L127.964 28.0288C127.927 27.8422 127.961 27.6476 128.06 27.488C128.16 27.3284 128.316 27.2168 128.493 27.1778C128.671 27.1388 128.856 27.1756 129.009 27.28C129.16 27.3844 129.267 27.548 129.304 27.7347L131.004 36.4717C131.027 36.5643 131.032 36.6611 131.018 36.7557C131.005 36.8504 130.972 36.9411 130.923 37.0221C130.874 37.1029 130.81 37.1724 130.734 37.2259C130.658 37.2795 130.573 37.316 130.484 37.3333Z" fill="#6153BD"/>
<path d="M84.6815 89.3599L81.5234 97.4488C82.2435 97.5119 82.9835 97.5539 83.7036 97.5959C83.3029 94.8083 83.6412 91.9586 84.6815 89.3599Z" fill="#6153BD"/>
<path d="M7.08121 119.785C6.90682 119.961 6.67408 120.059 6.43205 120.059C6.19002 120.058 5.95762 119.96 5.78383 119.783C5.61005 119.606 5.50847 119.365 5.50051 119.11C5.49254 118.856 5.57882 118.609 5.74114 118.42C5.91553 118.244 6.14827 118.146 6.3903 118.146C6.63234 118.147 6.86474 118.246 7.03852 118.422C7.2123 118.599 7.31388 118.841 7.32185 119.095C7.32982 119.349 7.24354 119.596 7.08121 119.785Z" fill="#6153BD"/>
<path d="M97.5429 86.0188C97.5625 86.2432 97.5184 86.4686 97.4162 86.6666C97.314 86.8646 97.1582 87.0263 96.9685 87.1313C96.7788 87.2362 96.5637 87.2798 96.3505 87.2564C96.1372 87.233 95.9354 87.1437 95.7704 86.9998C95.6055 86.8558 95.4849 86.6638 95.4238 86.4478C95.3627 86.2319 95.364 86.0018 95.4274 85.7867C95.4907 85.5714 95.6135 85.3808 95.78 85.2389C95.9465 85.097 96.1493 85.0101 96.3628 84.9891C96.5047 84.9748 96.648 84.9899 96.7843 85.0339C96.9206 85.0781 97.0474 85.1499 97.157 85.2457C97.2667 85.3414 97.3573 85.4591 97.4236 85.5917C97.4898 85.7244 97.5303 85.8696 97.5429 86.0188Z" fill="#6153BD"/>
<path d="M95.7811 93.6888C95.8008 93.9131 95.7567 94.1385 95.6545 94.3366C95.5523 94.5346 95.3965 94.6963 95.2068 94.8013C95.0171 94.9063 94.802 94.9499 94.5888 94.9264C94.3755 94.903 94.1737 94.8137 94.0087 94.6698C93.8438 94.5258 93.7231 94.3338 93.6621 94.1178C93.601 93.902 93.6023 93.6718 93.6657 93.4566C93.729 93.2415 93.8518 93.0508 94.0183 92.9089C94.1847 92.7669 94.3876 92.6801 94.6011 92.6592C94.7431 92.6446 94.8864 92.6598 95.0228 92.7037C95.1591 92.7477 95.2858 92.8196 95.3955 92.9153C95.5053 93.0111 95.5959 93.1288 95.6621 93.2615C95.7283 93.3943 95.7687 93.5395 95.7811 93.6888Z" fill="#6153BD"/>
<path d="M95.7811 102.261C95.8008 102.485 95.7567 102.71 95.6545 102.908C95.5523 103.106 95.3965 103.268 95.2068 103.373C95.0171 103.478 94.802 103.522 94.5888 103.498C94.3755 103.475 94.1737 103.385 94.0087 103.242C93.8438 103.098 93.7231 102.906 93.6621 102.69C93.601 102.474 93.6023 102.244 93.6657 102.028C93.729 101.813 93.8518 101.623 94.0183 101.481C94.1847 101.339 94.3876 101.252 94.6011 101.231C94.743 101.216 94.8863 101.232 95.0226 101.276C95.1589 101.32 95.2856 101.392 95.3953 101.487C95.505 101.583 95.5956 101.701 95.6619 101.833C95.7281 101.966 95.7686 102.111 95.7811 102.261Z" fill="#6153BD"/>
<path d="M44.1094 199.148L70.7424 210.033L78.0817 190.177C78.509 189.083 79.2221 188.139 80.1388 187.454C81.0554 186.768 82.1379 186.37 83.2612 186.304C84.3845 186.237 85.5026 186.507 86.4862 187.081C87.4698 187.655 88.2786 188.51 88.8191 189.546C90.0521 191.925 91.9064 193.884 94.1634 195.193C96.4206 196.502 98.9866 197.107 101.56 196.935C104.133 196.763 106.605 195.823 108.687 194.224C110.769 192.626 112.372 190.436 113.309 187.914C114.246 185.39 114.477 182.637 113.975 179.981C113.473 177.324 112.259 174.873 110.477 172.917C108.694 170.959 106.416 169.579 103.912 168.937C101.407 168.294 98.78 168.417 96.3395 169.291C95.2733 169.677 94.1246 169.736 93.0273 169.463C91.9298 169.19 90.9288 168.595 90.1409 167.748C89.3529 166.899 88.8103 165.834 88.5763 164.675C88.3423 163.516 88.4265 162.311 88.8191 161.2L93.7794 147.818" stroke="#120071" stroke-linecap="round" stroke-linejoin="round"/>
<path d="M27.8622 192.509L9.2023 184.878C8.48827 184.586 7.83596 184.149 7.28264 183.593C6.72932 183.036 6.28583 182.37 5.97751 181.633C5.66919 180.897 5.50207 180.103 5.48571 179.297C5.46934 178.493 5.60404 177.693 5.88212 176.943L27.6022 118.294C27.88 117.543 28.2961 116.856 28.8265 116.274C29.3571 115.693 29.9916 115.226 30.6939 114.902C31.3961 114.578 32.1523 114.403 32.919 114.387C33.6859 114.37 34.4483 114.513 35.1626 114.806L77.0596 131.909" stroke="#120071" stroke-linecap="round" stroke-linejoin="round"/>
<path d="M175.984 80.6396C176.109 81.1404 176.297 81.6212 176.544 82.0685" stroke="#120071" stroke-linecap="round" stroke-linejoin="round"/>
<path d="M175.93 77.7194C176.107 76.8343 176.465 76.0001 176.978 75.2745C177.492 74.5489 178.15 73.9491 178.906 73.5168C181.169 72.2213 183.034 70.2732 184.28 67.902C185.525 65.5308 186.1 62.8351 185.937 60.1322C185.772 57.4294 184.878 54.8318 183.357 52.6455C181.835 50.459 179.751 48.7745 177.35 47.7904C174.948 46.8063 172.329 46.5636 169.8 47.0907C167.271 47.6178 164.939 48.8928 163.076 50.7657C161.214 52.6386 159.901 55.0313 159.289 57.6624C158.678 60.2935 158.794 63.0532 159.626 65.6169C159.994 66.7371 160.051 67.9442 159.792 69.0974C159.532 70.2506 158.966 71.3024 158.158 72.1305C157.351 72.9584 156.337 73.5283 155.233 73.7738C154.13 74.0192 152.982 73.9301 151.925 73.5168L131.685 65.2597L126.422 79.4845" stroke="#120071" stroke-linecap="round" stroke-linejoin="round"/>
<path d="M153.184 154.713L166.763 160.243C167.478 160.536 168.24 160.679 169.007 160.662C169.773 160.646 170.53 160.47 171.232 160.146C171.934 159.822 172.568 159.356 173.098 158.774C173.629 158.191 174.045 157.506 174.323 156.755L177.388 148.469M178.023 83.9053C178.48 84.2796 178.985 84.5838 179.523 84.8088L192.704 90.1672C193.418 90.459 194.071 90.896 194.625 91.4533C195.178 92.0106 195.623 92.6772 195.931 93.4149C196.24 94.1525 196.406 94.9469 196.422 95.7524C196.437 96.5579 196.302 97.3587 196.023 98.1091L180.455 140.183" stroke="#120071" stroke-linecap="round" stroke-linejoin="round"/>
<path d="M108.426 105.644C109.775 105.752 111.052 106.33 112.054 107.285C113.057 108.24 113.728 109.518 113.963 110.918" stroke="#120071" stroke-linecap="round" stroke-linejoin="round"/>
<path d="M86.082 79.5469C88.6066 76.8706 92.0362 75.3523 95.6225 75.3232" stroke="#120071" stroke-linecap="round" stroke-linejoin="round"/>
<path d="M102.904 52.9453L71.8047 40.2544" stroke="#120071" stroke-linecap="round" stroke-linejoin="round"/>
<path d="M119.104 79.8201L125.644 62.2542L113.164 57.1479" stroke="#120071" stroke-linecap="round" stroke-linejoin="round"/>
<path d="M82.0229 125.122L38.1427 107.199C36.7016 106.606 35.5429 105.437 34.9205 103.948C34.2982 102.459 34.263 100.772 34.8225 99.256L40.6628 83.3501C41.0397 82.2385 41.1128 81.0382 40.8738 79.8851C40.6348 78.7322 40.0933 77.6724 39.3107 76.826C38.528 75.9798 37.5353 75.3806 36.4452 75.0963C35.3551 74.8121 34.2109 74.8542 33.1424 75.218C30.708 76.0818 28.0894 76.1979 25.5945 75.5525C23.0994 74.9071 20.8315 73.5272 19.0569 71.5747C17.2824 69.6223 16.0751 67.1783 15.5768 64.53C15.0783 61.8817 15.3096 59.139 16.2434 56.6239C17.1772 54.109 18.7746 51.926 20.8482 50.3318C22.9218 48.7375 25.3853 47.7978 27.9494 47.6234C30.5137 47.4489 33.072 48.0468 35.3239 49.3467C37.5759 50.6468 39.428 52.5949 40.6628 54.9623C42.9882 59.4492 49.5517 59.3862 51.4003 54.353L52.2003 52.1886" stroke="#120071" stroke-linecap="round" stroke-linejoin="round"/>
<path d="M95.2891 73.2043C96.0856 73.036 96.8622 72.7763 97.605 72.4302L95.6901 74.714" stroke="#120071" stroke-linecap="round" stroke-linejoin="round"/>
<path d="M109.562 79.6519C107.326 79.6017 105.119 79.1024 103.062 78.1809C101.725 77.4189 100.423 76.0376 100.482 71.1625C100.535 69.0062 100.742 66.8571 101.102 64.7336C103.882 63.767 102.627 60.3584 100.742 61.6867C100.048 62.1755 99.5446 62.4796 99.4215 61.6867C98.6593 56.7419 95.0823 55.4247 92.8422 59.8795L92.1421 61.5816C90.521 66.3748 90.2789 74.0292 95.2865 73.2008C95.4821 73.6843 95.6152 74.1931 95.6823 74.7138C95.7086 75.2391 95.1612 78.0538 94.5623 78.4121C93.3401 79.1442 91.2221 79.841 87.4219 79.6519" stroke="#120071" stroke-linecap="round" stroke-linejoin="round"/>
<path d="M154.172 91.5134C165.108 90.5081 167.233 89.8147 174.278 88.7087C174.998 88.6037 175.839 88.4378 176.798 88.2254C180.341 87.438 180.599 86.2347 176.458 86.2922C174.356 86.3214 172.261 86.0312 170.238 85.4307" stroke="#120071" stroke-linecap="round" stroke-linejoin="round"/>
<path d="M171.742 85.8123C171.762 85.9173 174.383 85.0779 177.562 84.0427C181.122 82.8881 181.341 81.3674 177.022 82.0045C174.845 82.4394 172.613 82.4821 170.422 82.1305" stroke="#120071" stroke-linecap="round" stroke-linejoin="round"/>
<path d="M169.664 79.547C169.664 79.547 177.482 77.2732 177.963 77.1139C181.648 75.8609 182.204 77.2621 179.064 79.0261C176.183 80.6441 172.343 82.344 172.343 82.344" stroke="#120071" stroke-linecap="round" stroke-linejoin="round"/>
<path d="M152.784 78.4052C152.568 78.4282 152.41 78.6317 152.432 78.8596C152.454 79.0875 152.648 79.2535 152.864 79.2305L152.784 78.4052ZM157.867 78.2859V78.7006C157.876 78.7006 157.885 78.7003 157.894 78.6996L157.867 78.2859ZM168.147 76.7099L168.299 77.0927L168.3 77.0924L168.147 76.7099ZM173.667 74.2093L173.501 73.8328L173.5 73.8331L173.667 74.2093ZM174.867 75.9114L175.071 76.2662L175.079 76.2609L174.867 75.9114ZM170.804 78.8488C170.656 79.0163 170.664 79.2787 170.823 79.435C170.982 79.5914 171.233 79.5824 171.381 79.4151L170.804 78.8488ZM152.824 78.8179L152.864 79.2305C152.863 79.2305 152.864 79.2304 152.864 79.2305C152.864 79.2304 152.867 79.2302 152.868 79.2301C152.871 79.2298 152.874 79.2295 152.878 79.229L152.92 79.2245C152.957 79.2207 153.011 79.2149 153.079 79.2076C153.216 79.1931 153.412 79.1723 153.647 79.1473C154.116 79.0975 154.742 79.031 155.37 78.9645C155.998 78.8981 156.627 78.8316 157.101 78.7817C157.338 78.7567 157.537 78.736 157.677 78.7214C157.748 78.7142 157.803 78.7086 157.842 78.7047C157.86 78.7027 157.874 78.7014 157.885 78.7004C157.909 78.6981 157.889 78.7006 157.867 78.7006V77.8712C157.856 77.8712 157.848 77.8716 157.847 77.8717C157.843 77.8718 157.84 77.8721 157.838 77.8722C157.835 77.8724 157.832 77.8727 157.83 77.8728C157.825 77.8733 157.819 77.8738 157.813 77.8744C157.802 77.8755 157.786 77.877 157.766 77.879C157.727 77.883 157.67 77.8888 157.6 77.896C157.459 77.9105 157.26 77.9313 157.023 77.9563C156.548 78.0062 155.919 78.0727 155.291 78.1393C154.663 78.2057 154.037 78.2722 153.567 78.3221C153.332 78.3471 153.137 78.3679 153 78.3823C152.932 78.3896 152.877 78.3954 152.841 78.3993C152.822 78.4011 152.809 78.4027 152.799 78.4037L152.789 78.4048C152.788 78.405 152.785 78.4051 152.784 78.4052L152.824 78.8179ZM157.894 78.6996C158.703 78.6415 159.6 78.2921 160.324 77.7825C161.037 77.2803 161.663 76.565 161.796 75.7278L161.017 75.5907C160.936 76.0993 160.522 76.6449 159.885 77.0932C159.257 77.5343 158.49 77.8253 157.838 77.8722L157.894 78.6996ZM161.796 75.7278C161.89 75.1422 161.969 74.4855 162.052 73.8485C162.135 73.2057 162.222 72.5802 162.329 72.0354C162.438 71.482 162.562 71.0513 162.706 70.7779C162.853 70.4987 162.941 70.5173 162.966 70.5214L163.089 69.7021C162.564 69.615 162.219 69.9927 162.016 70.3758C161.811 70.7646 161.668 71.299 161.555 71.8668C161.442 72.443 161.352 73.0943 161.269 73.7368C161.186 74.3847 161.108 75.0217 161.017 75.5907L161.796 75.7278ZM162.966 70.5214C163.175 70.5565 163.374 70.7376 163.552 71.2278C163.727 71.7095 163.833 72.3657 163.925 73.1112C164.014 73.8362 164.091 74.6481 164.213 75.3642C164.335 76.0732 164.512 76.7735 164.845 77.2653L165.489 76.7849C165.265 76.4545 165.11 75.9147 164.99 75.2176C164.872 74.5275 164.802 73.767 164.708 73.0045C164.617 72.2627 164.502 71.5166 164.29 70.9325C164.082 70.3568 163.728 69.8087 163.089 69.7021L162.966 70.5214ZM164.845 77.2653C165.046 77.5628 165.391 77.6479 165.659 77.6719C165.948 77.6978 166.279 77.664 166.598 77.6063C167.237 77.4905 167.915 77.2609 168.299 77.0927L167.996 76.327C167.66 76.4741 167.039 76.6847 166.463 76.7889C166.175 76.8413 165.919 76.8626 165.726 76.8454C165.512 76.8263 165.479 76.77 165.489 76.7849L164.845 77.2653ZM168.3 77.0924C169.48 76.5718 173.444 74.775 173.833 74.5855L173.5 73.8331C173.127 74.0152 169.177 75.8062 167.995 76.3275L168.3 77.0924ZM173.832 74.5859C174.7 74.1651 175.353 73.9576 175.795 73.8972C176.017 73.8669 176.164 73.877 176.249 73.8993C176.332 73.921 176.318 73.942 176.3 73.9071C176.284 73.8741 176.307 73.8763 176.279 73.9628C176.252 74.0496 176.186 74.1794 176.055 74.348C175.795 74.6834 175.335 75.1047 174.654 75.5618L175.079 76.2609C175.8 75.7769 176.335 75.3001 176.668 74.8716C176.833 74.6582 176.961 74.4395 177.029 74.2227C177.097 74.0056 177.116 73.7492 176.995 73.5137C176.873 73.2762 176.657 73.1511 176.438 73.0942C176.223 73.0379 175.969 73.037 175.693 73.0747C175.139 73.1503 174.406 73.3948 173.501 73.8328L173.832 74.5859ZM174.662 75.5567C173.238 76.4631 171.94 77.5709 170.804 78.8488L171.381 79.4151C172.468 78.1927 173.71 77.1332 175.071 76.2662L174.662 75.5567Z" fill="#120071"/>
<path d="M168.984 77.9077C170.302 80.5473 170.691 83.5907 170.083 86.5021" stroke="#120071" stroke-linecap="round" stroke-linejoin="round"/>
<path d="M167.087 79.5679C166.827 82.972 165.403 85.3255 162.367 85.9559" stroke="#120071" stroke-linecap="round" stroke-linejoin="round"/>
<path d="M110.047 97.66C110.43 95.8836 110.925 94.1358 111.527 92.4277L115.02 97.7861" stroke="#120071" stroke-linecap="round" stroke-linejoin="round"/>
<path d="M101.217 138.396L97.4648 125.312L103.264 135.755" stroke="#120071" stroke-linecap="round" stroke-linejoin="round"/>
<path d="M89.8421 114.364C69.202 142.647 57.5245 160.317 30.2599 187.004C26.1544 191.026 38.1077 204.789 42.2606 200.85L49.4188 194.064C68.8441 175.616 81.3816 163.386 96.7403 144.118C96.7403 144.118 102.58 136.658 103.26 135.755L113.6 154.392C114.742 156.459 116.462 158.107 118.527 159.112C120.592 160.115 122.901 160.427 125.14 160.003L165.563 152.372C169.183 151.738 166.185 134.108 162.503 134.787L126.542 140.419C126.542 140.419 123.745 127.479 123.279 125.247C122.447 121.186 120.583 117.437 117.886 114.399C115.188 111.361 111.758 109.148 107.959 107.994" stroke="#120071" stroke-linecap="round" stroke-linejoin="round"/>
<path d="M92.8438 59.8586C94.9639 55.4879 98.8441 51.9587 105.203 59.6064C112.003 67.7806 100.483 71.1836 100.483 71.1836" stroke="#120071" stroke-linecap="round" stroke-linejoin="round"/>
<path d="M112.562 57.7362C110.202 60.3209 106.507 60.6305 104.302 58.4087C102.097 56.1868 102.222 52.2938 104.582 49.7092C106.942 47.1246 110.637 46.8149 112.842 49.0368C115.048 51.2586 114.923 55.1516 112.562 57.7362Z" stroke="#120071" stroke-linecap="round" stroke-linejoin="round"/>
<path d="M38.42 201.103C36.8599 202.762 35.6367 204.182 34.0198 204.717C32.5797 205.158 31.0715 205.301 29.5795 205.137C23.2781 204.61 10.7238 210.473 10.2996 206.881C10.1806 205.873 14.0398 202.889 18.6 199.692C21.4802 197.675 25.8404 194.188 29.6795 191.015" stroke="#120071" stroke-linecap="round" stroke-linejoin="round"/>
<path d="M164.785 136.638C167.325 135.944 169.284 135.17 171.144 135.629C172.594 136.016 173.958 136.692 175.165 137.62C180.34 141.422 193.994 143.057 192.646 146.381C192.262 147.326 187.487 147.832 182.025 148.167C178.265 148.399 172.184 149.176 167.045 149.937" stroke="#120071" stroke-linecap="round" stroke-linejoin="round"/>
<path d="M154.84 76.5008C155.589 76.4355 156.402 77.0537 157.123 78.3676" stroke="#120071" stroke-linecap="round" stroke-linejoin="round"/>
<path d="M157.923 91.146C157.483 92.1546 156.883 92.785 156.203 92.8481" stroke="#120071" stroke-linecap="round" stroke-linejoin="round"/>
<path d="M131.024 36.4718C131.053 36.658 131.013 36.8492 130.912 37.005C130.81 37.1609 130.654 37.2693 130.478 37.3073C130.303 37.3453 130.119 37.3103 129.967 37.2093C129.815 37.1083 129.707 36.9494 129.664 36.7659L127.964 28.0289C127.927 27.8421 127.961 27.6475 128.06 27.4879C128.16 27.3283 128.316 27.2168 128.494 27.1778C128.671 27.1388 128.856 27.1755 129.009 27.2799C129.16 27.3844 129.267 27.5479 129.304 27.7347L131.024 36.4718Z" stroke="#120071" stroke-linecap="round" stroke-linejoin="round"/>
<path d="M127.645 22.7925L128.645 27.8777" stroke="#120071" stroke-linecap="round" stroke-linejoin="round"/>
<path d="M125.181 10.1645C123.992 10.4202 122.903 11.0404 122.05 11.9466C121.196 12.853 120.618 14.0046 120.389 15.256C120.158 16.5074 120.287 17.8023 120.757 18.9771C121.228 20.1518 122.02 21.1536 123.032 21.8559C124.044 22.5581 125.232 22.9291 126.445 22.9222C127.659 22.9152 128.842 22.5304 129.847 21.8165C130.853 21.1027 131.633 20.0919 132.092 18.9117C132.55 17.7317 132.664 16.4353 132.421 15.1866C132.26 14.3573 131.944 13.5694 131.494 12.8681C131.042 12.1668 130.464 11.5658 129.792 11.0995C129.119 10.6331 128.366 10.3104 127.575 10.15C126.784 9.98955 125.97 9.99447 125.181 10.1645Z" stroke="#120071" stroke-linecap="round" stroke-linejoin="round"/>
<path d="M198.762 128.085L196.422 127.35" stroke="#120071" stroke-linecap="round" stroke-linejoin="round"/>
<path d="M199.625 133.506L200.325 131.069" stroke="#120071" stroke-linecap="round" stroke-linejoin="round"/>
<path d="M203.168 129.43C202.585 129.25 202.094 128.835 201.802 128.275C201.509 127.716 201.439 127.058 201.608 126.444C201.436 127.057 201.042 127.572 200.509 127.879C199.976 128.187 199.35 128.26 198.766 128.083C199.349 128.263 199.839 128.678 200.132 129.237C200.425 129.797 200.494 130.455 200.326 131.069C200.497 130.456 200.892 129.941 201.425 129.633C201.957 129.326 202.584 129.253 203.168 129.43Z" stroke="#120071" stroke-linecap="round" stroke-linejoin="round"/>
<path d="M54.4995 59.7113C53.2983 56.6827 52.4131 53.5263 51.8594 50.2974" stroke="#120071" stroke-linecap="round" stroke-linejoin="round"/>
<path d="M58.9408 48.6793L44.7011 51.8944C44.038 52.0448 43.3452 51.9123 42.7751 51.5261C42.205 51.1399 41.8042 50.5316 41.6609 49.8351L35.6406 20.3546L44.3211 18.4004C44.8054 18.2955 45.3081 18.3383 45.77 18.5236C46.2319 18.7091 46.6337 19.0294 46.9281 19.4469C47.2224 19.8643 47.397 20.3615 47.4313 20.8798C47.4655 21.398 47.3579 21.9157 47.1212 22.3719C46.5914 23.4198 46.3574 24.6047 46.4468 25.7876C46.5361 26.9704 46.945 28.1019 47.6255 29.0489C48.3059 29.9958 49.2296 30.7191 50.2878 31.1334C51.3461 31.5478 52.495 31.6361 53.5994 31.388C54.7039 31.1398 55.7178 30.5655 56.5223 29.7326C57.3266 28.8997 57.8879 27.8429 58.1401 26.6863C58.3924 25.5298 58.325 24.3215 57.9459 23.2038C57.567 22.086 56.8921 21.1053 56.0007 20.3768C55.6096 20.0608 55.3119 19.6347 55.1424 19.1479C54.9729 18.6612 54.9386 18.1339 55.0435 17.6273C55.1482 17.1209 55.3879 16.6561 55.7343 16.2873C56.0809 15.9183 56.5201 15.6605 57.0007 15.5437L66.3012 13.4214L72.3415 42.9007C72.4847 43.5972 72.3586 44.3251 71.991 44.9241C71.6235 45.523 71.0445 45.9441 70.3814 46.0947L61.761 48.0489" stroke="#120071" stroke-linecap="round" stroke-linejoin="round"/>
<path d="M58.3441 57.022C57.204 55.5511 56.824 51.9998 58.8241 50.3862C58.8241 50.3862 59.0905 44.445 60.0642 43.0958C61.0379 41.7465 61.5832 47.336 62.0043 49.4572C62.2812 50.8452 63.0043 54.0591 63.7244 56.7068" stroke="#120071" stroke-linecap="round" stroke-linejoin="round"/>
<path d="M81.5312 97.4246L84.703 89.3511C83.6639 91.9501 83.3182 94.7973 83.7029 97.5872" stroke="#120071" stroke-linecap="round" stroke-linejoin="round"/>
<path d="M154.838 76.5012C137.32 78.8956 119.422 80.4716 109.562 79.652C101.642 81.7113 94.2026 81.9425 87.4222 79.652C83.922 79.4839 79.0218 78.5173 72.1224 76.1008L66.4621 57.148C65.8621 55.0887 51.9814 59.5435 52.5814 61.6028L61.7619 91.4825C68.5752 95.1446 76.0568 97.2294 83.702 97.5962C84.182 101.21 85.8421 106.317 89.8423 114.365C94.1426 117.054 103.422 113.209 107.843 108.376C108.623 104.594 109.323 100.832 110.043 97.6604C125.559 98.2125 141.075 96.5942 156.184 92.8483C152.061 93.2222 150.638 76.8739 154.838 76.5012Z" stroke="#120071" stroke-linecap="round" stroke-linejoin="round"/>
<path d="M35.1604 182.087C32.0202 184.962 43.8977 199.229 47.021 196.375" stroke="#120071" stroke-linecap="round" stroke-linejoin="round"/>
<path d="M155.184 135.944C157.944 135.419 161.024 153.237 158.264 153.762" stroke="#120071" stroke-linecap="round" stroke-linejoin="round"/>
<path d="M143.006 185.806L135.445 206.251" stroke="#120071" stroke-linecap="round" stroke-linejoin="round"/>
<path d="M148.964 199.989L129.484 192.068" stroke="#120071" stroke-linecap="round" stroke-linejoin="round"/>
<path d="M7.7033 115.1C8.10332 113.903 8.82336 113.188 10.9035 111.696C15.3069 108.538 14.4826 104.916 11.8835 103.837C11.4241 103.651 10.9314 103.573 10.44 103.608C9.94864 103.643 9.47065 103.791 9.03968 104.042C8.60871 104.292 8.23524 104.639 7.94561 105.057C7.65596 105.476 7.45719 105.956 7.36328 106.464" stroke="#120071" stroke-linecap="round" stroke-linejoin="round"/>
<path d="M40.8242 193.643C61.2043 173.584 80.5897 152.44 98.9042 130.291" stroke="#120071" stroke-linecap="round" stroke-linejoin="round"/>
<path d="M103.27 112.053C103.27 112.053 113.967 117.012 114.97 126.026C115.528 131.048 118.69 141.429 120.37 146.723C120.661 147.641 121.247 148.425 122.028 148.938C122.81 149.452 123.736 149.665 124.65 149.539L158.87 144.832" stroke="#120071" stroke-linecap="round" stroke-linejoin="round"/>
</g>
<defs>
<clipPath id="clip0_344_982">
<rect width="200" height="200" fill="white"/>
</clipPath>
</defs>
</svg>
