<svg width="200" height="200" viewBox="0 0 200 200" fill="none" xmlns="http://www.w3.org/2000/svg">
<g clip-path="url(#clip0_344_782)">
<path d="M140.861 64.5511C134.095 63.6436 126.249 62.7173 126.249 62.7173C127.779 62.9252 128.573 66.158 128.062 69.9201C127.552 73.6822 125.888 76.5737 124.358 76.3657C123.375 76.2334 122.694 74.8344 122.468 72.8494C121.522 73.0573 120.558 73.2285 119.575 73.3986C119.575 73.3986 124.32 80.7138 119.991 82.3586C116.229 83.7765 107.627 76.5169 107.627 76.5169C97.2016 81.7258 76.9961 85.7704 66.1914 87.8898C68.9416 87.4361 71.8699 100.684 69.1764 101.357C81.7661 99.0885 95.4912 95.8369 107.249 90.6579C109.291 93.7006 113.28 97.2925 113.734 101.036C118.951 102.23 125.247 102.076 128.478 99.9203C129.971 90.0529 129.424 85.4928 128.233 82.7178C132.441 82.1211 136.549 80.9573 140.445 79.2582C150.769 74.8971 148.29 65.568 140.861 64.5511Z" fill="#FECFC4"/>
<path d="M120.916 129.754L119.253 129.583L118.629 131.19L117.173 130.892L111.331 142.915C110.344 144.953 108.604 146.529 106.478 147.312C104.353 148.094 102.007 148.023 99.9327 147.111L84.5251 139.682L76.983 143.935C75.8298 152.764 82.5779 169.645 93.8453 175.071L119.064 160.93C120.878 154.295 123.393 144.975 123.695 143.727C121.83 134.377 121.557 133.037 120.916 129.754Z" fill="#FECFC4"/>
<path d="M122.449 72.6792C122.922 77.3676 125.587 77.5945 127.231 73.2095C125.619 73.2788 124.007 73.1 122.449 72.6792Z" fill="#6153BD"/>
<path d="M125.567 62.7898L125.473 64.0564C125.662 64.4156 126.986 64.7181 127.855 64.737C127.458 63.3599 126.669 62.3201 125.567 62.7898Z" fill="#6153BD"/>
<path d="M142.377 64.9292C146.308 66.4038 150.6 71.5081 144.173 76.9896C142.454 78.3489 140.509 79.3932 138.426 80.0741C139.754 86.1504 141.619 92.0969 143.998 97.8438C152.882 93.0986 162.07 90.831 170.028 90.9783C159.201 75.2275 148.426 64.967 142.377 64.9292Z" fill="#6153BD"/>
<path d="M135.305 150.583C135.116 151.094 134.927 151.604 134.719 152.134L136.496 151.151C136.092 150.977 135.694 150.788 135.305 150.583Z" fill="#6153BD"/>
<path d="M187.916 122.738C183.927 129.603 177.215 136.293 168.539 141.435C173.232 147.693 187.558 165.215 194.324 161.416C199.73 158.372 196.762 142.379 187.916 122.738Z" fill="#6153BD"/>
<path d="M65.207 89.5426C65.9821 89.278 67.4378 88.7466 67.5323 88.7297C66.398 87.3118 65.5095 87.7845 65.207 89.5426Z" fill="#6153BD"/>
<path d="M102.493 50.6567C100.447 50.6549 98.4416 51.229 96.7066 52.3135C94.9716 53.398 93.5769 54.9489 92.6822 56.7889C91.9661 56.0628 91.0564 55.5579 90.0613 55.3346C89.0663 55.1113 88.028 55.1789 87.0703 55.5294C86.1127 55.88 85.2761 56.4986 84.6603 57.3115C84.0446 58.1244 83.6757 59.0973 83.5976 60.1141C83.5196 61.1309 83.7357 62.1486 84.2201 63.046C84.7046 63.9434 85.437 64.6824 86.3299 65.175C87.2229 65.6676 88.2387 65.8929 89.2561 65.824C90.2736 65.7552 91.2498 65.3951 92.0682 64.7867C92.5912 66.4807 93.5195 68.0215 94.7727 69.2755C96.0258 70.5296 97.5659 71.459 99.2595 71.9832C100.953 72.5075 102.749 72.6107 104.491 72.2839C106.234 71.9571 107.87 71.2102 109.259 70.108C109.075 69.7096 108.833 69.3407 108.54 69.0135C108.423 68.8563 108.267 68.7325 108.087 68.6543C104.457 68.2563 104.741 64.9489 106.839 65.6484C107.841 65.9887 108.087 65.7807 107.934 65.2504C106.799 62.4525 108.066 55.8546 113.397 61.9042C113.441 60.4442 113.192 58.9901 112.663 57.6282C112.135 56.2663 111.339 55.0242 110.323 53.9754C109.306 52.9267 108.089 52.0926 106.744 51.5225C105.399 50.9525 103.954 50.6581 102.493 50.6567Z" fill="#6153BD"/>
<path d="M26.5116 111.074C25 110.826 23.4528 110.901 21.9723 111.295C20.4918 111.688 19.1116 112.391 17.9228 113.358C16.7339 114.324 15.7635 115.531 15.0756 116.9C14.3877 118.269 13.9979 119.768 13.9319 121.298C13.866 122.829 14.1253 124.356 14.6929 125.779C15.2605 127.202 16.1234 128.488 17.2247 129.553C18.326 130.618 19.6406 131.437 21.0818 131.956C22.5229 132.476 24.0578 132.684 25.5853 132.566C24.1683 125.432 24.486 118.061 26.5116 111.074Z" fill="#6153BD"/>
<path d="M70.1027 99.8037C69.3843 100.049 68.6102 100.295 67.7773 100.522C68.8927 101.905 69.7813 101.527 70.1027 99.8037Z" fill="#6153BD"/>
<path d="M50.7531 132.512C57.399 128.395 64.5551 125.166 72.0391 122.908C71.2281 122.464 70.4564 121.952 69.7327 121.376C60.7637 122.835 52.2176 126.221 44.6836 131.302C46.6842 131.811 48.7102 132.214 50.7531 132.512Z" fill="#6153BD"/>
<path d="M114.491 174.082C113.659 175.745 112.998 176.917 113.016 177.012C114.675 185.819 117.854 194.27 122.412 201.986C123.015 200.255 123.507 198.487 123.886 196.693C121.164 191.435 116.287 178.827 114.491 174.082Z" fill="#6153BD"/>
<path d="M110.88 88.9585L109.576 93.6449C108.725 92.6052 107.893 91.6032 107.27 90.6599C108.481 90.1103 109.685 89.5431 110.88 88.9585Z" fill="#6153BD"/>
<path d="M112.09 70.6382L115.174 72.3208C114.738 71.7176 114.376 71.0637 114.097 70.3735C113.446 70.5662 112.769 70.6555 112.09 70.6382Z" fill="#6153BD"/>
<path fill-rule="evenodd" clip-rule="evenodd" d="M135.569 47.8211C138.204 46.971 140.527 45.3588 142.245 43.1884C143.387 41.7478 144.234 40.0961 144.738 38.3279C145.241 36.5596 145.391 34.7094 145.179 32.8831C144.966 31.057 144.396 29.2907 143.499 27.6855C142.603 26.0802 141.399 24.6675 139.956 23.5282C138.06 22.0279 135.808 21.0444 133.419 20.6735C131.03 20.3026 128.586 20.5569 126.324 21.4116C124.063 22.2664 122.061 23.6924 120.515 25.5507C118.968 27.4091 117.93 29.6363 117.5 32.0155C117.07 34.3946 117.264 36.8445 118.063 39.1264C118.862 41.4082 120.238 43.4442 122.058 45.036C123.878 46.6277 126.079 47.7209 128.447 48.209C130.814 48.6971 133.268 48.5634 135.569 47.8211ZM132.622 32.2056L131.299 29.3131L138.747 32.1687L136.025 39.6919L134.607 36.5726C134.607 36.5726 126.895 40.5994 123.794 32.7538C125.42 36.8751 132.622 32.2056 132.622 32.2056Z" fill="#6153BD"/>
<path d="M173.284 182.211C173.285 184.083 172.8 185.923 171.877 187.551C170.955 189.18 169.626 190.542 168.021 191.504C166.415 192.467 164.588 192.997 162.717 193.043C160.845 193.089 158.994 192.649 157.343 191.766C155.693 190.884 154.299 189.589 153.297 188.007C152.296 186.426 151.722 184.612 151.63 182.742C151.539 180.873 151.933 179.012 152.775 177.34C153.617 175.668 154.877 174.243 156.434 173.203C158.216 172.013 160.31 171.378 162.453 171.378C165.324 171.383 168.077 172.525 170.108 174.556C172.138 176.587 173.28 179.339 173.284 182.211Z" fill="#6153BD"/>
<path d="M102.493 50.6567C100.447 50.6549 98.4416 51.229 96.7066 52.3135C94.9716 53.398 93.5769 54.9489 92.6822 56.7889C91.9661 56.0628 91.0564 55.5579 90.0613 55.3346C89.0663 55.1113 88.028 55.1789 87.0703 55.5294C86.1127 55.88 85.2761 56.4986 84.6603 57.3115C84.0446 58.1244 83.6757 59.0973 83.5976 60.1141C83.5196 61.1309 83.7357 62.1486 84.2201 63.046C84.7046 63.9434 85.437 64.6824 86.3299 65.175C87.2229 65.6676 88.2387 65.8929 89.2561 65.824C90.2736 65.7552 91.2498 65.3951 92.0682 64.7867C92.5912 66.4807 93.5195 68.0215 94.7727 69.2755C96.0258 70.5296 97.5659 71.459 99.2595 71.9832C100.953 72.5075 102.749 72.6107 104.491 72.2839C106.234 71.9571 107.87 71.2102 109.259 70.108C109.075 69.7096 108.833 69.3407 108.54 69.0135C108.423 68.8563 108.267 68.7325 108.087 68.6543C104.457 68.2563 104.741 64.9489 106.839 65.6484C107.841 65.9887 108.087 65.7807 107.934 65.2504C106.799 62.4525 108.066 55.8546 113.397 61.9042C113.441 60.4442 113.192 58.9901 112.663 57.6282C112.135 56.2663 111.339 55.0242 110.323 53.9754C109.306 52.9267 108.089 52.0926 106.744 51.5225C105.399 50.9525 103.954 50.6581 102.493 50.6567Z" stroke="#120071" stroke-linejoin="round"/>
<path d="M136.495 151.151C136.097 150.981 135.699 150.791 135.301 150.583" stroke="#120071" stroke-linecap="round" stroke-linejoin="round"/>
<path d="M119.048 160.925L93.8483 175.064C82.5809 169.639 75.8139 152.758 76.9671 143.929L84.5092 139.675" stroke="#120071" stroke-linecap="round" stroke-linejoin="round"/>
<path d="M103.016 92.416C106.276 95.8368 108.98 99.7467 111.031 104.004" stroke="#120071" stroke-linecap="round" stroke-linejoin="round"/>
<path d="M67.7613 169.034C55.9258 168.423 44.7985 163.208 36.7563 154.503C28.714 145.798 24.3945 134.293 24.7203 122.447C25.0461 110.6 29.9914 99.3501 38.4999 91.1004C47.0084 82.8507 58.4055 78.2551 70.2567 78.2952C76.9676 78.3117 83.5913 79.8157 89.6513 82.6991" stroke="#120071" stroke-linecap="round" stroke-linejoin="round"/>
<path d="M126.098 172.811L139.596 197.089C140.135 198.058 140.293 199.193 140.042 200.272C139.79 201.352 139.146 202.299 138.235 202.931C134.706 205.379 130.945 207.475 127.005 209.187C125.989 209.626 124.846 209.672 123.798 209.315C122.75 208.959 121.872 208.226 121.334 207.259L101.16 171" stroke="#120071" stroke-linecap="round" stroke-linejoin="round"/>
<path d="M142.598 64.9351C148.705 65.2176 159.349 75.4413 170.031 90.9603" stroke="#120071" stroke-linecap="round" stroke-linejoin="round"/>
<path d="M187.916 122.719C196.763 142.36 199.71 158.368 194.324 161.397C187.479 165.248 169.847 146.876 154.928 120.375C146.329 105.099 140.501 90.45 138.406 80.0522" stroke="#120071" stroke-linecap="round" stroke-linejoin="round"/>
<path d="M143.984 97.8406C162.945 87.7085 183.339 88.8637 189.978 100.657C196.618 112.451 187.048 130.47 168.541 141.452" stroke="#120071" stroke-linecap="round" stroke-linejoin="round"/>
<path d="M190.505 161.661L136.496 151.151L134.719 152.134" stroke="#120071" stroke-linecap="round" stroke-linejoin="round"/>
<path d="M93.8506 175.065L90.2209 177.088C69.7856 186.199 55.362 156.085 74.7984 145.139L76.9724 143.929" stroke="#120071" stroke-linecap="round" stroke-linejoin="round"/>
<path d="M133.226 81.7158L129.312 92.3593" stroke="#120071" stroke-linecap="round" stroke-linejoin="round"/>
<path d="M114.094 70.3735C114.094 70.3735 115.32 74.0819 118.102 73.6431C119.594 73.4083 121.051 73.1337 122.488 72.8471" stroke="#120071" stroke-linecap="round" stroke-linejoin="round"/>
<path d="M107.629 76.521C107.629 76.521 116.231 83.7796 119.993 82.3438C124.302 80.699 119.577 73.3828 119.577 73.3828" stroke="#120071" stroke-linecap="round" stroke-linejoin="round"/>
<path d="M104.738 77.7645C108.538 80.9028 116.024 86.5892 121.337 84.835C126.042 83.2818 124.475 76.9327 122.207 72.8691" stroke="#120071" stroke-linecap="round" stroke-linejoin="round"/>
<path d="M65.207 89.5426C65.9821 89.278 67.4378 88.7466 67.5323 88.7297C66.398 87.3118 65.5095 87.7845 65.207 89.5426Z" stroke="#120071" stroke-linecap="round" stroke-linejoin="round"/>
<path d="M125.571 62.8118C127.594 61.9422 128.635 65.8744 128.067 69.9201C127.539 73.6822 125.894 76.5717 124.363 76.3657C123.361 76.2324 122.661 74.7737 122.453 72.718" stroke="#120071" stroke-linecap="round" stroke-linejoin="round"/>
<path d="M126.25 62.6982C126.25 62.6982 134.111 63.6405 140.864 64.532C148.4 65.527 150.784 74.8442 140.448 79.2391C136.547 80.9255 132.441 82.0887 128.235 82.6987" stroke="#120071" stroke-linecap="round" stroke-linejoin="round"/>
<path d="M124.359 76.3467H137.138" stroke="#120071" stroke-linecap="round" stroke-linejoin="round"/>
<path d="M118.992 62.7551C118.801 61.9813 118.432 61.2628 117.915 60.6566C116.925 59.585 117.175 65.7988 118.161 69.5042C118.764 71.7728 122.528 73.3598 127.234 73.2284" stroke="#120071" stroke-linecap="round" stroke-linejoin="round"/>
<path d="M121.221 57.1026C121.466 55.6847 121.787 51.0659 120.313 55.4201C119.932 56.5947 119.635 57.7951 119.425 59.012C119.024 61.0086 118.877 63.0481 118.99 65.0815" stroke="#120071" stroke-linecap="round" stroke-linejoin="round"/>
<path d="M125.512 64.0596C125.701 64.4188 126.986 64.7212 127.856 64.7402" stroke="#120071" stroke-linecap="round" stroke-linejoin="round"/>
<path d="M124 60.9403C124.076 60.7702 124.567 59.7115 124.624 59.5603C125.818 57.0081 126.197 57.7275 125.776 60.7702C125.493 63.2116 125.341 65.6665 125.322 68.1242" stroke="#120071" stroke-linecap="round" stroke-linejoin="round"/>
<path d="M121.961 61.6206C122.32 59.8296 122.963 57.4805 123.155 56.9511C124.478 53.2457 125.548 53.8875 124.747 57.6128C124.288 59.7292 123.896 61.2804 123.652 62.6982" stroke="#120071" stroke-linecap="round" stroke-linejoin="round"/>
<path d="M123.319 56.5541C123.849 50.7701 122.049 53.7173 121.316 56.762C120.968 58.157 120.703 59.5709 120.52 60.9967" stroke="#120071" stroke-linecap="round" stroke-linejoin="round"/>
<path d="M119.992 60.999C120.814 61.1111 121.601 61.4005 122.3 61.8472C122.998 62.2939 123.591 62.8872 124.038 63.586" stroke="#120071" stroke-linecap="round" stroke-linejoin="round"/>
<path d="M55.6267 94.9116C55.6267 94.9116 53.6606 94.647 50.6358 94.2689C47.4597 93.8709 47.006 92.5574 50.6736 92.5485C51.0716 92.5485 55.0973 92.4619 56.2883 92.4351C56.9311 92.4201 58.7609 92.1893 58.7649 91.6032C58.7739 89.9585 55.6277 86.4292 56.7988 85.6104C57.556 85.083 59.8276 87.2889 61.3161 88.8998C61.7415 89.3535 62.2906 89.6724 62.8956 89.8169C63.5005 89.9614 64.1345 89.9252 64.719 89.7127C64.8324 89.6729 67.3846 88.7675 67.498 88.7297" stroke="#120071" stroke-linecap="round" stroke-linejoin="round"/>
<path d="M56.4584 94.7603C56.4584 94.7603 49.5392 95.9891 49.0854 96.0637C45.4756 96.6607 46.1173 97.8627 49.3123 97.7652C52.356 97.6736 56.0783 97.6139 56.0783 97.6139" stroke="#120071" stroke-linecap="round" stroke-linejoin="round"/>
<path d="M57.2314 97.2168C55.0701 97.9624 52.867 98.581 50.6335 99.0695C47.0585 99.8744 47.7978 100.925 50.9927 100.752C52.9657 100.696 54.9313 100.487 56.8722 100.128" stroke="#120071" stroke-linecap="round" stroke-linejoin="round"/>
<path d="M58.7255 99.207C56.9974 100.189 55.1564 100.957 53.2431 101.496C49.6899 102.483 50.5009 103.477 53.7913 103.121C54.6799 103.022 55.454 102.912 56.0977 102.8C57.9638 102.466 59.8354 102.164 61.7115 101.893C64.564 101.424 67.376 100.735 70.1223 99.8329" stroke="#120071" stroke-linecap="round" stroke-linejoin="round"/>
<path d="M56.2695 93.645C56.8367 96.8201 58.16 98.7484 60.4276 101.055" stroke="#120071" stroke-linecap="round" stroke-linejoin="round"/>
<path d="M58.8945 92.7754C59.8372 93.9917 61.0231 94.998 62.3765 95.7303C63.73 96.4625 65.2212 96.9045 66.755 97.028" stroke="#120071" stroke-linecap="round" stroke-linejoin="round"/>
<path d="M107.258 90.6688C109.302 93.7095 113.282 97.2975 113.734 101.036C118.952 102.23 125.246 102.076 128.479 99.9203C130.768 84.7784 128.252 82.1506 126.022 79.2393" stroke="#120071" stroke-linecap="round" stroke-linejoin="round"/>
<path d="M128.482 99.9033C128.482 99.9033 133.357 112.4 138.426 126.464C132.371 129.021 125.79 130.085 119.238 129.564" stroke="#120071" stroke-linecap="round" stroke-linejoin="round"/>
<path d="M125.514 113.191L118.613 131.169C112.168 129.861 105.969 127.551 100.238 124.325C103.432 112.322 109.425 105.554 113.735 101.017" stroke="#120071" stroke-linecap="round" stroke-linejoin="round"/>
<path d="M101.826 125.195C101.217 128.785 100.838 132.409 100.691 136.047" stroke="#120071" stroke-linecap="round" stroke-linejoin="round"/>
<path d="M101.11 130.508C101.11 130.508 85.6083 127.237 79.2761 125.687C72.9439 124.137 69.7669 121.396 69.7669 121.396C60.7981 122.854 52.2524 126.24 44.7188 131.321C60.9004 135.291 64.8516 130.583 72.8673 134.062L99.9194 147.105C101.993 148.015 104.339 148.087 106.465 147.304C108.59 146.522 110.329 144.946 111.318 142.908L117.16 130.886" stroke="#120071" stroke-linecap="round" stroke-linejoin="round"/>
<path d="M136.269 127.294C137.287 132.515 137.675 137.84 137.422 143.154C137.364 144.084 137.199 145.004 136.931 145.895C134.443 154.18 125.003 175.311 125.003 175.311C122.677 182.287 127.138 188.335 122.416 201.985C117.896 194.25 114.719 185.806 113.02 177.01C112.988 176.849 115.227 173.03 116.648 169.277C117.633 166.677 123.547 144.295 123.682 143.738L120.922 129.731" stroke="#120071" stroke-linecap="round" stroke-linejoin="round"/>
<path d="M55.8527 174.329C55.5002 174.23 55.1315 174.201 54.7678 174.244C54.404 174.287 54.0523 174.401 53.7328 174.581C53.4133 174.76 53.1321 175 52.9055 175.288C52.6789 175.575 52.5112 175.905 52.412 176.258L52.1284 177.222L51.1643 176.938C50.4518 176.738 49.689 176.829 49.0436 177.191C48.3981 177.553 47.9226 178.156 47.7216 178.869C47.521 179.581 47.6117 180.344 47.9737 180.99C48.3357 181.635 48.9394 182.111 49.6519 182.311L55.985 184.102L57.776 177.77C57.976 177.059 57.8858 176.297 57.5253 175.652C57.1648 175.007 56.5633 174.532 55.8527 174.329Z" stroke="#120071" stroke-linecap="round" stroke-linejoin="round"/>
<path d="M176.724 82.5902C176.225 82.974 175.593 83.1438 174.969 83.0623C174.345 82.9807 173.778 82.6545 173.394 82.1553C173.011 81.6562 172.841 81.025 172.922 80.4007C173.004 79.7763 173.33 79.2099 173.829 78.8261C174.076 78.636 174.359 78.4965 174.66 78.4155C174.961 78.3345 175.275 78.3136 175.584 78.354C175.893 78.3944 176.191 78.4952 176.461 78.6508C176.732 78.8064 176.968 79.0137 177.159 79.2609C177.349 79.5081 177.488 79.7902 177.569 80.0913C177.65 80.3924 177.671 80.7064 177.631 81.0156C177.59 81.3247 177.489 81.6229 177.334 81.8931C177.178 82.1632 176.971 82.4001 176.724 82.5902Z" stroke="#120071" stroke-linecap="round" stroke-linejoin="round"/>
<path d="M25.397 110.948C23.2294 110.822 21.0741 111.35 19.2104 112.464C17.3467 113.578 15.8606 115.226 14.9448 117.195C14.0289 119.163 13.7256 121.361 14.0741 123.504C14.4226 125.647 15.4069 127.636 16.8993 129.213C18.3917 130.79 20.3234 131.882 22.444 132.348C24.5646 132.814 26.7762 132.632 28.7922 131.826C30.8082 131.02 32.5355 129.627 33.7502 127.827C34.9649 126.028 35.611 123.905 35.6047 121.734C35.6019 118.973 34.543 116.317 32.645 114.312C30.747 112.306 28.1538 111.103 25.397 110.948Z" stroke="#120071" stroke-linecap="round" stroke-linejoin="round"/>
<path d="M70.1105 99.8379C69.3921 100.084 68.618 100.329 67.7852 100.556C68.9006 101.936 69.7891 101.558 70.1105 99.8379Z" stroke="#120071" stroke-linecap="round" stroke-linejoin="round"/>
<path d="M112.09 70.6572L115.152 72.3209" stroke="#120071" stroke-linecap="round" stroke-linejoin="round"/>
<path d="M112.09 70.6575C112.09 70.6575 121.088 70.6764 113.394 61.9234C108.178 55.9683 106.853 62.1721 107.861 65.0636C108.094 65.7322 107.983 66.0586 106.834 65.6666C104.735 64.9701 104.452 68.2755 108.082 68.6725C108.369 68.8346 108.615 69.0605 108.8 69.3341C111.089 73.0763 110.936 75.1937 106.758 76.9329C95.4919 81.6025 85.5857 84.0969 66.1523 87.8978C67.6807 87.5496 69.2259 92.0828 69.6139 93.629C70.0508 95.3693 70.9074 100.942 69.1771 101.376C83.0912 98.8618 98.3655 95.1763 110.88 88.9754L109.555 93.645" stroke="#120071" stroke-linecap="round" stroke-linejoin="round"/>
<path d="M116.82 104.306C116.82 104.306 115.228 106.839 111.035 106.839" stroke="#120071" stroke-linecap="round" stroke-linejoin="round"/>
<path d="M49.4414 62.3013L53.6572 71.4513" stroke="#120071" stroke-linecap="round" stroke-linejoin="round"/>
<path d="M56.1155 64.7778L46.9844 68.9936" stroke="#120071" stroke-linecap="round" stroke-linejoin="round"/>
<path d="M131.297 29.313L132.621 32.2055C132.621 32.2055 125.419 36.875 123.793 32.7537C126.893 40.5993 134.606 36.5725 134.606 36.5725L136.023 39.6918L138.746 32.1686L131.297 29.313Z" stroke="#120071" stroke-linecap="round" stroke-linejoin="round"/>
<path d="M142.243 43.1884C140.525 45.3589 138.203 46.9712 135.568 47.8215C132.934 48.6718 130.107 48.7219 127.444 47.9654C124.781 47.2089 122.403 45.6797 120.609 43.5714C118.816 41.4631 117.687 38.8702 117.367 36.1207C117.047 33.3712 117.55 30.5885 118.811 28.1246C120.073 25.6606 122.036 23.6261 124.454 22.2782C126.872 20.9303 129.635 20.3296 132.394 20.5521C135.153 20.7746 137.784 21.8103 139.955 23.5282C141.397 24.6678 142.601 26.0806 143.497 27.6858C144.394 29.291 144.965 31.0571 145.178 32.8832C145.39 34.7094 145.24 36.5595 144.736 38.3278C144.233 40.096 143.386 41.7477 142.243 43.1884Z" stroke="#120071" stroke-linecap="round" stroke-linejoin="round"/>
<path d="M162.583 184.894C162.899 184.87 163.216 184.94 163.492 185.095C163.769 185.25 163.993 185.484 164.136 185.767C164.28 186.05 164.336 186.369 164.298 186.684C164.261 186.998 164.13 187.295 163.924 187.536C163.718 187.777 163.444 187.951 163.139 188.036C162.834 188.122 162.51 188.115 162.208 188.016C161.907 187.917 161.642 187.732 161.446 187.482C161.25 187.233 161.133 186.931 161.109 186.615C161.082 186.193 161.222 185.777 161.497 185.456C161.772 185.135 162.162 184.933 162.583 184.894Z" stroke="#120071" stroke-linecap="round" stroke-linejoin="round"/>
<path d="M166.458 178.127C166.774 178.103 167.091 178.173 167.367 178.328C167.644 178.483 167.868 178.717 168.011 179C168.155 179.283 168.211 179.602 168.173 179.917C168.136 180.231 168.005 180.528 167.799 180.769C167.593 181.009 167.32 181.184 167.014 181.269C166.709 181.355 166.385 181.348 166.084 181.249C165.782 181.15 165.517 180.965 165.321 180.715C165.125 180.466 165.008 180.164 164.984 179.848C164.957 179.425 165.096 179.009 165.372 178.688C165.647 178.367 166.037 178.166 166.458 178.127Z" stroke="#120071" stroke-linecap="round" stroke-linejoin="round"/>
<path d="M158.161 177.73C158.478 177.706 158.794 177.776 159.07 177.931C159.347 178.086 159.571 178.32 159.715 178.603C159.858 178.886 159.914 179.205 159.877 179.52C159.839 179.834 159.709 180.131 159.502 180.372C159.296 180.612 159.023 180.787 158.717 180.872C158.412 180.958 158.088 180.951 157.787 180.852C157.485 180.753 157.22 180.568 157.024 180.318C156.828 180.069 156.711 179.767 156.687 179.451C156.66 179.028 156.799 178.612 157.075 178.291C157.35 177.97 157.74 177.768 158.161 177.73Z" stroke="#120071" stroke-linecap="round" stroke-linejoin="round"/>
<path d="M159.883 179.205L165.006 179.848" stroke="#120071" stroke-linecap="round" stroke-linejoin="round"/>
<path d="M163.359 185.026L165.666 181.02" stroke="#120071" stroke-linecap="round" stroke-linejoin="round"/>
<path d="M173.284 182.211C173.285 184.083 172.8 185.923 171.877 187.551C170.955 189.18 169.626 190.542 168.021 191.504C166.415 192.467 164.588 192.997 162.717 193.043C160.845 193.089 158.994 192.649 157.343 191.766C155.693 190.884 154.299 189.589 153.297 188.007C152.296 186.426 151.722 184.612 151.63 182.742C151.539 180.873 151.933 179.012 152.775 177.34C153.617 175.668 154.877 174.243 156.434 173.203C158.216 172.013 160.31 171.378 162.453 171.378C165.324 171.383 168.077 172.525 170.108 174.556C172.138 176.587 173.28 179.339 173.284 182.211Z" stroke="#120071" stroke-linecap="round" stroke-linejoin="round"/>
<path d="M50.7531 132.512C57.399 128.395 64.5551 125.166 72.0391 122.908C71.2281 122.464 70.4564 121.952 69.7327 121.376C60.7637 122.835 52.2176 126.221 44.6836 131.302C46.6842 131.811 48.7102 132.214 50.7531 132.512Z" stroke="#120071" stroke-linecap="round" stroke-linejoin="round"/>
<path d="M114.491 174.082C113.659 175.745 112.998 176.917 113.016 177.012C114.675 185.819 117.854 194.27 122.412 201.986C123.015 200.255 123.507 198.487 123.886 196.693C121.164 191.435 116.287 178.827 114.491 174.082Z" stroke="#120071" stroke-linecap="round" stroke-linejoin="round"/>
</g>
<defs>
<clipPath id="clip0_344_782">
<rect width="200" height="200" rx="5" fill="white"/>
</clipPath>
</defs>
</svg>
