<svg width="200" height="200" viewBox="0 0 200 200" fill="none" xmlns="http://www.w3.org/2000/svg">
<g clip-path="url(#clip0_344_867)">
<path d="M197.961 155.483C192.968 147.048 183.857 135.968 174.406 133.44L171.759 139.754C171.586 140.143 171.292 140.466 170.921 140.673C170.549 140.881 170.12 140.964 169.698 140.907L162.458 139.886C162.165 139.845 161.887 139.738 161.641 139.574C161.395 139.41 161.19 139.193 161.039 138.939C160.889 138.685 160.797 138.401 160.771 138.106C160.744 137.813 160.785 137.516 160.889 137.24L162.458 132.589C157.424 133.867 149.886 130.112 145.386 127.485L153.251 109.057C151.742 107.309 149.865 105.917 147.753 104.982C145.641 104.047 143.348 103.592 141.039 103.651L131.833 123.898C130.682 126.436 130.486 129.305 131.282 131.975C132.077 134.646 133.811 136.94 136.162 138.436C141.689 142.043 147.786 144.689 154.196 146.262C154.08 151.62 155.246 156.929 157.599 161.745C163.391 163.313 169.492 163.333 175.294 161.801C174.94 158.382 176.464 153.997 177.695 150.781L184.917 158.436L169.892 171.424C170.39 176.477 174.412 180.777 179.08 182.238L195.796 168.153C197.595 166.637 198.8 164.534 199.196 162.214C199.592 159.895 199.155 157.511 197.961 155.483Z" fill="#FECFC4"/>
<path d="M33.8109 85.8936C32.7932 86.4781 31.6987 86.9172 30.5592 87.1981C20.1426 89.8259 14.5278 103.456 11.8482 113.306C11.1522 115.86 11.4622 118.583 12.7142 120.916C13.9663 123.248 16.0652 125.012 18.5784 125.843C25.9517 128.215 33.6219 129.539 41.3639 129.775C43.521 126.16 44.1727 121.842 43.1788 117.752C37.3072 117.243 31.4928 116.211 25.8051 114.667C26.883 111.662 28.2342 108.763 29.8418 106.005C31.2567 110.77 30.7154 108.934 32.2298 114.119C38.4685 115.14 45.8225 115.593 52.7607 113.835C53.8747 109.69 54.5401 105.437 54.7457 101.15C58.1233 103.827 61.9078 105.946 65.9553 107.426C67.5135 108.035 69.178 108.325 70.8502 108.28C72.5224 108.235 74.1686 107.854 75.6914 107.162C82.5201 104.051 86.7887 101.717 95.088 95.4974C95.1447 90.5632 92.9517 87.1224 88.4523 85.213C83.1589 89.1642 76.8824 93.2099 71.1164 95.4974C67.1203 92.5094 62.8984 89.8357 58.4889 87.5005C53.6313 85.1334 46.8056 84.3623 45.8036 84.23C42.6993 87.8716 39.759 87.6399 33.8109 85.8936Z" fill="#FECFC4"/>
<path d="M39.3673 119.223C39.1579 119.223 38.9532 119.285 38.7791 119.401C38.605 119.518 38.4693 119.683 38.3892 119.877C38.3091 120.07 38.2881 120.283 38.3289 120.489C38.3698 120.694 38.4706 120.883 38.6186 121.03C38.7667 121.178 38.9553 121.279 39.1607 121.321C39.3661 121.361 39.5789 121.341 39.7724 121.26C39.9659 121.179 40.1312 121.044 40.2476 120.87C40.3639 120.696 40.426 120.491 40.426 120.282C40.4216 120.002 40.3086 119.736 40.111 119.538C39.9134 119.341 39.6467 119.227 39.3673 119.223Z" fill="#FECFC4"/>
<path d="M24.0001 125.008C24.5847 125.008 25.0588 124.535 25.0588 123.95C25.0588 123.365 24.5847 122.891 24.0001 122.891C23.4153 122.891 22.9414 123.365 22.9414 123.95C22.9414 124.535 23.4153 125.008 24.0001 125.008Z" fill="#FECFC4"/>
<path d="M16.5118 110.848C17.0965 110.848 17.5705 110.374 17.5705 109.79C17.5705 109.205 17.0965 108.731 16.5118 108.731C15.9272 108.731 15.4531 109.205 15.4531 109.79C15.4531 110.374 15.9272 110.848 16.5118 110.848Z" fill="#FECFC4"/>
<path d="M29.2735 101.868C29.8582 101.868 30.3322 101.394 30.3322 100.81C30.3322 100.225 29.8582 99.751 29.2735 99.751C28.6889 99.751 28.2148 100.225 28.2148 100.81C28.2148 101.394 28.6889 101.868 29.2735 101.868Z" fill="#FECFC4"/>
<path d="M34.1525 87.4438C33.943 87.4438 33.7383 87.5059 33.5643 87.6223C33.3902 87.7386 33.2545 87.9039 33.1744 88.0974C33.0942 88.2908 33.0733 88.5037 33.1141 88.7091C33.155 88.9145 33.2558 89.103 33.4038 89.2511C33.5519 89.3991 33.7405 89.5 33.9459 89.5408C34.1513 89.5817 34.3641 89.5607 34.5576 89.4806C34.751 89.4005 34.9163 89.2648 35.0327 89.0907C35.149 88.9165 35.2111 88.7119 35.2111 88.5025C35.2068 88.2231 35.0938 87.9564 34.8962 87.7588C34.6986 87.5612 34.4318 87.4482 34.1525 87.4438Z" fill="#FECFC4"/>
<path d="M44.7579 98.0688C44.5485 98.0688 44.3438 98.1309 44.1697 98.2472C43.9957 98.3636 43.8599 98.5289 43.7798 98.7224C43.6996 98.9158 43.6787 99.1287 43.7195 99.3341C43.7604 99.5395 43.8612 99.7281 44.0093 99.8762C44.1573 100.024 44.346 100.125 44.5514 100.166C44.7567 100.207 44.9696 100.186 45.1631 100.106C45.3565 100.026 45.5218 99.8898 45.6382 99.7157C45.7545 99.5415 45.8166 99.3369 45.8166 99.1275C45.8122 98.8481 45.6993 98.5814 45.5017 98.3838C45.3041 98.1862 45.0373 98.0732 44.7579 98.0688Z" fill="#FECFC4"/>
<path d="M36.1564 107.672C35.9469 107.672 35.7422 107.734 35.5682 107.851C35.3941 107.967 35.2584 108.132 35.1783 108.326C35.0981 108.519 35.0772 108.732 35.118 108.938C35.1589 109.143 35.2597 109.332 35.4077 109.48C35.5558 109.628 35.7444 109.729 35.9498 109.769C36.1552 109.81 36.368 109.789 36.5615 109.709C36.755 109.629 36.9203 109.493 37.0366 109.319C37.153 109.145 37.215 108.94 37.215 108.731C37.2152 108.592 37.1881 108.454 37.1349 108.326C37.0819 108.197 37.0039 108.08 36.9055 107.982C36.8072 107.884 36.6904 107.806 36.5618 107.752C36.4333 107.699 36.2955 107.672 36.1564 107.672Z" fill="#FECFC4"/>
<path d="M60.2384 101.868C60.823 101.868 61.2971 101.394 61.2971 100.81C61.2971 100.225 60.823 99.751 60.2384 99.751C59.6536 99.751 59.1797 100.225 59.1797 100.81C59.1797 101.394 59.6536 101.868 60.2384 101.868Z" fill="#FECFC4"/>
<path d="M70.4298 96.8188C70.2204 96.8188 70.0157 96.8809 69.8416 96.9973C69.6675 97.1136 69.5318 97.2789 69.4517 97.4724C69.3716 97.6658 69.3506 97.8787 69.3914 98.0841C69.4323 98.2895 69.5331 98.478 69.6811 98.6261C69.8292 98.7742 70.0178 98.875 70.2232 98.9158C70.4286 98.9567 70.6415 98.9357 70.8349 98.8556C71.0284 98.7755 71.1937 98.6398 71.31 98.4657C71.4264 98.2916 71.4885 98.0869 71.4885 97.8775C71.4841 97.5981 71.3711 97.3314 71.1735 97.1338C70.9759 96.9362 70.7092 96.8232 70.4298 96.8188Z" fill="#FECFC4"/>
<path d="M83.2657 101.245C83.8504 101.245 84.3244 100.771 84.3244 100.186C84.3244 99.6015 83.8504 99.1274 83.2657 99.1274C82.681 99.1274 82.207 99.6015 82.207 100.186C82.207 100.771 82.681 101.245 83.2657 101.245Z" fill="#FECFC4"/>
<path d="M88.879 89.8449C89.4637 89.8449 89.9377 89.3709 89.9377 88.7862C89.9377 88.2016 89.4637 87.7275 88.879 87.7275C88.2942 87.7275 87.8203 88.2016 87.8203 88.7862C87.8203 89.3709 88.2942 89.8449 88.879 89.8449Z" fill="#FECFC4"/>
<path d="M49.9376 109.771C49.7282 109.771 49.5235 109.833 49.3494 109.949C49.1753 110.066 49.0396 110.231 48.9595 110.425C48.8793 110.618 48.8584 110.831 48.8992 111.036C48.9401 111.242 49.0409 111.43 49.189 111.578C49.337 111.726 49.5257 111.827 49.731 111.868C49.9364 111.909 50.1492 111.888 50.3427 111.808C50.5362 111.728 50.7015 111.592 50.8178 111.418C50.9342 111.244 50.9963 111.039 50.9963 110.83C50.9919 110.55 50.879 110.284 50.6814 110.086C50.4838 109.888 50.217 109.775 49.9376 109.771Z" fill="#FECFC4"/>
<path d="M52.0352 89.1833C52.6199 89.1833 53.0939 88.7093 53.0939 88.1246C53.0939 87.5399 52.6199 87.0659 52.0352 87.0659C51.4505 87.0659 50.9766 87.5399 50.9766 88.1246C50.9766 88.7093 51.4505 89.1833 52.0352 89.1833Z" fill="#FECFC4"/>
<path fill-rule="evenodd" clip-rule="evenodd" d="M94.3828 41.2979L96.1977 36.515C95.0274 34.8757 94.3934 32.9143 94.3828 30.9002C94.3828 25.1531 99.4872 20.5024 105.783 20.5024C112.078 20.5024 117.163 25.1531 117.163 30.9002C117.163 36.6473 112.059 41.2979 105.764 41.2979C103.415 41.3106 101.114 40.6336 99.1469 39.3507L94.3828 41.2979ZM101.833 31.5196C101.955 31.3362 102.02 31.1207 102.02 30.9002C102.02 30.604 101.902 30.3202 101.692 30.1111C101.482 29.9019 101.198 29.7845 100.902 29.7848C100.682 29.7854 100.466 29.8514 100.283 29.9742C100.1 30.0971 99.9576 30.2716 99.8737 30.4754C99.7897 30.6793 99.768 30.9035 99.8114 31.1196C99.8548 31.3358 99.9613 31.5343 100.117 31.6899C100.274 31.8456 100.472 31.9516 100.689 31.9944C100.905 32.0372 101.129 32.0149 101.333 31.9304C101.536 31.8459 101.71 31.703 101.833 31.5196ZM106.879 30.9002C106.879 31.1208 106.813 31.3365 106.691 31.5199C106.569 31.7034 106.394 31.8462 106.19 31.9307C105.987 32.0151 105.763 32.0372 105.546 31.9942C105.33 31.9511 105.131 31.8449 104.975 31.6889C104.819 31.5329 104.713 31.3342 104.67 31.1178C104.627 30.9015 104.649 30.6772 104.733 30.4733C104.818 30.2696 104.96 30.0953 105.144 29.9728C105.327 29.8503 105.543 29.7848 105.764 29.7848C106.059 29.7853 106.343 29.903 106.552 30.1121C106.761 30.3211 106.878 30.6046 106.879 30.9002ZM111.568 31.5199C111.691 31.3365 111.757 31.1208 111.757 30.9002C111.756 30.6046 111.638 30.3211 111.429 30.1121C111.22 29.903 110.937 29.7853 110.641 29.7848C110.42 29.7848 110.205 29.8503 110.021 29.9728C109.838 30.0953 109.695 30.2696 109.61 30.4733C109.526 30.6772 109.504 30.9015 109.548 31.1178C109.59 31.3342 109.697 31.5329 109.852 31.6889C110.008 31.8449 110.207 31.9511 110.423 31.9942C110.64 32.0372 110.864 32.0151 111.068 31.9307C111.272 31.8462 111.446 31.7034 111.568 31.5199Z" fill="#FECFC4"/>
<path d="M168.902 85.8941C168.902 86.2904 168.785 86.6778 168.565 87.0074C168.344 87.3369 168.032 87.5938 167.665 87.7455C167.299 87.8971 166.896 87.9368 166.507 87.8595C166.118 87.7822 165.762 87.5913 165.481 87.311C165.201 87.0308 165.01 86.6737 164.933 86.285C164.856 85.8962 164.895 85.4934 165.047 85.1272C165.199 84.7611 165.456 84.448 165.785 84.2278C166.114 84.0076 166.502 83.8901 166.898 83.8901C167.43 83.8904 167.939 84.1016 168.315 84.4774C168.69 84.8531 168.902 85.3626 168.902 85.8941Z" fill="#FECFC4"/>
<path d="M92.9647 197.565L75.4398 197.115C75.286 197.101 75.131 197.124 74.9877 197.181C74.8445 197.239 74.7169 197.331 74.6155 197.447C74.514 197.564 74.4416 197.702 74.4042 197.852C74.3668 198.001 74.3653 198.159 74.4 198.309L75.196 201.56C78.8003 201.644 82.4062 201.493 85.9908 201.107C82.7063 202.451 79.2914 203.451 75.801 204.092L77.4268 208.818C77.4621 208.967 77.5329 209.107 77.6331 209.223C77.7333 209.34 77.8601 209.431 78.0027 209.489C78.1454 209.545 78.2998 209.568 78.4528 209.553C78.606 209.538 78.7533 209.488 78.8825 209.404C84.1833 206.781 89.0691 203.392 93.3826 199.347C93.5542 199.24 93.688 199.082 93.7651 198.895C93.8423 198.709 93.859 198.503 93.8129 198.306C93.7668 198.109 93.6601 197.932 93.508 197.798C93.3558 197.666 93.1658 197.583 92.9647 197.565Z" fill="#FECFC4"/>
<path d="M127.917 54.606H79.3692C77.8595 54.6053 76.3644 54.9022 74.9696 55.4797C73.5747 56.0572 72.3072 56.9038 71.2398 57.9714C70.1723 59.039 69.3257 60.3065 68.7483 61.7014C68.171 63.0964 67.8742 64.5915 67.875 66.1012V73.908H72.9774V67.2156C72.983 66.1587 73.2005 65.1138 73.617 64.1424C74.0334 63.171 74.6403 62.293 75.4019 61.5602C76.1634 60.8274 77.0641 60.2547 78.0508 59.876C79.0374 59.4972 80.09 59.3201 81.1463 59.3551H126.48C127.536 59.3218 128.588 59.5 129.574 59.8794C130.56 60.2588 131.459 60.8316 132.221 61.564C132.982 62.2965 133.589 63.1739 134.006 64.1445C134.422 65.1151 134.641 66.1593 134.647 67.2156V117.692L139.412 107.219V66.1012C139.413 64.5915 139.115 63.0965 138.538 61.7016C137.961 60.3067 137.114 59.0393 136.046 57.9717C134.979 56.9042 133.711 56.0575 132.317 55.48C130.922 54.9024 129.427 54.6055 127.917 54.606Z" fill="#6153BD"/>
<path d="M134.629 169.377V175.845C134.628 178.011 133.768 180.088 132.236 181.619C130.705 183.151 128.628 184.011 126.462 184.012H81.1268C78.961 184.011 76.8839 183.151 75.3525 181.619C73.821 180.088 72.9603 178.011 72.9598 175.845V124.901H67.8555V177.267C67.8554 178.776 68.1526 180.271 68.7303 181.665C69.3079 183.06 70.1546 184.326 71.222 185.393C72.2894 186.461 73.5566 187.306 74.9512 187.883C76.3458 188.46 77.8404 188.758 79.3497 188.757H127.917C129.426 188.758 130.922 188.46 132.317 187.883C133.711 187.306 134.978 186.46 136.046 185.392C137.113 184.324 137.96 183.057 138.537 181.663C139.114 180.268 139.412 178.772 139.411 177.263V169.379L134.629 169.377Z" fill="#6153BD"/>
<path d="M168.507 126.048L166.711 128.146C166.844 127.518 166.907 126.879 166.9 126.237C167.44 126.217 167.978 126.153 168.507 126.048Z" fill="#6153BD"/>
<path d="M43.1665 82.8312C42.6042 82.2173 42.2936 81.4141 42.2969 80.5815C42.7098 80.8493 43.1407 81.0884 43.5864 81.297C43.2901 81.7522 43.1433 82.2886 43.1665 82.8312Z" fill="#6153BD"/>
<path d="M31.2767 103.626L30.9513 109.771L29.8359 105.952C30.2548 105.233 30.7285 104.48 31.2767 103.626Z" fill="#6153BD"/>
<path d="M54.7366 101.15C54.841 98.9308 54.7841 96.7067 54.5664 94.4956L57.1534 102.927C56.3813 102.398 55.5684 101.812 54.7366 101.15Z" fill="#6153BD"/>
<path d="M47.6674 65.8742C47.6367 65.5549 47.5002 65.2552 47.2796 65.0223C47.0589 64.7895 46.7668 64.6371 46.4496 64.5893C46.1324 64.5415 45.8085 64.601 45.529 64.7585C45.2496 64.916 45.0308 65.1623 44.9073 65.4583H44.7182C44.6213 65.1511 44.4245 64.8851 44.159 64.7025C43.8937 64.52 43.5748 64.4314 43.2533 64.4509C42.9317 64.4703 42.6258 64.5967 42.3844 64.8099C42.1429 65.023 41.9795 65.3109 41.9203 65.6275H41.8447C41.7516 65.2672 41.5229 64.9567 41.2063 64.7612C40.8898 64.5657 40.5098 64.5001 40.1459 64.5783C39.7821 64.6564 39.4626 64.8722 39.2542 65.1805C39.0458 65.4888 38.9647 65.8657 39.0278 66.2324C38.922 65.9064 38.7035 65.6287 38.4115 65.449C38.1196 65.2692 37.7732 65.1992 37.4344 65.2516C37.0956 65.3038 36.7865 65.475 36.5623 65.7343C36.3381 65.9937 36.2137 66.3245 36.211 66.6673C36.2099 66.8078 36.229 66.9479 36.2677 67.0832C37.0123 69.3248 37.6432 71.6027 38.1582 73.9079C38.7821 76.9327 39.1034 80.1843 38.1582 81.8679C40.0298 79.1266 40.5024 76.3665 40.1999 76.064C37.2886 73.1915 39.8596 70.506 41.2019 72.5666C41.8447 73.5497 42.2228 73.5497 42.4307 72.9835C43.3004 70.0333 47.4406 65.9509 48.8982 72.1696L47.6674 65.8742Z" fill="#6153BD"/>
<path d="M171.04 82.491C171.033 82.6695 170.958 82.8384 170.829 82.9622C170.701 83.0861 170.529 83.1553 170.351 83.1553C170.172 83.1553 169.999 83.0861 169.871 82.9622C169.743 82.8384 169.667 82.6695 169.66 82.491C169.667 82.3125 169.743 82.1437 169.871 82.0198C169.999 81.8959 170.172 81.8267 170.351 81.8267C170.529 81.8267 170.701 81.8959 170.829 82.0198C170.958 82.1437 171.033 82.3125 171.04 82.491Z" fill="#6153BD"/>
<path d="M178.45 121.643C178.775 120.581 178.966 119.482 179.017 118.372C179.244 111.507 172.268 109.922 167.391 113.949C170.056 112.247 171.588 116.406 171.323 118.959C171.323 119.408 171.476 119.828 172.627 119.058C174.65 117.659 175.992 121.119 172.211 122.669C171.493 122.952 170.719 126.507 171.606 130.893C171.947 132.631 172.76 132.883 174.404 133.407C178.928 134.726 183.447 137.912 186.712 141.007C195.351 124.101 178.431 121.643 178.45 121.643Z" fill="#6153BD"/>
<path d="M171.04 82.491C171.033 82.6695 170.958 82.8384 170.829 82.9622C170.701 83.0861 170.529 83.1553 170.351 83.1553C170.172 83.1553 169.999 83.0861 169.871 82.9622C169.743 82.8384 169.667 82.6695 169.66 82.491C169.667 82.3125 169.743 82.1437 169.871 82.0198C169.999 81.8959 170.172 81.8267 170.351 81.8267C170.529 81.8267 170.701 81.8959 170.829 82.0198C170.958 82.1437 171.033 82.3125 171.04 82.491Z" stroke="#120071"/>
<path d="M157.6 161.74L154.48 169.377" stroke="#120071" stroke-linecap="round" stroke-linejoin="round"/>
<path d="M72.9805 73.9082V67.1979C72.9854 66.1407 73.2025 65.0951 73.6186 64.1232C74.0347 63.1513 74.6415 62.2726 75.4032 61.5393C76.1648 60.806 77.0657 60.2328 78.0527 59.8537C79.0397 59.4748 80.0927 59.2974 81.1494 59.3325H126.484C127.539 59.2991 128.592 59.4775 129.578 59.8572C130.564 60.2368 131.465 60.8101 132.226 61.5432C132.987 62.2762 133.593 63.1542 134.01 64.1253C134.427 65.0965 134.645 66.1412 134.651 67.1979V117.692" stroke="#120071" stroke-linecap="round" stroke-linejoin="round"/>
<path d="M139.409 107.2V66.0825C139.408 64.5728 139.11 63.0781 138.532 61.6837C137.953 60.2893 137.105 59.0226 136.038 57.956C134.969 56.8894 133.701 56.0437 132.306 55.4674C130.911 54.891 129.415 54.5954 127.906 54.5972H79.3536C77.8434 54.5976 76.3481 54.8955 74.9531 55.4739C73.558 56.0523 72.2907 56.8998 71.2233 57.9681C70.1559 59.0365 69.3094 60.3046 68.7323 61.7001C68.1551 63.0957 67.8585 64.5912 67.8594 66.1014V73.9081" stroke="#120071" stroke-linecap="round" stroke-linejoin="round"/>
<path d="M164.083 118.392H149.262" stroke="#120071" stroke-linecap="round" stroke-linejoin="round"/>
<path d="M179 118.381H188.509C189.082 118.38 189.649 118.493 190.179 118.712C190.709 118.93 191.19 119.251 191.596 119.656C192.002 120.06 192.323 120.541 192.543 121.07C192.763 121.599 192.876 122.166 192.876 122.739V147.789" stroke="#120071" stroke-linecap="round" stroke-linejoin="round"/>
<path d="M134.334 118.392H131.399L118.812 114.516L122.82 126.804V165.012C122.821 166.171 123.281 167.281 124.1 168.1C124.919 168.919 126.029 169.378 127.187 169.379H172.214" stroke="#120071" stroke-linecap="round" stroke-linejoin="round"/>
<path d="M84.9091 87.7646V78.2753C84.9086 77.1172 84.4484 76.0068 83.6295 75.1879C82.8106 74.369 81.7002 73.9087 80.5421 73.9082H49.1797" stroke="#120071" stroke-linecap="round" stroke-linejoin="round"/>
<path d="M134.648 169.377V175.845C134.647 178.011 133.787 180.088 132.255 181.619C130.724 183.151 128.647 184.011 126.481 184.012H81.1279C78.962 184.011 76.885 183.151 75.3535 181.619C73.8221 180.088 72.9614 178.011 72.9609 175.845V124.901" stroke="#120071" stroke-linecap="round" stroke-linejoin="round"/>
<path d="M67.8594 124.895V177.261C67.8585 178.77 68.1551 180.266 68.7324 181.661C69.3097 183.056 70.1562 184.323 71.2238 185.391C72.2913 186.459 73.5587 187.305 74.9537 187.883C76.3487 188.461 77.8438 188.758 79.3536 188.757H127.921C129.43 188.758 130.925 188.461 132.32 187.883C133.714 187.306 134.982 186.46 136.05 185.392C137.117 184.324 137.964 183.057 138.541 181.663C139.118 180.268 139.416 178.772 139.415 177.263V169.379" stroke="#120071" stroke-linecap="round" stroke-linejoin="round"/>
<path d="M38.12 73.9082H19.1961C18.0385 73.9095 16.9289 74.3702 16.1106 75.189C15.2924 76.0078 14.8326 77.1178 14.832 78.2753V104.444" stroke="#120071" stroke-linecap="round" stroke-linejoin="round"/>
<path d="M62.4141 124.895H76.3271L88.899 128.751L84.91 116.482V102.455" stroke="#120071" stroke-linecap="round" stroke-linejoin="round"/>
<path d="M106.14 188.757C102.28 193.01 97.5973 196.437 92.3749 198.828C87.1525 201.22 81.4991 202.528 75.7569 202.672C70.0146 202.816 64.3028 201.794 58.9669 199.667C53.6312 197.541 48.7822 194.354 44.7136 190.299C40.6448 186.244 37.4409 181.406 35.2957 176.077C33.1504 170.749 32.1084 165.041 32.2326 159.298C32.3569 153.556 33.6447 147.898 36.0184 142.667C38.392 137.437 41.8022 132.741 46.0424 128.867" stroke="#120071" stroke-linecap="round" stroke-linejoin="round"/>
<path d="M92.9647 197.565L75.4398 197.115C75.286 197.101 75.131 197.124 74.9877 197.181C74.8445 197.239 74.7169 197.331 74.6155 197.447C74.514 197.564 74.4416 197.702 74.4042 197.852C74.3668 198.001 74.3653 198.159 74.4 198.309L75.196 201.56C78.8003 201.644 82.4062 201.493 85.9908 201.107C82.7063 202.451 79.2914 203.451 75.801 204.092L77.4268 208.818C77.4621 208.967 77.5329 209.107 77.6331 209.223C77.7333 209.34 77.8601 209.431 78.0027 209.489C78.1454 209.545 78.2998 209.568 78.4528 209.553C78.606 209.538 78.7533 209.488 78.8825 209.404C84.1833 206.781 89.0691 203.392 93.3826 199.347C93.5542 199.24 93.688 199.082 93.7651 198.895C93.8423 198.709 93.859 198.503 93.8129 198.306C93.7668 198.109 93.6601 197.932 93.508 197.798C93.3558 197.666 93.1658 197.583 92.9647 197.565Z" stroke="#120071" stroke-linecap="round" stroke-linejoin="round"/>
<path d="M166.9 126.218C167.439 126.208 167.978 126.15 168.507 126.048L166.711 128.127" stroke="#120071" stroke-linecap="round" stroke-linejoin="round"/>
<path d="M154.196 146.22C147.768 144.719 141.661 142.082 136.161 138.431C133.81 136.936 132.078 134.641 131.282 131.971C130.487 129.3 130.682 126.431 131.832 123.893L141.038 103.628C145.828 103.951 149.704 104.888 153.25 109.034L145.39 127.485C148.925 129.546 153.292 131.722 157.338 132.514C162.886 133.599 166.904 131.865 166.904 126.218C164.389 126.294 160.23 125.368 164.579 117.446C168.927 109.525 171.819 115.655 171.46 118.997C171.479 119.583 171.781 119.734 172.764 119.053C174.787 117.653 176.139 121.143 172.349 122.664C171.632 122.953 170.856 126.503 171.744 130.888C172.421 134.215 174.751 132.115 181.612 136.858C189.233 142.131 194.739 149.765 198.097 155.441C199.298 157.467 199.741 159.855 199.346 162.179C198.951 164.501 197.745 166.609 195.942 168.126L179.098 182.229C176.694 181.489 174.549 180.079 172.92 178.163C171.289 176.248 170.238 173.907 169.891 171.415L184.915 158.428L176.068 149.033" stroke="#120071" stroke-linecap="round" stroke-linejoin="round"/>
<path d="M43.1704 82.8312C42.6081 82.2173 42.2975 81.4141 42.3008 80.5815C42.7137 80.8493 43.1446 81.0884 43.5903 81.297" stroke="#120071" stroke-linecap="round" stroke-linejoin="round"/>
<path d="M42.4142 72.9819C43.2838 70.0328 47.4429 65.9493 48.8817 72.169L49.2031 74.173C50.2051 83.327 45.8569 82.3588 43.5883 81.3001C43.5883 81.3001 42.0023 83.6454 44.9067 84.1319C45.3723 84.2095 45.6887 84.2165 45.8022 84.2314C43.5336 87.5587 39.3347 87.7666 33.8164 85.8951C38.9476 82.9877 40.7943 76.7082 40.1685 76.0834C37.283 73.2058 39.8262 70.5263 41.1705 72.5859C41.8122 73.57 42.1535 73.5501 42.3993 73.0207L42.4142 72.9819Z" stroke="#120071" stroke-linecap="round" stroke-linejoin="round"/>
<path d="M29.832 106.005C30.2668 105.268 30.7484 104.478 31.2778 103.627L30.9524 109.79" stroke="#120071" stroke-linecap="round" stroke-linejoin="round"/>
<path d="M54.7405 101.15C54.8449 98.9308 54.788 96.7067 54.5703 94.4956L57.1573 102.927" stroke="#120071" stroke-linecap="round" stroke-linejoin="round"/>
<path d="M33.8109 85.8936C32.7932 86.4781 31.6987 86.9172 30.5592 87.1981C20.1426 89.8259 14.5278 103.456 11.8482 113.306C11.1522 115.86 11.4622 118.583 12.7142 120.916C13.9663 123.248 16.0652 125.012 18.5784 125.843C25.9517 128.215 33.6219 129.539 41.3639 129.775C43.521 126.16 44.1727 121.842 43.1788 117.752C37.3072 117.243 31.4928 116.211 25.8051 114.667C26.883 111.662 28.2342 108.763 29.8418 106.005C31.2567 110.77 30.7154 108.934 32.2298 114.119C38.4685 115.14 45.8225 115.593 52.7607 113.835C53.8747 109.69 54.5401 105.437 54.7457 101.15C58.1233 103.827 61.9078 105.946 65.9553 107.426C67.5135 108.035 69.178 108.325 70.8502 108.28C72.5224 108.235 74.1686 107.854 75.6914 107.162C82.5201 104.051 86.7887 101.717 95.088 95.4974C95.1447 90.5632 92.9517 87.1224 88.4523 85.213C83.1589 89.1642 76.8824 93.2099 71.1164 95.4974C67.1203 92.5094 62.8984 89.8357 58.4889 87.5005C53.6313 85.1334 46.8056 84.3623 45.8036 84.23" stroke="#120071" stroke-linecap="round" stroke-linejoin="round"/>
<path d="M147.012 94.8048C147.091 94.5784 147.225 94.374 147.399 94.2084C147.573 94.043 147.784 93.9211 148.014 93.8526C149.015 93.588 150.489 95.6864 150.017 98.3898C149.773 99.8575 148.741 100.52 148.154 98.3072" stroke="#120071" stroke-linecap="round" stroke-linejoin="round"/>
<path d="M149.055 94.3064C149.222 94.1408 149.431 94.0233 149.66 93.9662C150.664 93.7085 152.193 95.2328 151.834 97.974C151.647 99.3979 150.791 99.7451 150.077 97.985" stroke="#120071" stroke-linecap="round" stroke-linejoin="round"/>
<path d="M142.059 103.685C144.308 99.6389 144.136 98.5046 144.724 96.5763C145.007 95.65 145.403 94.8331 146.217 94.6291C147.212 94.3784 148.478 96.0649 148.107 98.7086C147.954 99.8031 146.482 99.5782 146.217 96.7992" stroke="#120071" stroke-linecap="round" stroke-linejoin="round"/>
<path d="M152.569 108.297C153.287 106.727 158.299 97.5744 157.73 97.3127C157.108 97.0261 153.722 100.035 153.722 100.035C153.722 100.035 149.752 100.583 150.017 103.12" stroke="#120071" stroke-linecap="round" stroke-linejoin="round"/>
<path d="M153.704 100.035C155.367 93.4372 154.102 87.896 153.76 88.8811C153.116 90.7517 152.324 95.7466 151.832 97.9555" stroke="#120071" stroke-linecap="round" stroke-linejoin="round"/>
<path d="M145.312 97.9554C145.69 97.8538 146.091 97.8779 146.453 98.024" stroke="#120071" stroke-linecap="round" stroke-linejoin="round"/>
<path d="M90.75 86.4044C94.3798 85.4781 112.755 87.9168 111.961 89.7128C107.405 90.4093 100.567 89.7208 96.6295 91.9814C96.3648 92.1336 95.4355 92.7774 94.928 93.1346" stroke="#120071" stroke-linecap="round" stroke-linejoin="round"/>
<path d="M91.2617 86.3099C98.3322 84.6463 106.159 75.3828 99.5799 84.7597C98.9561 85.7995 98.6536 86.3855 99.5421 86.5935" stroke="#120071" stroke-linecap="round" stroke-linejoin="round"/>
<path d="M96.8945 91.8299C100.486 90.412 119.335 95.1571 106.253 90.1284" stroke="#120071" stroke-linecap="round" stroke-linejoin="round"/>
<path d="M96.9141 91.8111C98.4066 91.0151 112.7 96.7861 105.138 92.019" stroke="#120071" stroke-linecap="round" stroke-linejoin="round"/>
<path d="M53.043 124.895C55.9543 126.487 56.9772 129.341 55.9921 130.113C55.4926 130.373 54.9226 130.466 54.3663 130.377" stroke="#120071" stroke-linecap="round" stroke-linejoin="round"/>
<path d="M54.1367 123.212C57.0481 124.804 58.066 127.651 57.0859 128.43C56.8508 128.581 56.5869 128.684 56.3108 128.729" stroke="#120071" stroke-linecap="round" stroke-linejoin="round"/>
<path d="M41.75 129.092C45.0654 128.496 48.483 128.883 51.5806 130.207" stroke="#120071" stroke-linecap="round" stroke-linejoin="round"/>
<path d="M51.3915 126.54C54.1516 128.165 54.885 130.449 53.9626 131.285C52.881 132.263 49.2552 131.757 48.2344 129.167" stroke="#120071" stroke-linecap="round" stroke-linejoin="round"/>
<path d="M43.2617 118.354C45.7194 118.278 55.2117 118.713 55.2475 119.431C55.2883 120.263 53.0356 120.736 53.0356 120.736" stroke="#120071" stroke-linecap="round" stroke-linejoin="round"/>
<path d="M43.2812 118.373C46.3685 118.595 49.4033 119.291 52.28 120.433C52.28 120.433 60.0729 123.418 63.6031 124.195C64.7772 124.453 61.4141 125.84 55.6073 124.271" stroke="#120071" stroke-linecap="round" stroke-linejoin="round"/>
<path d="M32.2225 114.119C31.496 114.553 30.8552 115.117 30.332 115.783" stroke="#120071" stroke-linecap="round" stroke-linejoin="round"/>
<path d="M52.7539 113.835L53.4534 118.902" stroke="#120071" stroke-linecap="round" stroke-linejoin="round"/>
<path d="M177.582 150.661C176.315 153.913 174.803 158.658 175.293 161.796C169.491 163.328 163.39 163.308 157.598 161.74C152.588 150.642 153.647 142.666 156.861 137.263" stroke="#120071" stroke-linecap="round" stroke-linejoin="round"/>
<path d="M167.289 114.033C172.872 109.338 181.283 112.032 178.433 121.648C178.433 121.648 195.348 124.106 186.713 141.007" stroke="#120071" stroke-linecap="round" stroke-linejoin="round"/>
<path d="M175.293 161.792C176.451 162.36 177.49 163.143 178.356 164.099" stroke="#120071" stroke-linecap="round" stroke-linejoin="round"/>
<path d="M174.518 133.44L171.758 139.736C171.585 140.125 171.291 140.448 170.92 140.656C170.548 140.864 170.119 140.945 169.697 140.889L162.456 139.887C162.164 139.845 161.885 139.739 161.639 139.574C161.394 139.41 161.189 139.193 161.037 138.94C160.887 138.686 160.796 138.401 160.77 138.107C160.743 137.813 160.784 137.517 160.887 137.24L162.683 132.533" stroke="#120071" stroke-linecap="round" stroke-linejoin="round"/>
<path d="M48.8983 72.169L47.6317 65.8547C47.5851 65.533 47.4354 65.235 47.2049 65.0058C46.9745 64.7765 46.6758 64.6283 46.3539 64.5834C46.0319 64.5385 45.7041 64.5994 45.4197 64.7569C45.1353 64.9144 44.9098 65.16 44.777 65.4567C44.6647 65.1465 44.4553 64.881 44.1798 64.6995C43.9044 64.518 43.5778 64.4302 43.2484 64.4493C42.9192 64.4685 42.6049 64.5934 42.3523 64.8056C42.0997 65.0178 41.9224 65.3057 41.8468 65.6268C41.7479 65.2677 41.5155 64.96 41.1973 64.7664C40.8791 64.5727 40.4989 64.508 40.1346 64.5852C39.7702 64.6624 39.449 64.8758 39.2367 65.1819C39.0244 65.4878 38.9369 65.8634 38.9921 66.2318C38.871 65.876 38.616 65.5813 38.2812 65.4104C37.9464 65.2396 37.5581 65.2059 37.1988 65.3166C36.8396 65.4273 36.5377 65.6737 36.3572 66.0034C36.1767 66.3332 36.1318 66.7202 36.232 67.0825C36.9765 69.3242 37.6075 71.602 38.1225 73.9072C38.7374 76.8922 39.0588 80.0941 38.1613 81.7956" stroke="#120071" stroke-linecap="round" stroke-linejoin="round"/>
<path d="M102.02 30.9001C102.02 31.1206 101.954 31.3361 101.832 31.5195C101.71 31.7028 101.536 31.8458 101.332 31.9303C101.128 32.0148 100.904 32.0371 100.688 31.9943C100.472 31.9515 100.273 31.8455 100.117 31.6898C99.9607 31.5342 99.8542 31.3357 99.8109 31.1195C99.7675 30.9033 99.7892 30.6792 99.8731 30.4753C99.957 30.2714 100.1 30.097 100.283 29.9741C100.466 29.8512 100.681 29.7853 100.901 29.7847C101.198 29.7844 101.482 29.9018 101.692 30.1109C101.901 30.3201 102.019 30.6039 102.02 30.9001Z" stroke="#120071" stroke-linecap="round" stroke-linejoin="round"/>
<path d="M106.879 30.9001C106.879 31.1207 106.814 31.3364 106.691 31.5197C106.569 31.7032 106.395 31.8461 106.191 31.9306C105.987 32.015 105.763 32.0371 105.546 31.9941C105.33 31.951 105.131 31.8448 104.975 31.6888C104.819 31.5328 104.713 31.3341 104.67 31.1177C104.627 30.9014 104.649 30.6771 104.733 30.4732C104.818 30.2694 104.961 30.0952 105.144 29.9726C105.328 29.8501 105.543 29.7847 105.764 29.7847C106.059 29.7852 106.343 29.9029 106.552 30.1119C106.761 30.321 106.878 30.6044 106.879 30.9001Z" stroke="#120071" stroke-linecap="round" stroke-linejoin="round"/>
<path d="M111.754 30.9001C111.754 31.1207 111.689 31.3364 111.566 31.5197C111.444 31.7032 111.27 31.8461 111.066 31.9306C110.862 32.015 110.638 32.0371 110.421 31.9941C110.205 31.951 110.006 31.8448 109.85 31.6888C109.695 31.5328 109.588 31.3341 109.545 31.1177C109.502 30.9014 109.524 30.6771 109.608 30.4732C109.693 30.2694 109.836 30.0952 110.019 29.9726C110.203 29.8501 110.418 29.7847 110.639 29.7847C110.934 29.7852 111.218 29.9029 111.427 30.1119C111.636 30.321 111.753 30.6044 111.754 30.9001Z" stroke="#120071" stroke-linecap="round" stroke-linejoin="round"/>
<path d="M170.587 80.1846H163.195C162.089 80.1846 161.191 81.0818 161.191 82.1885V89.5804C161.191 90.6871 162.089 91.5843 163.195 91.5843H170.587C171.694 91.5843 172.591 90.6871 172.591 89.5804V82.1885C172.591 81.0818 171.694 80.1846 170.587 80.1846Z" stroke="#120071" stroke-linecap="round" stroke-linejoin="round"/>
<path d="M168.902 85.8941C168.902 86.2904 168.785 86.6778 168.565 87.0074C168.344 87.3369 168.032 87.5938 167.665 87.7455C167.299 87.8971 166.896 87.9368 166.507 87.8595C166.118 87.7822 165.762 87.5913 165.481 87.311C165.201 87.0308 165.01 86.6737 164.933 86.285C164.856 85.8962 164.895 85.4934 165.047 85.1272C165.199 84.7611 165.456 84.448 165.785 84.2278C166.114 84.0076 166.502 83.8901 166.898 83.8901C167.43 83.8904 167.939 84.1016 168.315 84.4774C168.69 84.8531 168.902 85.3626 168.902 85.8941Z" stroke="#120071" stroke-linecap="round" stroke-linejoin="round"/>
<path d="M150.699 179.075C150.699 179.401 150.603 179.719 150.422 179.989C150.242 180.259 149.985 180.47 149.685 180.595C149.384 180.719 149.053 180.752 148.734 180.688C148.415 180.625 148.121 180.468 147.892 180.239C147.662 180.009 147.506 179.715 147.442 179.396C147.378 179.077 147.411 178.746 147.535 178.446C147.66 178.145 147.871 177.888 148.141 177.708C148.411 177.527 148.729 177.431 149.055 177.431C149.491 177.431 149.909 177.604 150.218 177.912C150.525 178.221 150.699 178.64 150.699 179.075Z" stroke="#120071" stroke-linecap="round" stroke-linejoin="round"/>
<path d="M57.1289 55.439V63.6059" stroke="#120071" stroke-linecap="round" stroke-linejoin="round"/>
<path d="M61.206 59.5225H53.0391" stroke="#120071" stroke-linecap="round" stroke-linejoin="round"/>
<path d="M171.021 179.17C169.214 181.308 167.672 183.657 166.427 186.165C165.678 187.4 165.063 188.712 164.593 190.078C163.263 193.933 164.381 193.837 166.408 190.815C171.559 183.134 173.989 182.384 175.861 180.72" stroke="#120071" stroke-linecap="round" stroke-linejoin="round"/>
<path d="M165.009 188.944C163.799 189.781 162.483 190.454 161.097 190.946C160.699 191.053 160.078 190.739 162.005 189.074C162.421 188.715 164.14 187.163 164.727 186.579C165.955 185.455 167.117 184.262 168.21 183.006" stroke="#120071" stroke-linecap="round" stroke-linejoin="round"/>
<path d="M169.643 180.928C170.456 179.227 166.524 180.357 164.803 180.63C163.253 180.873 161.42 180.576 165.314 178.664C167.347 177.688 169.2 176.376 170.796 174.783" stroke="#120071" stroke-linecap="round" stroke-linejoin="round"/>
<path d="M96.1977 36.515L94.3828 41.2979L99.1469 39.3507C101.114 40.6336 103.415 41.3106 105.764 41.2979C112.059 41.2979 117.163 36.6473 117.163 30.9002C117.163 25.1531 112.078 20.5024 105.783 20.5024C99.4872 20.5024 94.3828 25.1531 94.3828 30.9002C94.3934 32.9143 95.0274 34.8757 96.1977 36.515Z" stroke="#120071" stroke-linecap="round" stroke-linejoin="round"/>
<path d="M184.918 158.431L186.355 157.316" stroke="#120071" stroke-linecap="round" stroke-linejoin="round"/>
<path d="M71.1094 95.4976L72.6218 96.5751" stroke="#120071" stroke-linecap="round" stroke-linejoin="round"/>
<path d="M25.777 114.648L25.0586 116.369" stroke="#120071" stroke-linecap="round" stroke-linejoin="round"/>
<path d="M39.3673 119.223C39.1579 119.223 38.9532 119.285 38.7791 119.401C38.605 119.518 38.4693 119.683 38.3892 119.877C38.3091 120.07 38.2881 120.283 38.3289 120.489C38.3698 120.694 38.4706 120.883 38.6186 121.03C38.7667 121.178 38.9553 121.279 39.1607 121.321C39.3661 121.361 39.5789 121.341 39.7724 121.26C39.9659 121.179 40.1312 121.044 40.2476 120.87C40.3639 120.696 40.426 120.491 40.426 120.282C40.4216 120.002 40.3086 119.736 40.111 119.538C39.9134 119.341 39.6467 119.227 39.3673 119.223Z" stroke="#120071"/>
<path d="M24.0001 125.008C24.5847 125.008 25.0588 124.535 25.0588 123.95C25.0588 123.365 24.5847 122.891 24.0001 122.891C23.4153 122.891 22.9414 123.365 22.9414 123.95C22.9414 124.535 23.4153 125.008 24.0001 125.008Z" stroke="#120071"/>
<path d="M16.5118 110.848C17.0965 110.848 17.5705 110.374 17.5705 109.79C17.5705 109.205 17.0965 108.731 16.5118 108.731C15.9272 108.731 15.4531 109.205 15.4531 109.79C15.4531 110.374 15.9272 110.848 16.5118 110.848Z" stroke="#120071"/>
<path d="M29.2735 101.868C29.8582 101.868 30.3322 101.394 30.3322 100.81C30.3322 100.225 29.8582 99.751 29.2735 99.751C28.6889 99.751 28.2148 100.225 28.2148 100.81C28.2148 101.394 28.6889 101.868 29.2735 101.868Z" stroke="#120071"/>
<path d="M34.1525 87.4438C33.943 87.4438 33.7383 87.5059 33.5643 87.6223C33.3902 87.7386 33.2545 87.9039 33.1744 88.0974C33.0942 88.2908 33.0733 88.5037 33.1141 88.7091C33.155 88.9145 33.2558 89.103 33.4038 89.2511C33.5519 89.3991 33.7405 89.5 33.9459 89.5408C34.1513 89.5817 34.3641 89.5607 34.5576 89.4806C34.751 89.4005 34.9163 89.2648 35.0327 89.0907C35.149 88.9165 35.2111 88.7119 35.2111 88.5025C35.2068 88.2231 35.0938 87.9564 34.8962 87.7588C34.6986 87.5612 34.4318 87.4482 34.1525 87.4438Z" stroke="#120071"/>
<path d="M44.7579 98.0688C44.5485 98.0688 44.3438 98.1309 44.1697 98.2472C43.9957 98.3636 43.8599 98.5289 43.7798 98.7224C43.6996 98.9158 43.6787 99.1287 43.7195 99.3341C43.7604 99.5395 43.8612 99.7281 44.0093 99.8762C44.1573 100.024 44.346 100.125 44.5514 100.166C44.7567 100.207 44.9696 100.186 45.1631 100.106C45.3565 100.026 45.5218 99.8898 45.6382 99.7157C45.7545 99.5415 45.8166 99.3369 45.8166 99.1275C45.8122 98.8481 45.6993 98.5814 45.5017 98.3838C45.3041 98.1862 45.0373 98.0732 44.7579 98.0688Z" stroke="#120071"/>
<path d="M36.1564 107.672C35.9469 107.672 35.7422 107.734 35.5682 107.851C35.3941 107.967 35.2584 108.132 35.1783 108.326C35.0981 108.519 35.0772 108.732 35.118 108.938C35.1589 109.143 35.2597 109.332 35.4077 109.48C35.5558 109.628 35.7444 109.729 35.9498 109.769C36.1552 109.81 36.368 109.789 36.5615 109.709C36.755 109.629 36.9203 109.493 37.0366 109.319C37.153 109.145 37.215 108.94 37.215 108.731C37.2152 108.592 37.1881 108.454 37.1349 108.326C37.0819 108.197 37.0039 108.08 36.9055 107.982C36.8072 107.884 36.6904 107.806 36.5618 107.752C36.4333 107.699 36.2955 107.672 36.1564 107.672Z" stroke="#120071"/>
<path d="M60.2384 101.868C60.823 101.868 61.2971 101.394 61.2971 100.81C61.2971 100.225 60.823 99.751 60.2384 99.751C59.6536 99.751 59.1797 100.225 59.1797 100.81C59.1797 101.394 59.6536 101.868 60.2384 101.868Z" stroke="#120071"/>
<path d="M70.4298 96.8188C70.2204 96.8188 70.0157 96.8809 69.8416 96.9973C69.6675 97.1136 69.5318 97.2789 69.4517 97.4724C69.3716 97.6658 69.3506 97.8787 69.3914 98.0841C69.4323 98.2895 69.5331 98.478 69.6811 98.6261C69.8292 98.7742 70.0178 98.875 70.2232 98.9158C70.4286 98.9567 70.6415 98.9357 70.8349 98.8556C71.0284 98.7755 71.1937 98.6398 71.31 98.4657C71.4264 98.2916 71.4885 98.0869 71.4885 97.8775C71.4841 97.5981 71.3711 97.3314 71.1735 97.1338C70.9759 96.9362 70.7092 96.8232 70.4298 96.8188Z" stroke="#120071"/>
<path d="M83.2657 101.245C83.8504 101.245 84.3244 100.771 84.3244 100.186C84.3244 99.6015 83.8504 99.1274 83.2657 99.1274C82.681 99.1274 82.207 99.6015 82.207 100.186C82.207 100.771 82.681 101.245 83.2657 101.245Z" stroke="#120071"/>
<path d="M88.879 89.8449C89.4637 89.8449 89.9377 89.3709 89.9377 88.7862C89.9377 88.2016 89.4637 87.7275 88.879 87.7275C88.2942 87.7275 87.8203 88.2016 87.8203 88.7862C87.8203 89.3709 88.2942 89.8449 88.879 89.8449Z" stroke="#120071"/>
<path d="M49.9376 109.771C49.7282 109.771 49.5235 109.833 49.3494 109.949C49.1753 110.066 49.0396 110.231 48.9595 110.425C48.8793 110.618 48.8584 110.831 48.8992 111.036C48.9401 111.242 49.0409 111.43 49.189 111.578C49.337 111.726 49.5257 111.827 49.731 111.868C49.9364 111.909 50.1492 111.888 50.3427 111.808C50.5362 111.728 50.7015 111.592 50.8178 111.418C50.9342 111.244 50.9963 111.039 50.9963 110.83C50.9919 110.55 50.879 110.284 50.6814 110.086C50.4838 109.888 50.217 109.775 49.9376 109.771Z" stroke="#120071"/>
<path d="M52.0352 89.1833C52.6199 89.1833 53.0939 88.7093 53.0939 88.1246C53.0939 87.5399 52.6199 87.0659 52.0352 87.0659C51.4505 87.0659 50.9766 87.5399 50.9766 88.1246C50.9766 88.7093 51.4505 89.1833 52.0352 89.1833Z" stroke="#120071"/>
</g>
<defs>
<clipPath id="clip0_344_867">
<rect width="200" height="200" fill="white"/>
</clipPath>
</defs>
</svg>
