<svg width="256" height="256" viewBox="0 0 256 256" fill="none" xmlns="http://www.w3.org/2000/svg">
<path d="M225.834 113.364C222.938 113.364 221.847 99.2638 224.745 99.0384C209.08 100.706 192.995 103.268 182.061 101.531C178.223 106.264 175.091 111.53 172.764 117.163C171.287 111.861 170.749 106.341 171.176 100.853C169.096 100.684 146.398 85.6338 136.841 80.0439C134.769 81.4457 133.004 83.2537 131.652 85.3583C130.3 87.4628 129.39 89.8201 128.977 92.2871L162.472 112.665L165.11 108.866C164.493 110.382 164.148 111.996 164.091 113.633C163.994 116.924 165.059 121.738 169.026 130.189C172.898 131.351 179.215 129.56 184.029 126.777C183.811 123.753 185.288 120.05 186.401 116.954C185.546 116.328 184.648 115.762 183.715 115.26C197.91 116.195 211.268 115.137 225.834 113.364Z" fill="#FECFC4"/>
<path d="M107.825 135.601C100.468 135.025 93.0866 134.822 85.7091 134.996C86.1697 133.428 86.4458 131.812 86.5319 130.18C80.4823 131.753 74.6262 131.801 66.8356 130.69V130.593C63.2161 132.987 60.0563 141.477 62.3258 147.718L56.0432 160.986L38.1376 149.562C32.7414 152.925 30.0311 157.233 28.0469 163.839L50.6227 179.3C52.1371 180.34 53.8545 181.046 55.6616 181.374C57.4688 181.702 59.325 181.644 61.1079 181.202C62.8908 180.761 64.5601 179.947 66.0059 178.814C67.4517 177.682 68.6412 176.255 69.4962 174.63L76.7073 160.911L67.6062 153.96C68.941 154.739 70.3742 155.335 71.8676 155.732C79.2965 157.789 90.1603 156.967 97.467 156.071C95.318 164.62 93.6382 173.279 92.435 182.011C97.0422 185.111 102.66 186.331 108.138 185.423C112.231 173.953 115.689 162.266 118.497 150.415C118.916 148.729 118.963 146.971 118.634 145.265C118.306 143.559 117.609 141.944 116.594 140.535C115.578 139.125 114.268 137.953 112.754 137.101C111.239 136.249 109.557 135.737 107.825 135.601Z" fill="#FECFC4"/>
<path d="M213.786 60.5399C213.604 60.3563 213.388 60.2106 213.148 60.1111C212.91 60.0116 212.654 59.9604 212.394 59.9604C212.136 59.9604 211.88 60.0116 211.642 60.1111C211.402 60.2106 211.186 60.3563 211.004 60.5399L210.494 61.0494L209.985 60.5399C209.615 60.171 209.115 59.9636 208.593 59.9638C208.071 59.9639 207.57 60.1714 207.201 60.5406C206.833 60.9098 206.625 61.4104 206.625 61.9325C206.625 62.4544 206.833 62.9551 207.202 63.324L210.513 66.615L213.78 63.324C213.965 63.1423 214.111 62.9259 214.212 62.6871C214.311 62.4484 214.363 62.1922 214.363 61.9333C214.365 61.6745 214.314 61.418 214.214 61.1788C214.115 60.9396 213.97 60.7226 213.786 60.5399Z" fill="#FECFC4"/>
<path d="M75.2304 202.094L71.8668 201.586L70.3665 198.561L68.8662 201.586L65.5039 202.094L67.9479 204.441L67.3672 207.781L70.3665 206.208L73.3671 207.781L72.7864 204.441L75.2304 202.094Z" fill="#FECFC4"/>
<path d="M176.305 96.0322L173.758 98.4521C173.993 97.7804 174.14 97.0808 174.193 96.371C174.908 96.3367 175.616 96.2231 176.305 96.0322Z" fill="#6153BD"/>
<path d="M186.902 115.42C186.733 115.904 186.563 116.413 186.37 116.949C185.515 116.323 184.617 115.757 183.684 115.255C184.773 115.299 185.837 115.372 186.902 115.42Z" fill="#6153BD"/>
<path d="M206.599 75.2523C202.636 71.9613 191.888 81.2051 191.888 81.2051C193.871 71.429 179.353 79.8042 174.465 84.5687C176.981 82.5602 178.99 86.9147 178.772 89.3829C178.772 89.965 179.087 90.0859 179.982 89.4568C181.845 88.1017 183.176 91.3201 179.668 92.8191C179.432 93.0739 179.259 93.3787 179.158 93.7106C178.515 95.5368 178.473 97.521 179.037 99.373C195.323 96.0388 210.543 78.5191 206.599 75.2523Z" fill="#6153BD"/>
<path d="M178.626 149.489L176.69 151.159L174.996 143.972L178.626 149.489Z" fill="#6153BD"/>
<path d="M125.467 36.875C123.527 36.875 121.631 37.4502 120.019 38.5278C118.406 39.6054 117.149 41.1369 116.407 42.9288C115.664 44.7208 115.47 46.6926 115.849 48.5949C116.227 50.4972 117.161 52.2447 118.532 53.6161C119.904 54.9876 121.651 55.9216 123.554 56.3C125.456 56.6785 127.428 56.4843 129.22 55.742C131.012 54.9997 132.543 53.7427 133.62 52.1301C134.698 50.5173 135.274 48.6213 135.274 46.6817C135.276 45.3932 135.024 44.117 134.532 42.9261C134.039 41.7352 133.317 40.6532 132.407 39.7421C131.495 38.831 130.414 38.1088 129.223 37.6168C128.032 37.1248 126.755 36.8727 125.467 36.875ZM125.709 52.6524C125.709 52.7166 125.683 52.7781 125.638 52.8235C125.593 52.8689 125.531 52.8944 125.467 52.8944C125.435 52.8963 125.402 52.8912 125.372 52.8797C125.342 52.8682 125.315 52.8504 125.292 52.8276C125.269 52.8047 125.251 52.7773 125.24 52.7471C125.228 52.7169 125.223 52.6846 125.225 52.6524V45.0541C125.225 44.99 125.251 44.9286 125.296 44.8833C125.341 44.8381 125.403 44.8125 125.467 44.8121C125.499 44.8102 125.531 44.8153 125.562 44.8267C125.592 44.8382 125.619 44.856 125.642 44.8788C125.665 44.9018 125.683 44.9291 125.694 44.9593C125.706 44.9895 125.711 45.0219 125.709 45.0541V52.6524ZM124.789 41.3772C124.797 41.1994 124.873 41.0314 125.001 40.9084C125.13 40.7852 125.301 40.7166 125.479 40.7166C125.657 40.7166 125.828 40.7852 125.956 40.9084C126.085 41.0314 126.161 41.1994 126.169 41.3772C126.161 41.555 126.085 41.723 125.956 41.846C125.828 41.9692 125.657 42.0378 125.479 42.0378C125.301 42.0378 125.13 41.9692 125.001 41.846C124.873 41.723 124.797 41.555 124.789 41.3772Z" fill="#6153BD"/>
<path d="M67.4648 153.869L76.7086 160.911L78.8623 156.846C74.8848 156.744 70.9846 155.725 67.4648 153.869Z" fill="#6153BD"/>
<path d="M75.4507 100.538L72.5469 98.5796C73.3817 98.6799 74.2234 98.7124 75.0635 98.6764C75.1299 99.3085 75.2595 99.9323 75.4507 100.538Z" fill="#6153BD"/>
<path d="M165.078 108.863C164.461 110.38 164.116 111.993 164.059 113.63L162.438 112.638L165.078 108.863Z" fill="#6153BD"/>
<path d="M87.8398 109.032C88.0556 110.087 88.2092 111.154 88.2996 112.226C88.7594 112.009 89.2676 111.742 89.7757 111.476L87.8398 109.032Z" fill="#6153BD"/>
<path d="M94.4441 183.995C93.8889 185.592 93.1858 187.189 92.7031 188.592C93.0787 190.201 93.6641 191.755 94.4441 193.213C96.8882 197.739 99.3322 206.619 101.268 208.846C102.333 205.676 103.47 197.716 104.22 193.238C100.443 190.755 97.134 187.627 94.4441 183.995Z" fill="#6153BD"/>
<path d="M30.0319 147.65C28.3812 147.578 26.7283 147.733 25.1197 148.11C20.0864 149.271 10.8681 149.271 8.23047 150.554C10.9891 152.441 18.3683 155.66 22.482 157.547C25.8828 154.548 29.7916 152.179 34.0247 150.554C32.597 149.586 31.2419 148.497 30.0319 147.65Z" fill="#6153BD"/>
<path d="M73.0282 85.0794C72.2297 83.7727 70.481 83.8453 70.6568 84.8375C69.5691 83.8695 67.6817 84.328 67.8982 85.4424C66.5927 84.3777 65.0682 85.2246 65.3815 86.241C64.2455 85.3698 63.0114 86.241 63.3986 87.2815C61.7773 86.5798 60.4221 87.7909 62.3338 89.7013C63.1566 90.5241 66.7367 93.1846 68.7451 96.5482C68.8687 96.0644 68.8572 95.5561 68.7123 95.0782C68.5672 94.6005 68.294 94.1715 67.9224 93.838C65.9381 92.3377 67.2932 90.5483 68.5515 91.7811C69.6647 92.8701 69.303 91.2717 68.5031 89.8453C68.6688 89.9882 68.8679 90.0871 69.0819 90.1328C69.2958 90.1787 69.5179 90.1699 69.7276 90.1074C69.9373 90.0448 70.1279 89.9306 70.2818 89.775C70.4357 89.6194 70.548 89.4278 70.6084 89.2174C70.7671 89.3372 70.95 89.4211 71.1443 89.4631C71.3388 89.505 71.5399 89.5041 71.734 89.4602C71.928 89.4164 72.1101 89.331 72.2676 89.2096C72.4252 89.0882 72.5543 88.934 72.6462 88.7576C73.5377 89.3855 74.7514 88.9996 74.7998 88.0559C74.2624 87.1338 73.6574 86.1174 73.0282 85.0794Z" fill="#6153BD"/>
<path d="M66.7419 117.404L64.9767 119.678C64.7347 118.736 64.4927 117.815 64.2266 116.921C65.0455 117.066 66.7419 117.404 66.7419 117.404Z" fill="#6153BD"/>
<path d="M42.0583 111.428C42.0499 111.64 41.9597 111.841 41.8064 111.988C41.6531 112.136 41.4487 112.218 41.2362 112.218C41.0236 112.218 40.8192 112.136 40.666 111.988C40.5128 111.841 40.4225 111.64 40.4141 111.428C40.4225 111.215 40.5128 111.014 40.666 110.867C40.8192 110.719 41.0236 110.637 41.2362 110.637C41.4487 110.637 41.6531 110.719 41.8064 110.867C41.9597 111.014 42.0499 111.215 42.0583 111.428Z" fill="#6153BD"/>
<path d="M53.0908 104.168C53.0908 104.387 53.0042 104.596 52.8498 104.75C52.6956 104.904 52.4862 104.991 52.2681 104.991C52.0499 104.991 51.8406 104.904 51.6863 104.75C51.532 104.596 51.4453 104.387 51.4453 104.168C51.4453 103.95 51.532 103.741 51.6863 103.587C51.8406 103.432 52.0499 103.346 52.2681 103.346C52.4862 103.346 52.6956 103.432 52.8498 103.587C53.0042 103.741 53.0908 103.95 53.0908 104.168Z" fill="#6153BD"/>
<path d="M63.665 112.25C63.665 112.469 63.5783 112.678 63.4241 112.832C63.2698 112.986 63.0604 113.073 62.8423 113.073C62.6241 113.073 62.4149 112.986 62.2605 112.832C62.1063 112.678 62.0195 112.469 62.0195 112.25C62.0195 112.032 62.1063 111.823 62.2605 111.669C62.4149 111.514 62.6241 111.428 62.8423 111.428C63.0604 111.428 63.2698 111.514 63.4241 111.669C63.5783 111.823 63.665 112.032 63.665 112.25Z" fill="#6153BD"/>
<path d="M78.0869 114.549C78.0869 114.767 78.0002 114.977 77.8459 115.131C77.6916 115.285 77.4823 115.372 77.2642 115.372C77.046 115.372 76.8367 115.285 76.6824 115.131C76.5281 114.977 76.4414 114.767 76.4414 114.549C76.4414 114.331 76.5281 114.122 76.6824 113.968C76.8367 113.813 77.046 113.727 77.2642 113.727C77.4823 113.727 77.6916 113.813 77.8459 113.968C78.0002 114.122 78.0869 114.331 78.0869 114.549Z" fill="#6153BD"/>
<path d="M85.5908 101.966C85.5908 102.184 85.5041 102.394 85.3498 102.548C85.1955 102.702 84.9862 102.789 84.7681 102.789C84.5499 102.789 84.3406 102.702 84.1863 102.548C84.032 102.394 83.9453 102.184 83.9453 101.966C83.9453 101.748 84.032 101.539 84.1863 101.385C84.3406 101.23 84.5499 101.144 84.7681 101.144C84.9862 101.144 85.1955 101.23 85.3498 101.385C85.5041 101.539 85.5908 101.748 85.5908 101.966Z" fill="#6153BD"/>
<path d="M99.6221 101.797C99.6221 102.015 99.5354 102.224 99.3811 102.379C99.2269 102.533 99.0175 102.62 98.7993 102.62C98.5811 102.62 98.3719 102.533 98.2175 102.379C98.0633 102.224 97.9766 102.015 97.9766 101.797C97.9766 101.579 98.0633 101.369 98.2175 101.215C98.3719 101.061 98.5811 100.974 98.7993 100.974C99.0175 100.974 99.2269 101.061 99.3811 101.215C99.5354 101.369 99.6221 101.579 99.6221 101.797Z" fill="#6153BD"/>
<path d="M104.364 90.6426C104.364 90.8607 104.278 91.07 104.123 91.2243C103.969 91.3786 103.76 91.4653 103.541 91.4653C103.323 91.4653 103.114 91.3786 102.96 91.2243C102.805 91.07 102.719 90.8607 102.719 90.6426C102.719 90.4244 102.805 90.2152 102.96 90.0608C103.114 89.9066 103.323 89.8198 103.541 89.8198C103.76 89.8198 103.969 89.9066 104.123 90.0608C104.278 90.2152 104.364 90.4244 104.364 90.6426Z" fill="#6153BD"/>
<path d="M72.0127 125.849C72.0127 126.067 71.9259 126.276 71.7717 126.43C71.6175 126.585 71.4081 126.671 71.1899 126.671C70.9718 126.671 70.7625 126.585 70.6081 126.43C70.4539 126.276 70.3672 126.067 70.3672 125.849C70.3672 125.63 70.4539 125.421 70.6081 125.267C70.7625 125.113 70.9718 125.026 71.1899 125.026C71.4081 125.026 71.6175 125.113 71.7717 125.267C71.9259 125.421 72.0127 125.63 72.0127 125.849Z" fill="#6153BD"/>
<path d="M84.7666 125.026C84.7666 125.244 84.6798 125.453 84.5256 125.608C84.3714 125.762 84.162 125.849 83.9438 125.849C83.7257 125.849 83.5164 125.762 83.3621 125.608C83.2078 125.453 83.1211 125.244 83.1211 125.026C83.1211 124.808 83.2078 124.598 83.3621 124.444C83.5164 124.29 83.7257 124.203 83.9438 124.203C84.162 124.203 84.3714 124.29 84.5256 124.444C84.6798 124.598 84.7666 124.808 84.7666 125.026Z" fill="#6153BD"/>
<path d="M226.249 100.442C225.402 100.49 223.901 100.563 223.562 100.587C224.192 98.5798 225.307 98.5544 226.249 100.442Z" fill="#6153BD"/>
<path d="M227.022 112.057C226.417 113.703 225.425 113.775 224.578 112.251C225.28 112.207 226.127 112.13 227.022 112.057Z" fill="#6153BD"/>
<path d="M138.001 84.5698C138.001 84.788 137.914 84.9972 137.76 85.1516C137.606 85.3058 137.396 85.3926 137.178 85.3926C136.96 85.3926 136.75 85.3058 136.596 85.1516C136.442 84.9972 136.355 84.788 136.355 84.5698C136.355 84.3517 136.442 84.1424 136.596 83.988C136.75 83.8338 136.96 83.7471 137.178 83.7471C137.396 83.7471 137.606 83.8338 137.76 83.988C137.914 84.1424 138.001 84.3517 138.001 84.5698Z" fill="#6153BD"/>
<path d="M220.586 103.612C220.577 103.824 220.488 104.025 220.333 104.172C220.181 104.32 219.976 104.402 219.764 104.402C219.551 104.402 219.346 104.32 219.194 104.172C219.039 104.025 218.95 103.824 218.941 103.612C218.95 103.399 219.039 103.198 219.194 103.051C219.346 102.904 219.551 102.821 219.764 102.821C219.976 102.821 220.181 102.904 220.333 103.051C220.488 103.198 220.577 103.399 220.586 103.612Z" fill="#6153BD"/>
<path d="M201.25 157.862C201.242 156.471 201.162 155.082 201.008 153.7L208.001 147.215L201.25 157.862Z" fill="#6153BD"/>
<path d="M133.209 190.77C123.756 191.951 114.158 190.932 105.164 187.794" stroke="#120071" stroke-linecap="round" stroke-linejoin="round"/>
<path d="M181.674 154.108C175.843 167.766 165.249 178.842 151.863 185.275" stroke="#120071" stroke-linecap="round" stroke-linejoin="round"/>
<path d="M185.547 119.218C186.083 122.11 186.398 125.038 186.491 127.978" stroke="#120071" stroke-linecap="round" stroke-linejoin="round"/>
<path d="M135.023 69.856C149.146 72.0757 162.038 79.1944 171.439 89.9648" stroke="#120071" stroke-linecap="round" stroke-linejoin="round"/>
<path d="M120.332 69.3236C123.086 69.1024 125.851 69.0619 128.61 69.2026C129.094 69.2281 129.603 69.251 130.087 69.2994" stroke="#120071" stroke-linecap="round" stroke-linejoin="round"/>
<path d="M77.168 92.7708C86.1782 81.1384 99.0834 73.148 113.513 70.2676" stroke="#120071" stroke-linecap="round" stroke-linejoin="round"/>
<path d="M64.4631 133.181C64.3642 131.133 64.3723 129.081 64.4873 127.034C64.6034 124.854 64.8295 122.682 65.1648 120.525" stroke="#120071" stroke-linecap="round" stroke-linejoin="round"/>
<path d="M92.5549 181.648C85.5499 177.156 79.532 171.287 74.8672 164.396" stroke="#120071" stroke-linecap="round" stroke-linejoin="round"/>
<path d="M174.197 96.3522C174.902 96.3309 175.6 96.2253 176.278 96.0376L173.762 98.4332" stroke="#120071" stroke-linecap="round" stroke-linejoin="round"/>
<path d="M237.255 102.91L242.022 100.732C245.046 99.3526 245.079 97.8816 241.466 99.038C241.247 99.108 235.876 100.705 235.029 100.829C234.375 100.924 233.246 101.021 233.118 100.587C232.633 98.931 234.647 94.4581 233.239 94.0047C232.321 93.7105 230.752 96.5965 229.755 98.675C229.057 100.129 227.844 100.369 226.246 100.441" stroke="#120071" stroke-linecap="round" stroke-linejoin="round"/>
<path d="M236.383 103.007C236.383 103.007 243.642 102.115 244.126 102.039C247.899 101.49 247.635 102.914 244.417 103.805C241.343 104.656 237.641 105.716 237.641 105.716" stroke="#120071" stroke-linecap="round" stroke-linejoin="round"/>
<path d="M236.383 105.693C238.764 105.764 241.147 105.699 243.521 105.499C247.319 105.203 246.908 106.467 243.691 107.266C241.706 107.808 239.684 108.204 237.641 108.452" stroke="#120071" stroke-linecap="round" stroke-linejoin="round"/>
<path d="M227.02 112.057C227.02 112.057 232.271 111.713 233.287 111.621C235.246 111.443 237.258 111.131 239.216 110.871C239.893 110.781 240.692 110.657 241.611 110.489C245.001 109.852 245.506 108.594 241.66 108.698C239.595 108.748 237.532 108.553 235.513 108.118" stroke="#120071" stroke-linecap="round" stroke-linejoin="round"/>
<path d="M236.238 101.845C236.606 104.859 235.949 107.909 234.375 110.506" stroke="#120071" stroke-linecap="round" stroke-linejoin="round"/>
<path d="M233.385 101.797C232.817 103.299 231.943 104.666 230.818 105.811C229.693 106.957 228.343 107.856 226.852 108.451" stroke="#120071" stroke-linecap="round" stroke-linejoin="round"/>
<path d="M186.918 115.431C186.748 115.915 186.579 116.423 186.385 116.959C185.127 116.112 184.06 115.564 183.699 115.265C184.788 115.31 185.853 115.382 186.918 115.431Z" stroke="#120071" stroke-linecap="round" stroke-linejoin="round"/>
<path d="M162.438 112.662L165.075 108.863C164.39 110.36 164.033 111.986 164.031 113.632" stroke="#120071" stroke-linecap="round" stroke-linejoin="round"/>
<path d="M171.175 100.853C172.05 100.853 173.181 100.102 173.764 98.4332C173.998 97.7613 174.145 97.0618 174.2 96.3521C171.925 96.3763 169.003 95.2059 172.312 87.7629C173.024 86.1633 174.406 83.7167 176.123 84.0912C177.792 84.4567 178.939 87.4127 178.797 89.3129C178.74 90.1293 179.307 89.9293 179.978 89.4517C181.853 88.1119 183.172 91.3137 179.663 92.814C179.43 93.07 179.256 93.3744 179.154 93.7056C178.248 97.5264 178.217 100.673 182.058 101.546" stroke="#120071" stroke-linecap="round" stroke-linejoin="round"/>
<path d="M174.488 84.5703C179.376 79.8032 193.895 71.4305 191.911 81.2067C191.911 81.2067 202.653 71.9642 206.622 75.2539C210.571 78.5219 195.37 96.039 179.086 99.3784" stroke="#120071" stroke-linecap="round" stroke-linejoin="round"/>
<path d="M225.834 113.363C222.97 113.363 221.846 99.2634 224.745 99.0379C209.207 100.694 193.093 103.285 182.061 101.53C178.223 106.264 175.091 111.53 172.764 117.163C171.287 111.86 170.749 106.34 171.176 100.853C169.096 100.683 146.398 85.6333 136.841 80.0435C134.769 81.4452 133.004 83.2532 131.652 85.3578C130.3 87.4623 129.39 89.8196 128.977 92.2866L164.035 113.632C164.026 114.023 164.035 114.433 164.057 114.871C164.236 118.116 165.478 122.738 168.974 130.18C173.298 131.47 180 129.095 184.025 126.768C183.771 123.231 185.831 118.77 186.92 115.433C199.938 116.028 212.369 114.996 225.834 113.363Z" stroke="#120071" stroke-linecap="round" stroke-linejoin="round"/>
<path d="M168.993 130.18L148.087 152.562C144.311 156.596 141.556 161.475 140.054 166.791L132.238 194.108C134.396 196.014 136.981 197.369 139.777 198.057C142.571 198.744 145.491 198.744 148.286 198.057L156.309 168.99C180.053 148.208 175.985 151.76 178.619 149.488L191.565 169.208C192.325 170.365 193.328 171.342 194.502 172.074C195.678 172.805 196.996 173.274 198.37 173.445C199.743 173.619 201.136 173.491 202.456 173.072C203.775 172.655 204.988 171.955 206.01 171.023L230.474 148.689C229.83 145.915 228.543 143.333 226.715 141.15C224.889 138.967 222.572 137.245 219.955 136.124L201.001 153.7C201.001 153.7 197.734 132.14 183.991 126.768" stroke="#120071" stroke-linecap="round" stroke-linejoin="round"/>
<path d="M176.69 151.159L174.996 143.972L178.626 149.489" stroke="#120071" stroke-linecap="round" stroke-linejoin="round"/>
<path d="M133.764 195.27C132.81 200.403 131.35 205.427 129.408 210.273C127.565 214.433 126.121 218.158 126.649 218.791C128.501 221.006 134.8 211.438 139.475 208.991C140.588 208.438 141.584 207.674 142.404 206.74C144.045 204.802 143.128 202.554 145.04 198.513" stroke="#120071" stroke-linecap="round" stroke-linejoin="round"/>
<path d="M229.487 145.714C233.494 142.304 237.696 139.129 242.07 136.206C245.868 133.688 249.087 131.318 248.99 130.519C248.647 127.664 238.152 132.291 232.923 131.85C231.68 131.72 230.425 131.827 229.221 132.164C226.801 132.896 226.487 135.189 222.688 137.585" stroke="#120071" stroke-linecap="round" stroke-linejoin="round"/>
<path d="M128.465 77.2849C128.465 71.9358 132.624 61.9635 134.248 61.1458C134.292 61.1262 134.339 61.118 134.385 61.1222C134.432 61.1264 134.476 61.1427 134.516 61.1695C134.554 61.1965 134.584 61.233 134.605 61.2755C134.625 61.318 134.634 61.3652 134.63 61.412C134.074 67.1254 130.368 76.8837 135.533 80.9936" stroke="#120071" stroke-linecap="round" stroke-linejoin="round"/>
<path d="M129.602 89.844C127.738 88.5856 125.11 86.4052 125.197 84.2783C125.441 78.3994 125.404 75.6395 125.415 73.3165C125.424 71.5984 126.775 71.5487 127.69 74.5264C128.492 77.1385 129.335 80.818 129.335 80.818" stroke="#120071" stroke-linecap="round" stroke-linejoin="round"/>
<path d="M133.496 68.1865C134.006 67.3395 134.557 66.4671 134.779 66.1067C136.396 63.4754 137.046 64.1198 136.908 64.6064C136.369 66.5091 135.069 69.3722 134.633 71.1387C133.984 73.7381 132.878 77.3666 134.939 80.4538" stroke="#120071" stroke-linecap="round" stroke-linejoin="round"/>
<path d="M108.794 154.236C108.794 154.236 103.978 155.276 97.4688 156.075" stroke="#120071" stroke-linecap="round" stroke-linejoin="round"/>
<path d="M64.3888 133.302C65.0177 132.254 65.848 131.34 66.8316 130.616V130.713C74.6234 131.826 80.4795 131.777 86.5291 130.203C86.443 131.835 86.1668 133.451 85.7063 135.019C93.061 134.849 100.433 135.05 107.822 135.624C109.553 135.757 111.233 136.267 112.746 137.117C114.259 137.967 115.568 139.137 116.581 140.546C117.595 141.955 118.289 143.568 118.615 145.272C118.941 146.976 118.891 148.731 118.468 150.415C115.666 162.269 112.209 173.958 108.113 185.429C102.634 186.337 97.0156 185.117 92.408 182.017C93.6122 173.285 95.2924 164.626 97.4413 156.078C90.1346 156.969 79.2721 157.788 71.8419 155.739C67.4391 154.525 63.8501 151.991 62.2899 147.681C60.5081 142.79 62.1129 136.858 64.3888 133.302Z" stroke="#120071" stroke-linecap="round" stroke-linejoin="round"/>
<path d="M85.7337 135.044C84.5238 135.068 83.3381 135.117 82.1523 135.165" stroke="#120071" stroke-linecap="round" stroke-linejoin="round"/>
<path d="M78.8406 156.844L69.4924 174.63C68.6374 176.255 67.4479 177.682 66.0021 178.814C64.5563 179.947 62.887 180.761 61.1041 181.202C59.3211 181.644 57.465 181.702 55.6578 181.374C53.8507 181.046 52.1333 180.34 50.6189 179.3L28.0469 163.839C30.0337 157.225 32.7477 152.915 38.1567 149.55L56.019 160.986L62.3105 147.677" stroke="#120071" stroke-linecap="round" stroke-linejoin="round"/>
<path d="M67.4883 153.869L76.7079 160.911" stroke="#120071" stroke-linecap="round" stroke-linejoin="round"/>
<path d="M75.4468 100.538L72.543 98.5542C73.3792 98.6478 74.2218 98.672 75.0622 98.6268" stroke="#120071" stroke-linecap="round" stroke-linejoin="round"/>
<path d="M80.8668 101.144C80.4312 101.41 79.9957 101.653 79.5601 101.918C79.0871 102.29 78.5017 102.49 77.9002 102.485C77.2986 102.481 76.7163 102.272 76.2487 101.894C75.507 100.964 75.0913 99.8161 75.0656 98.6269C78.9577 98.3989 79.1958 95.7817 74.7968 88.0293C74.751 88.255 74.646 88.4645 74.4928 88.6364C74.3396 88.8082 74.1435 88.9365 73.9246 89.0078C73.7055 89.0791 73.4715 89.0911 73.2465 89.0425C73.0213 88.9939 72.8132 88.8864 72.6432 88.7311C72.5562 88.9122 72.4293 89.0712 72.2722 89.1964C72.115 89.3216 71.9315 89.4096 71.7355 89.4538C71.5395 89.498 71.3361 89.4974 71.1403 89.4518C70.9446 89.4063 70.7618 89.317 70.6054 89.1908C70.5449 89.4011 70.4326 89.5926 70.2786 89.7481C70.1248 89.9037 69.9342 90.0179 69.7247 90.0806C69.5151 90.1432 69.2931 90.1521 69.0791 90.1067C68.8652 90.0611 68.6661 89.9625 68.5002 89.82C69.3229 91.2464 69.6617 92.8435 68.5486 91.7546C67.2902 90.5217 65.9351 92.3353 67.9207 93.8127C68.2923 94.1459 68.5655 94.5746 68.7106 95.0522C68.8556 95.5298 68.867 96.0381 68.7434 96.5217C69.8914 98.1963 70.3503 100.249 70.0247 102.253C69.8069 103.272 68.355 104.068 66.5859 103.608C68.6963 107.399 73.0393 110.893 77.2625 109.4C81.9099 107.764 80.8668 101.144 80.8668 101.144Z" stroke="#120071" stroke-linecap="round" stroke-linejoin="round"/>
<path d="M110.934 81.2585C116.911 76.7385 117.146 67.1814 117.146 60.3282C117.146 60.1104 117.46 59.8187 117.629 59.9461C119.141 60.9293 121.152 71.1194 120.668 76.4812" stroke="#120071" stroke-linecap="round" stroke-linejoin="round"/>
<path d="M117.793 89.3842C119.508 88.6937 120.928 87.4274 121.81 85.8029C123.652 81.7019 124.297 77.1634 123.671 72.7115C123.342 70.7782 122.338 70.9451 121.469 73.8731C120.693 76.4865 119.484 79.9953 119.484 79.9953" stroke="#120071" stroke-linecap="round" stroke-linejoin="round"/>
<path d="M110.832 81.1952C112.498 79.1575 114.066 75.5404 113.993 73.6313C113.798 71.4909 113.425 69.3704 112.88 67.2913C112.77 66.7819 113.406 66.1043 115.251 69.5838" stroke="#120071" stroke-linecap="round" stroke-linejoin="round"/>
<path d="M88.2957 112.226C88.2053 111.154 88.0517 110.087 87.8359 109.032L89.7438 111.443" stroke="#120071" stroke-linecap="round" stroke-linejoin="round"/>
<path d="M86.557 130.204H86.5812C87.6217 124.058 88.759 117.839 88.2992 112.226C97.962 107.157 110.243 97.3313 117.847 90.6424C118.709 89.7802 115.689 85.9619 114.859 84.9825C114.007 83.9777 110.675 80.2778 109.5 80.8662C100.617 88.502 91.0407 95.2905 80.8945 101.143" stroke="#120071" stroke-linecap="round" stroke-linejoin="round"/>
<path d="M105.669 185.737C105.045 188.207 104.568 190.712 104.241 193.239C100.454 190.759 97.1432 187.62 94.4648 183.971C94.5618 183.759 94.6426 183.542 94.7068 183.317" stroke="#120071" stroke-linecap="round" stroke-linejoin="round"/>
<path d="M94.4442 193.208C93.6641 191.75 93.0788 190.196 92.7032 188.586C92.2916 189.559 92.0752 190.604 92.0664 191.661C92.3708 193.168 92.9011 194.619 93.6393 195.967C96.1317 200.613 98.6242 210.341 100.415 210.22C100.681 210.196 100.971 209.687 101.262 208.84C99.3565 206.619 96.9125 197.739 94.4442 193.208Z" stroke="#120071" stroke-linecap="round" stroke-linejoin="round"/>
<path d="M94.4441 183.995C93.8889 185.592 93.1858 187.189 92.7031 188.592C93.0787 190.201 93.6641 191.755 94.4441 193.213C96.8882 197.739 99.3322 206.619 101.268 208.846C102.333 205.676 103.47 197.716 104.22 193.238C100.443 190.755 97.134 187.627 94.4441 183.995Z" stroke="#120071" stroke-linecap="round" stroke-linejoin="round"/>
<path d="M29.0866 160.766C26.9512 159.561 24.7452 158.486 22.4805 157.547C25.8717 154.553 29.7731 152.193 33.9989 150.578C34.6523 151.014 34.7491 151.183 35.3782 151.546" stroke="#120071" stroke-linecap="round" stroke-linejoin="round"/>
<path d="M27.2481 146.247C25.7139 146.132 24.1712 146.254 22.6746 146.611C17.5445 147.795 7.47925 147.602 7.13665 149.368C7.08826 149.634 7.49963 150.046 8.22558 150.554C10.8632 149.272 20.0815 149.272 25.139 148.134C26.7474 147.756 28.4006 147.601 30.0513 147.676C29.2232 147.015 28.2695 146.528 27.2481 146.247Z" stroke="#120071" stroke-linecap="round" stroke-linejoin="round"/>
<path d="M30.032 147.65C28.3813 147.578 26.7284 147.733 25.1197 148.11C20.0864 149.271 10.8681 149.271 8.23047 150.554C10.9891 152.441 18.3683 155.66 22.4821 157.547C25.8828 154.548 29.7916 152.179 34.0247 150.554C32.597 149.586 31.2419 148.497 30.032 147.65Z" stroke="#120071" stroke-linecap="round" stroke-linejoin="round"/>
<path d="M14.6673 113.025C13.7478 113.339 12.5608 113.7 11.356 114.065C9.12844 114.738 8.30697 114.331 10.5332 112.807C12.6381 111.378 14.9607 110.299 17.4107 109.613" stroke="#120071" stroke-linecap="round" stroke-linejoin="round"/>
<path d="M19.625 106.806C18.953 107.462 18.3449 108.18 17.8088 108.952C16.8468 110.393 16.1961 112.019 15.8984 113.726" stroke="#120071" stroke-linecap="round" stroke-linejoin="round"/>
<path d="M13.8186 110.944C5.76051 113.775 4.74927 112.454 11.4955 109.371C14.0985 108.257 16.8082 107.411 19.5829 106.847" stroke="#120071" stroke-linecap="round" stroke-linejoin="round"/>
<path d="M29.5992 113.072C26.228 112.884 19.0347 114.141 13.818 115.874C11.5434 116.624 10.3271 116.129 12.8501 114.229C13.913 113.434 15.0521 112.747 16.2506 112.177" stroke="#120071" stroke-linecap="round" stroke-linejoin="round"/>
<path d="M15.6332 107.822C12.9243 108.451 6.74985 108.683 16.3592 105.572C17.8595 105.087 19.6705 104.68 21.3682 104.314C21.4642 103.683 21.3537 103.038 21.0537 102.474C20.0348 100.768 20.3787 100.075 22.0458 101.095C24.1616 102.535 26.6739 103.28 29.2327 103.225" stroke="#120071" stroke-linecap="round" stroke-linejoin="round"/>
<path d="M21.3678 104.311C21.3571 104.95 21.4784 105.584 21.7241 106.174C21.9697 106.764 22.3346 107.297 22.7958 107.739C23.2568 108.181 23.8044 108.524 24.404 108.745C25.0035 108.966 25.6422 109.061 26.2801 109.023" stroke="#120071" stroke-linecap="round" stroke-linejoin="round"/>
<path d="M74.7953 88.0534C74.7469 88.9971 73.537 89.3843 72.6417 88.7551C72.55 88.9316 72.4208 89.0861 72.2634 89.2075C72.1059 89.329 71.9236 89.4147 71.7297 89.4584C71.5356 89.5022 71.3343 89.5031 71.1399 89.4611C70.9454 89.4189 70.7625 89.335 70.6039 89.2149C70.5433 89.425 70.4308 89.6164 70.2769 89.7718C70.1229 89.9272 69.9324 90.0413 69.7227 90.1039C69.5132 90.1664 69.2912 90.1752 69.0774 90.1296C68.8636 90.084 68.6645 89.9853 68.4987 89.8428C69.2972 91.2705 69.6602 92.8688 68.5471 91.7786C67.2887 90.5458 65.9387 92.3301 67.9179 93.8355C68.2901 94.1686 68.5636 94.5975 68.7088 95.0753C68.8539 95.5533 68.8648 96.0619 68.7406 96.5457C66.7335 93.1834 63.1521 90.5216 62.3294 89.6988C60.419 87.7884 61.7728 86.5773 63.3941 87.279C63.012 86.2385 64.241 85.3686 65.3771 86.2385C65.0625 85.2196 66.5883 84.3752 67.8937 85.4399C67.6759 84.3268 69.5634 83.867 70.6523 84.835C70.4829 83.8428 72.229 83.7677 73.0238 85.0769C73.6606 86.1149 74.7953 88.0534 74.7953 88.0534Z" stroke="#120071" stroke-linecap="round" stroke-linejoin="round"/>
<path d="M64.9729 119.678L66.7419 117.404C65.8721 117.235 65.0493 117.065 64.2266 116.921" stroke="#120071" stroke-linecap="round" stroke-linejoin="round"/>
<path d="M66.5942 103.611C66.2796 103.49 51.0563 99.5219 29.6687 101.574C28.5089 105.905 28.6417 110.481 30.0508 114.738C41.487 113.808 52.9976 114.543 64.2228 116.919C65.586 121.377 66.4619 125.968 66.8349 130.614" stroke="#120071" stroke-linecap="round" stroke-linejoin="round"/>
<path d="M51.6123 75.8817C51.6689 76.5373 51.53 77.195 51.213 77.7717C50.8959 78.3482 50.4151 78.8179 49.8311 79.1214C49.2472 79.4248 48.5863 79.5482 47.9323 79.4763C47.2782 79.4042 46.6601 79.1398 46.1563 78.7166C45.6523 78.2932 45.2853 77.7302 45.1014 77.0983C44.9175 76.4665 44.925 75.7943 45.123 75.1668C45.3212 74.5392 45.7007 73.9845 46.214 73.5726C46.7272 73.1609 47.3512 72.9104 48.0067 72.853C48.8859 72.7792 49.7585 73.0562 50.4342 73.6237C51.1097 74.1912 51.5333 75.0029 51.6123 75.8817Z" stroke="#120071" stroke-linecap="round" stroke-linejoin="round"/>
<path d="M184.263 191.254H173.785" stroke="#120071" stroke-linecap="round" stroke-linejoin="round"/>
<path d="M179.023 196.504V186.003" stroke="#120071" stroke-linecap="round" stroke-linejoin="round"/>
<path d="M37.321 101.071C36.1377 105.489 36.3576 110.165 37.9502 114.453" stroke="#120071" stroke-linecap="round" stroke-linejoin="round"/>
<path d="M104.949 84.6899C108.586 87.1221 111.547 90.4371 113.555 94.3247" stroke="#120071" stroke-linecap="round" stroke-linejoin="round"/>
<path d="M226.245 100.442C225.398 100.49 223.897 100.563 223.559 100.587C224.188 98.5798 225.303 98.5544 226.245 100.442Z" stroke="#120071" stroke-linecap="round" stroke-linejoin="round"/>
<path d="M227.018 112.057C226.413 113.703 225.421 113.775 224.574 112.251C225.276 112.207 226.123 112.13 227.018 112.057Z" stroke="#120071" stroke-linecap="round" stroke-linejoin="round"/>
<path d="M180.465 128.509C190.265 135.387 192.946 143.877 197.064 158.948C197.208 159.474 197.484 159.954 197.866 160.344C198.249 160.733 198.724 161.017 199.248 161.171C199.771 161.324 200.325 161.34 200.856 161.219C201.389 161.097 201.88 160.842 202.285 160.477L225.304 139.618" stroke="#120071" stroke-linecap="round" stroke-linejoin="round"/>
<path d="M142.402 198.489L150.75 166.501L175.285 145.182" stroke="#120071" stroke-linecap="round" stroke-linejoin="round"/>
<path d="M79.8263 134.052C78.9005 135.62 77.6513 136.972 76.1617 138.02C74.6721 139.067 72.9763 139.786 71.1875 140.126" stroke="#120071" stroke-linecap="round" stroke-linejoin="round"/>
<path d="M93.7422 173.759C96.1914 175.525 98.9818 176.763 101.936 177.394C104.889 178.023 107.942 178.03 110.899 177.415" stroke="#120071" stroke-linecap="round" stroke-linejoin="round"/>
<path d="M44.668 153.727C39.9264 156.921 36.899 162.099 35.0625 168.628" stroke="#120071" stroke-linecap="round" stroke-linejoin="round"/>
<path d="M208 147.215L201.25 157.862C201.242 156.471 201.162 155.082 201.008 153.7" stroke="#120071" stroke-linecap="round" stroke-linejoin="round"/>
<path d="M110.941 81.2588C114.408 78.6454 115.253 74.7634 115.374 71.2318C115.126 68.7617 114.705 66.3122 114.115 63.9009C114.039 63.4169 114.72 62.8362 116.099 65.619L116.898 67.3562" stroke="#120071" stroke-linecap="round" stroke-linejoin="round"/>
<path d="M125.463 36.875C123.523 36.875 121.627 37.4502 120.015 38.5278C118.402 39.6054 117.145 41.1369 116.403 42.9288C115.66 44.7208 115.466 46.6926 115.845 48.5949C116.223 50.4972 117.157 52.2447 118.529 53.6161C119.9 54.9876 121.647 55.9216 123.55 56.3C125.452 56.6785 127.424 56.4843 129.216 55.742C131.008 54.9997 132.539 53.7427 133.617 52.1301C134.694 50.5173 135.27 48.6213 135.27 46.6817C135.272 45.3932 135.02 44.117 134.528 42.9261C134.036 41.7352 133.313 40.6532 132.403 39.7421C131.491 38.831 130.41 38.1088 129.219 37.6168C128.028 37.1248 126.751 36.8727 125.463 36.875Z" stroke="#120071" stroke-linejoin="round"/>
<path d="M124.508 41.3556C124.508 41.6089 124.608 41.8519 124.788 42.031C124.967 42.2102 125.21 42.3108 125.463 42.3108C125.716 42.3108 125.959 42.2102 126.138 42.031C126.318 41.8519 126.418 41.6089 126.418 41.3556C126.418 41.1023 126.318 40.8593 126.138 40.6802C125.959 40.501 125.716 40.4004 125.463 40.4004C125.21 40.4004 124.967 40.501 124.788 40.6802C124.608 40.8593 124.508 41.1023 124.508 41.3556Z" stroke="#120071" stroke-linejoin="round"/>
<path d="M125.932 44.8975C125.932 44.6338 125.718 44.4199 125.454 44.4199C125.19 44.4199 124.977 44.6338 124.977 44.8975H125.932ZM124.977 52.7779C124.977 53.0417 125.19 53.2555 125.454 53.2555C125.718 53.2555 125.932 53.0417 125.932 52.7779H124.977ZM124.977 44.8975V52.7779H125.932V44.8975H124.977Z" fill="#120071"/>
</svg>
