<svg width="256" height="256" viewBox="0 0 256 256" fill="none" xmlns="http://www.w3.org/2000/svg">
<path d="M173.633 73.039C172.954 68.6247 169.219 64.0652 165.727 61.858C165.362 61.616 164.999 61.397 164.635 61.1792C156.729 66.6557 142.272 75.5136 125.294 78.206C123.984 78.4237 122.384 78.1079 121.389 79.0058C118.261 81.795 117.63 91.5456 109.893 91.7634C108.825 94.4813 107.856 97.0998 106.812 99.3312C108.077 97.5596 117.32 99.2395 119.667 99.768C121.97 100.277 131.902 102.984 131.48 105.104C133.226 101.343 132.547 97.5367 131.407 93.5579C145.256 90.891 164.442 81.0919 173.633 73.039Z" fill="#FECFC4"/>
<path d="M52.5082 113.957C50.045 116.325 46.9348 117.909 43.5711 118.509C40.2076 119.109 36.7414 118.699 33.6113 117.329C30.4812 115.959 27.8275 113.692 25.9859 110.814C24.1443 107.936 23.1975 104.577 23.2651 101.16C23.3329 97.7444 24.412 94.425 26.3662 91.6223C28.3203 88.8195 31.0617 86.6592 34.2437 85.4146C37.4256 84.1699 40.9052 83.8968 44.2424 84.6296C47.5797 85.3626 50.6246 87.0686 52.9922 89.5321C54.5656 91.1669 55.8014 93.0958 56.6287 95.2085C57.456 97.3213 57.8588 99.5765 57.8139 101.845C57.769 104.114 57.2772 106.351 56.3667 108.429C55.4564 110.508 54.1452 112.386 52.5082 113.957Z" fill="#FECFC4"/>
<path d="M238.152 181.845C239.898 175.806 245.72 177.648 248.922 174.01C249.504 179.565 246.447 185.144 240.917 185.41L238.152 181.845Z" fill="#FECFC4"/>
<path d="M106.524 193.801C104.317 195.088 100.195 192.42 95.6836 187.325C95.7624 189.083 96.261 190.797 97.138 192.323C100.195 198.046 100.049 212.163 103.445 211.172C104.391 210.88 105.507 206.078 106.502 200.573C107.016 197.914 107.697 195.289 108.539 192.714C108.118 192.929 106.947 193.52 106.524 193.801Z" fill="#6153BD"/>
<path d="M120.641 72.1665C121.086 73.4614 121.742 74.674 122.582 75.7555C124.715 75.4409 127.086 74.7939 127.528 73.8158C127.606 73.651 127.671 73.4807 127.723 73.3064C127.165 75.0767 123.939 73.8884 120.641 72.1665Z" fill="#6153BD"/>
<path d="M123.501 59.1414C119.208 54.6303 105.214 58.1709 95.7306 65.0356C86.1989 71.9232 88.9397 78.3753 101.285 75.4167C100.558 75.6345 92.6497 78.0111 87.484 83.9499C79.8921 92.6817 86.4893 96.0287 94.9982 94.2826C105.16 92.1964 113.892 83.8531 116.851 78.0798C118.21 74.6784 119.131 71.1182 119.594 67.4848C116.053 64.5988 118.212 61.979 120.152 63.9683C121.195 65.0356 122.359 64.5262 121.074 61.0391C122.369 60.2354 123.924 59.9782 123.501 59.1414Z" fill="#6153BD"/>
<path d="M155.882 200.157C155.434 194.398 155.498 188.611 156.075 182.863C151.474 184.162 146.592 184.087 142.033 182.645C142.13 186.672 140.869 188.709 141.912 191.207C142.538 192.608 143.427 193.876 144.53 194.942C149.091 199.551 152.996 213.132 155.979 211.193C156.804 210.657 156.488 205.735 155.882 200.157Z" fill="#6153BD"/>
<path d="M110.258 98.5557C110.039 99.6813 109.698 100.779 109.239 101.83C105.285 99.8649 106.208 98.5799 110.258 98.5557Z" fill="#6153BD"/>
<path d="M131.504 105.075C131.406 105.536 130.752 105.828 129.66 105.967C130.073 105.215 130.437 104.535 130.752 103.856C131.309 104.328 131.576 104.74 131.504 105.075Z" fill="#6153BD"/>
<path d="M142.372 142.286L139.825 149.586C139.728 146.749 139.632 143.96 139.582 141.219L142.372 142.286Z" fill="#6153BD"/>
<path d="M55.2655 193.826C48.7523 182.677 40.1097 173.181 36.0265 174.754C30.5003 176.883 37.998 193.96 42.2977 201.418C49.5254 213.933 58.2572 222.422 61.8997 220.463C67.194 217.514 58.545 199.439 55.2655 193.826Z" fill="#6153BD"/>
<path d="M100.046 167.559C92.8668 155.141 84.1592 146.749 80.5689 148.837C76.9557 150.922 79.8659 162.662 87.0209 175.08C94.176 187.498 102.908 195.866 106.497 193.802C110.111 191.717 107.201 179.977 100.046 167.559Z" fill="#6153BD"/>
<path d="M108.535 192.71C107.695 195.286 107.015 197.91 106.498 200.57C105.514 206.077 104.39 210.886 103.441 211.169C100.052 212.188 100.179 198.051 97.1341 192.319C96.2554 190.795 95.7565 189.081 95.6797 187.322" stroke="#120071" stroke-linecap="round" stroke-linejoin="round"/>
<path d="M192.48 101.441C191.996 100.658 191.346 99.9909 190.576 99.4868C189.805 98.9827 188.934 98.6543 188.022 98.5246C187.11 98.395 186.182 98.4673 185.302 98.7364C184.422 99.0057 183.61 99.4652 182.928 100.082C182.658 99.1612 182.178 98.3145 181.528 97.6083C180.877 96.9021 180.072 96.3553 179.176 96.0104C178.28 95.6654 177.316 95.5317 176.36 95.6194C175.403 95.7072 174.481 96.0141 173.662 96.5164C172.954 96.9524 172.339 97.5238 171.853 98.1981C171.365 98.8723 171.016 99.6361 170.825 100.445C169.817 99.6862 168.605 99.2487 167.345 99.1906C166.086 99.1325 164.838 99.4564 163.765 100.12C162.693 100.783 161.846 101.755 161.335 102.908C160.824 104.061 160.675 105.342 160.905 106.582C160.086 106.367 159.232 106.319 158.396 106.44C157.558 106.561 156.754 106.849 156.029 107.286C155.212 107.788 154.521 108.471 154.009 109.282C153.497 110.093 153.179 111.011 153.078 111.965C152.978 112.919 153.098 113.883 153.429 114.783C153.759 115.684 154.292 116.496 154.986 117.158C154.136 117.493 153.369 118.01 152.74 118.673C152.11 119.335 151.633 120.128 151.343 120.994C151.051 121.86 150.953 122.78 151.055 123.688C151.155 124.597 151.455 125.472 151.93 126.252C152.593 127.35 153.585 128.211 154.763 128.716C155.943 129.22 157.251 129.342 158.503 129.066L192.361 108.306C193.213 107.793 194.249 104.298 192.48 101.441Z" stroke="#120071" stroke-linecap="round" stroke-linejoin="round"/>
<path d="M166.798 111.07C167.598 111.824 168.114 112.83 168.259 113.92C168.404 115.009 168.17 116.116 167.594 117.053C167.018 117.99 166.138 118.7 165.102 119.063C164.064 119.427 162.933 119.423 161.898 119.05" stroke="#120071" stroke-linecap="round" stroke-linejoin="round"/>
<path d="M181.882 106.802C181.747 107.783 181.314 108.699 180.639 109.424C179.964 110.149 179.081 110.648 178.113 110.852C177.144 111.056 176.135 110.956 175.225 110.566C174.315 110.175 173.549 109.513 173.029 108.669C172.809 108.305 172.638 107.914 172.52 107.505" stroke="#120071" stroke-linecap="round" stroke-linejoin="round"/>
<path d="M182.925 100.083C182.273 100.698 181.732 101.42 181.324 102.218" stroke="#120071" stroke-linecap="round" stroke-linejoin="round"/>
<path d="M157.197 116.749C156.444 116.787 155.7 116.925 154.984 117.159" stroke="#120071" stroke-linecap="round" stroke-linejoin="round"/>
<path d="M170.822 100.447C170.663 101.237 170.637 102.048 170.744 102.848" stroke="#120071" stroke-linecap="round" stroke-linejoin="round"/>
<path d="M163.306 107.708C162.578 107.193 161.765 106.812 160.902 106.583" stroke="#120071" stroke-linecap="round" stroke-linejoin="round"/>
<path d="M201.115 115.46C199.316 112.497 195.602 111.968 194.955 112.453L161.071 133.24C160.101 133.822 158.771 137.343 160.611 140.321C161.09 141.099 161.733 141.764 162.495 142.267C163.257 142.771 164.121 143.101 165.025 143.235C165.929 143.367 166.852 143.301 167.728 143.04C168.603 142.779 169.411 142.329 170.094 141.722C170.483 143.058 171.308 144.226 172.436 145.04C173.565 145.854 174.933 146.266 176.323 146.214C177.714 146.16 179.048 145.645 180.111 144.747C181.174 143.85 181.907 142.622 182.193 141.261C183.194 142.028 184.404 142.475 185.664 142.542C186.923 142.611 188.174 142.296 189.253 141.64C190.33 140.985 191.185 140.019 191.705 138.869C192.223 137.719 192.382 136.439 192.162 135.197C193.505 135.537 194.924 135.421 196.195 134.869C197.466 134.315 198.518 133.354 199.184 132.139C199.851 130.923 200.094 129.521 199.876 128.15C199.658 126.782 198.992 125.524 197.982 124.574C198.842 124.248 199.62 123.737 200.261 123.076C200.9 122.415 201.388 121.622 201.687 120.752C201.985 119.882 202.09 118.957 201.99 118.043C201.892 117.128 201.593 116.246 201.115 115.46Z" stroke="#120071" stroke-linecap="round" stroke-linejoin="round"/>
<path d="M180.862 134.015C180.613 133.171 180.136 132.412 179.484 131.821C178.832 131.23 178.031 130.83 177.166 130.664C176.301 130.499 175.409 130.575 174.585 130.884C173.761 131.193 173.037 131.722 172.495 132.414C171.964 133.098 171.621 133.91 171.5 134.767" stroke="#120071" stroke-linecap="round" stroke-linejoin="round"/>
<path d="M191.513 122.524C190.58 122.201 189.568 122.175 188.618 122.448C187.669 122.72 186.826 123.279 186.206 124.048C185.586 124.817 185.216 125.759 185.151 126.745C185.085 127.731 185.325 128.713 185.837 129.558C186.056 129.925 186.326 130.26 186.638 130.552" stroke="#120071" stroke-linecap="round" stroke-linejoin="round"/>
<path d="M197.989 124.581C197.134 124.896 196.231 125.061 195.32 125.066" stroke="#120071" stroke-linecap="round" stroke-linejoin="round"/>
<path d="M171.436 139.972C171.073 140.619 170.621 141.211 170.094 141.733" stroke="#120071" stroke-linecap="round" stroke-linejoin="round"/>
<path d="M192.167 135.204C191.387 134.98 190.648 134.629 189.98 134.167" stroke="#120071" stroke-linecap="round" stroke-linejoin="round"/>
<path d="M182.268 138.669C182.384 139.534 182.36 140.41 182.199 141.267" stroke="#120071" stroke-linecap="round" stroke-linejoin="round"/>
<path d="M161.07 133.24L157.457 135.421" stroke="#120071" stroke-linecap="round" stroke-linejoin="round"/>
<path d="M158.5 129.067L154.934 131.226" stroke="#120071" stroke-linecap="round" stroke-linejoin="round"/>
<path d="M139.704 146.215L101.188 169.596" stroke="#120071" stroke-linecap="round" stroke-linejoin="round"/>
<path d="M138.928 140.951L98.7383 165.376" stroke="#120071" stroke-linecap="round" stroke-linejoin="round"/>
<path d="M173.124 73.4758C181.75 72.6779 190.423 74.3892 198.099 78.4039C205.775 82.4184 212.129 88.5653 216.395 96.1051C229.278 118.247 222.53 146.843 201.332 159.967C188.072 168.177 184.393 163.836 158.645 171.175" stroke="#120071" stroke-linecap="round" stroke-linejoin="round"/>
<path d="M106.777 193.613C118.556 187.471 129.082 182.101 139.923 177.673" stroke="#120071" stroke-linecap="round" stroke-linejoin="round"/>
<path d="M108.124 128.169C99.9514 134.718 91.0006 141.098 80.5469 148.811" stroke="#120071" stroke-linecap="round" stroke-linejoin="round"/>
<path d="M143.246 90.0898C138.163 97.7322 132.46 104.944 126.195 111.652" stroke="#120071" stroke-linecap="round" stroke-linejoin="round"/>
<path d="M164.615 61.2034C168.713 63.5073 172.886 68.2375 173.637 73.039C164.444 81.0919 145.26 90.891 131.411 93.5579C132.551 97.5367 133.23 101.345 131.483 105.104C131.906 102.986 122.119 100.314 119.671 99.768C117.282 99.2344 108.071 97.5761 106.816 99.3312C107.859 97.0998 108.83 94.48 109.897 91.7634C117.634 91.5456 118.252 81.781 121.393 79.0058C122.382 78.1321 123.94 78.425 125.298 78.206C142.266 75.4461 156.733 66.6608 164.639 61.1792L164.615 61.2034Z" stroke="#120071" stroke-linecap="round" stroke-linejoin="round"/>
<path d="M108.203 103.649C115.147 103.538 121.985 105.355 127.959 108.896" stroke="#120071" stroke-linecap="round" stroke-linejoin="round"/>
<path d="M127.611 73.565C126.82 74.9482 123.763 73.7968 120.641 72.1641C121.086 73.4591 121.742 74.6718 122.582 75.7531" stroke="#120071" stroke-linecap="round" stroke-linejoin="round"/>
<path d="M124.398 78.2965C122.708 77.8813 123.16 77.0586 122.582 75.7557C127.142 75.082 127.931 74.2427 127.744 71.9578C127.47 68.6388 125.521 61.4073 123.503 59.1416" stroke="#120071" stroke-linecap="round" stroke-linejoin="round"/>
<path d="M131.41 93.5581C130.003 93.8256 128.645 94.0192 127.383 94.1414" stroke="#120071" stroke-linecap="round" stroke-linejoin="round"/>
<path d="M121.075 61.034C122.36 64.5262 121.202 65.0357 120.153 63.9633C118.212 61.9752 116.054 64.6001 119.595 67.4797C119.133 71.1144 118.212 74.6758 116.854 78.0786C113.895 83.8518 105.164 92.1952 95.0015 94.2813C86.4875 96.0274 79.8902 92.6804 87.4873 83.9486C92.653 78.006 100.561 75.6295 101.288 75.4155C88.943 78.3741 86.2047 71.9258 95.7338 65.0344C105.22 58.1735 119.211 54.6291 123.505 59.1402C123.915 59.9705 122.321 60.2635 121.075 61.034Z" stroke="#120071" stroke-linecap="round" stroke-linejoin="round"/>
<path d="M109.895 91.7634C111.176 88.2974 112.826 84.9797 114.818 81.8675C115.606 80.6893 116.28 79.4389 116.831 78.1333" stroke="#120071" stroke-linecap="round" stroke-linejoin="round"/>
<path d="M126.23 111.614C127.913 109.137 129.427 106.551 130.766 103.873" stroke="#120071" stroke-linecap="round" stroke-linejoin="round"/>
<path d="M178.922 60.0152C182.583 59.1415 185.598 60.7921 185.348 62.1981C185.292 62.48 185.177 62.7467 185.01 62.9806C184.842 63.2147 184.628 63.4106 184.379 63.5558" stroke="#120071" stroke-linecap="round" stroke-linejoin="round"/>
<path d="M178.582 57.7837C182.438 56.8617 186.271 58.8026 184.621 60.8404" stroke="#120071" stroke-linecap="round" stroke-linejoin="round"/>
<path d="M173.223 71.2928C175.505 68.6878 178.433 66.7304 181.712 65.6177" stroke="#120071" stroke-linecap="round" stroke-linejoin="round"/>
<path d="M178.776 62.6338C182.342 61.9066 184.69 63.3127 184.549 64.6958C184.374 66.3935 180.983 68.9649 178.121 67.3156" stroke="#120071" stroke-linecap="round" stroke-linejoin="round"/>
<path d="M175.77 56.4974C175.818 56.449 177.298 54.3884 176.644 53.7324C176.086 53.1746 168.033 59.7961 165.777 61.9064" stroke="#120071" stroke-linecap="round" stroke-linejoin="round"/>
<path d="M180.403 57.5407C186.807 54.4611 188.526 50.746 187.316 51.4274C183.279 53.4486 179.132 55.2462 174.897 56.8122C171.619 58.0594 168.539 59.7754 165.754 61.9066" stroke="#120071" stroke-linecap="round" stroke-linejoin="round"/>
<path d="M156.076 182.863C155.504 188.61 155.439 194.398 155.882 200.157C156.5 205.734 156.803 210.658 155.979 211.193C152.994 213.13 149.083 199.56 144.531 194.942C143.425 193.877 142.536 192.608 141.912 191.207C140.867 188.705 142.134 186.664 142.032 182.625" stroke="#120071" stroke-linecap="round" stroke-linejoin="round"/>
<path d="M100.049 167.559C107.213 179.972 110.117 191.721 106.5 193.796C102.913 195.861 94.1788 187.49 87.0237 175.074C79.8686 162.657 76.961 150.925 80.5717 148.835C84.1823 146.745 92.8785 155.135 100.049 167.559Z" stroke="#120071" stroke-linecap="round" stroke-linejoin="round"/>
<path d="M63.2365 213.627C61.4229 202.339 50.5208 183.558 41.6693 176.776C37.0971 173.234 33.8227 173.861 34.1971 179.801C34.9078 191.072 47.4591 212.818 56.8277 219.199C62.0291 222.739 64.2655 220.034 63.2365 213.627Z" stroke="#120071" stroke-linecap="round" stroke-linejoin="round"/>
<path d="M62.1409 220.336L69.3418 216.17C70.0355 215.626 70.5071 214.848 70.668 213.982C70.8289 213.116 70.6679 212.22 70.2155 211.464C73.0811 215.78 78.704 211.324 76.4485 207.583C78.541 211.149 85.1204 208.847 82.4153 203.436C83.0284 204.231 83.9022 204.783 84.8827 204.995C85.8631 205.209 86.8873 205.069 87.7746 204.6C90.7039 202.731 89.6175 199.095 87.8001 193.176C84.4006 183.012 79.0078 173.626 71.9374 165.571C70.2382 163.547 68.2927 161.743 66.1463 160.201C62.7522 158.096 58.9339 159.674 60.247 165.402C59.167 163.602 57.8998 162.425 55.7589 163C55.2183 163.15 54.72 163.424 54.3029 163.798C53.8857 164.174 53.561 164.64 53.3544 165.162C53.1477 165.683 53.0647 166.246 53.1118 166.805C53.1588 167.364 53.3347 167.904 53.6256 168.384C53.6256 168.384 51.1128 165.208 48.265 167.464C47.5578 168.015 47.0813 168.81 46.9287 169.692C46.7762 170.576 46.9583 171.484 47.4397 172.241C47.2105 171.836 46.9033 171.482 46.536 171.196C46.1687 170.911 45.7486 170.702 45.2998 170.58C44.8511 170.458 44.3828 170.427 43.9218 170.487C43.4607 170.547 43.0164 170.698 42.614 170.932L35.8359 174.831" stroke="#120071" stroke-linecap="round" stroke-linejoin="round"/>
<path d="M238.152 181.845C235.16 183.497 232.292 185.362 229.567 187.424C221.561 193.607 213.752 201.37 214.793 202.728C215.833 204.087 225.297 198.512 233.322 192.323C236.012 190.209 238.542 187.899 240.89 185.41" stroke="#120071" stroke-linecap="round" stroke-linejoin="round"/>
<path d="M238.152 181.845C239.898 175.806 245.72 177.649 248.922 174.01C249.504 179.566 246.447 185.144 240.917 185.41L238.152 181.845Z" stroke="#120071" stroke-linecap="round" stroke-linejoin="round"/>
<path d="M230.574 186.663L234.321 191.522" stroke="#120071" stroke-linecap="round" stroke-linejoin="round"/>
<path d="M243.853 65.666L240.676 72.7842H246.496L243.294 79.9036" stroke="#120071" stroke-linecap="round" stroke-linejoin="round"/>
<path d="M130.754 241.487L117.852 241.874" stroke="#120071" stroke-linecap="round" stroke-linejoin="round"/>
<path d="M124.498 248.132L124.109 235.228" stroke="#120071" stroke-linecap="round" stroke-linejoin="round"/>
<path d="M110.258 98.5557C110.039 99.6813 109.698 100.779 109.239 101.83C105.285 99.8649 106.208 98.5799 110.258 98.5557Z" stroke="#120071" stroke-linecap="round" stroke-linejoin="round"/>
<path d="M131.481 105.104C131.364 105.544 130.741 105.83 129.688 105.973" stroke="#120071" stroke-linecap="round" stroke-linejoin="round"/>
<path d="M110.258 98.5557C109.86 101.311 108.462 103.824 106.329 105.613C96.7972 113.18 96.6494 123.779 103.612 131.711" stroke="#120071" stroke-linecap="round" stroke-linejoin="round"/>
<path d="M35.4107 175.097L24.6641 181.19" stroke="#120071" stroke-linecap="round" stroke-linejoin="round"/>
<path d="M61.6475 220.602L52 226.23" stroke="#120071" stroke-linecap="round" stroke-linejoin="round"/>
<path d="M47.3426 229.165L40.1875 233.337" stroke="#120071" stroke-linecap="round" stroke-linejoin="round"/>
<path d="M19.6675 184.318L12.3672 188.466" stroke="#120071" stroke-linecap="round" stroke-linejoin="round"/>
<path d="M42.3233 201.418L18.8203 215.315" stroke="#120071" stroke-linecap="round" stroke-linejoin="round"/>
<path d="M14.1387 218.251L7.00781 222.398" stroke="#120071" stroke-linecap="round" stroke-linejoin="round"/>
<path d="M52.5082 113.957C50.045 116.325 46.9348 117.909 43.5711 118.509C40.2076 119.109 36.7414 118.699 33.6113 117.329C30.4812 115.959 27.8275 113.692 25.9859 110.814C24.1443 107.936 23.1975 104.577 23.2651 101.16C23.3329 97.7444 24.412 94.425 26.3662 91.6223C28.3203 88.8195 31.0617 86.6592 34.2437 85.4146C37.4256 84.1699 40.9052 83.8968 44.2424 84.6296C47.5797 85.3626 50.6246 87.0686 52.9922 89.5321C54.5656 91.1669 55.8014 93.0958 56.6287 95.2085C57.456 97.3213 57.8588 99.5765 57.8139 101.845C57.769 104.114 57.2772 106.351 56.3667 108.429C55.4564 110.508 54.1452 112.386 52.5082 113.957Z" stroke="#120071" stroke-linecap="round" stroke-linejoin="round"/>
<path d="M57.7977 102.528C63.1583 105.075 66.3308 107.495 65.8749 109.023C65.0585 111.783 52.9949 110.721 38.9038 106.646C24.8127 102.57 14.0393 97.0261 14.843 94.2624C15.3015 92.6844 19.3783 92.3456 25.4139 93.0983" stroke="#120071" stroke-linecap="round" stroke-linejoin="round"/>
<path d="M104.566 120.553C105.269 124.967 107.75 129.015 111.091 130.062C121.523 133.325 139.589 141.243 139.589 141.243C139.815 153.734 140.946 167.479 139.736 181.845C145.52 184.28 152.013 184.427 157.902 182.256C158.921 168.699 159.574 155.698 159.332 143.692C159.278 140.704 158.586 137.763 157.302 135.064C156.017 132.367 154.172 129.974 151.887 128.048C142.461 120.256 131.951 113.875 120.689 109.106" stroke="#120071" stroke-linecap="round" stroke-linejoin="round"/>
<path d="M139.582 141.243L142.371 142.286L139.825 149.586" stroke="#120071" stroke-linecap="round" stroke-linejoin="round"/>
<path d="M140.238 172.264C146.135 174.288 152.484 174.599 158.55 173.162" stroke="#120071" stroke-linecap="round" stroke-linejoin="round"/>
<path d="M134.902 7.86768V11.919" stroke="#120071" stroke-linecap="round" stroke-linejoin="round"/>
<path d="M142.786 15.75H138.734" stroke="#120071" stroke-linecap="round" stroke-linejoin="round"/>
<path d="M134.902 23.6334V19.582" stroke="#120071" stroke-linecap="round" stroke-linejoin="round"/>
<path d="M127.02 15.75H131.072" stroke="#120071" stroke-linecap="round" stroke-linejoin="round"/>
<path d="M138.731 15.7499C138.228 15.7512 137.729 15.6532 137.264 15.4611C136.798 15.269 136.375 14.9868 136.02 14.6308C135.663 14.2749 135.381 13.852 135.189 13.3865C134.997 12.9212 134.899 12.4224 134.9 11.9189C134.901 12.4223 134.803 12.921 134.611 13.3863C134.42 13.8516 134.137 14.2744 133.782 14.6305C133.425 14.9864 133.002 15.2685 132.537 15.4607C132.073 15.6528 131.573 15.7511 131.07 15.7499C131.573 15.7488 132.073 15.8471 132.537 16.0393C133.004 16.2315 133.426 16.5137 133.782 16.8699C134.137 17.226 134.42 17.649 134.612 18.1145C134.803 18.5799 134.901 19.0788 134.9 19.5822C134.899 19.0786 134.997 18.5798 135.189 18.1141C135.38 17.6486 135.663 17.2255 136.018 16.8694C136.375 16.5133 136.798 16.2311 137.263 16.0389C137.729 15.8467 138.228 15.7485 138.731 15.7499Z" stroke="#120071" stroke-linecap="round" stroke-linejoin="round"/>
</svg>
