<svg width="256" height="256" viewBox="0 0 256 256" fill="none" xmlns="http://www.w3.org/2000/svg">
<path d="M121.682 23.1373C112.185 23.4022 104.695 30.6515 104.96 39.3273C105.25 49.4269 115.64 56.3629 126.056 54.0908L125.499 47.542C125.378 46.4566 125.472 45.358 125.776 44.3089C126.08 43.26 126.587 42.2811 127.269 41.4283C127.952 40.5755 128.795 39.8655 129.752 39.3389C130.708 38.8123 131.76 38.4794 132.846 38.3593L139.298 37.804C138.767 29.3957 130.985 22.8711 121.682 23.1373Z" fill="#FECFC4"/>
<path fill-rule="evenodd" clip-rule="evenodd" d="M112.691 192.745L190.112 186.221C192.227 186.04 194.183 185.027 195.551 183.405C196.92 181.782 197.588 179.683 197.41 177.569L192.916 124.771C192.735 122.656 191.722 120.701 190.1 119.332C188.478 117.964 186.379 117.295 184.265 117.473L142.899 120.954C142.168 122.068 141.691 122.649 140.594 123.512C139.415 124.413 138.041 125.021 136.582 125.285C135.123 125.55 133.622 125.463 132.203 125.033C130.784 124.603 129.488 123.841 128.422 122.811C128.233 122.625 128.045 122.438 127.857 122.251L114.952 123.335C119.232 138.528 119.682 149.068 119.997 164.121C120.257 168.546 119.651 172.979 118.213 177.17L112.691 192.745ZM157.781 158.383L165.587 162.032L164.184 145.455L157.105 150.384C156.856 148.823 156.025 147.414 154.778 146.441C153.531 145.468 151.963 145.004 150.388 145.142L135.284 146.447C134.462 146.515 133.663 146.745 132.929 147.124C132.197 147.502 131.547 148.023 131.017 148.654C130.486 149.285 130.088 150.016 129.841 150.803C129.595 151.589 129.507 152.417 129.582 153.238L130.186 160.243C130.253 161.064 130.484 161.864 130.862 162.597C131.24 163.329 131.761 163.98 132.393 164.509C133.023 165.039 133.754 165.439 134.54 165.686C135.327 165.932 136.155 166.02 136.977 165.945L152.055 164.689C152.875 164.619 153.675 164.387 154.406 164.008C155.137 163.628 155.785 163.107 156.315 162.477C156.845 161.846 157.245 161.117 157.492 160.331C157.69 159.699 157.788 159.041 157.781 158.381V158.383Z" fill="#FECFC4"/>
<path d="M214.519 124.988C214.585 125.565 214.535 126.15 214.373 126.707C214.212 127.265 213.942 127.786 213.579 128.239C213.214 128.692 212.765 129.068 212.255 129.345C211.746 129.624 211.185 129.799 210.609 129.859C210.03 129.92 209.447 129.865 208.89 129.699C208.334 129.533 207.816 129.259 207.366 128.891C206.916 128.523 206.544 128.07 206.271 127.558C205.997 127.046 205.827 126.485 205.771 125.907L205.071 119.284C204.96 118.129 205.309 116.978 206.043 116.08C206.778 115.182 207.836 114.61 208.99 114.489C210.142 114.368 211.298 114.707 212.202 115.433C213.106 116.159 213.687 117.213 213.818 118.366L214.519 124.988Z" fill="#FECFC4"/>
<path d="M166.047 45.1743C166.421 46.053 166.705 46.9681 166.893 47.9049C167.617 46.3828 168.045 44.7363 168.152 43.0537C167.402 43.8752 166.7 44.5706 166.047 45.1743Z" fill="#6153BD"/>
<path d="M100.344 78.3999C100.552 79.5427 100.943 80.6442 101.504 81.6616C103.365 81.6616 105.419 81.4209 105.926 80.672C105.999 80.5446 106.071 80.4058 106.144 80.2606C105.443 81.6412 102.909 80.2403 100.344 78.3999Z" fill="#6153BD"/>
<path d="M36.3833 132.141C31.8887 125.689 3.30284 149.249 7.4102 155.193L8.11068 155.821C14.0558 159.132 39.8869 137.216 36.3833 132.141Z" fill="#6153BD"/>
<path d="M85.2916 215.313C79.4178 218.106 97.5831 250.875 103.122 246.22C106.436 241.411 89.9313 213.091 85.2916 215.313Z" fill="#6153BD"/>
<path d="M30.0286 152.632C29.9154 153.048 29.8829 153.484 29.9331 153.913C30.175 155.459 32.1555 155.532 33.4851 155.169C32.554 154.057 31.3682 153.187 30.0286 152.632Z" fill="#6153BD"/>
<path d="M42.8594 140.018C43.7776 141.154 44.7201 142.289 45.5658 143.329C45.7074 142.924 45.7968 142.502 45.832 142.074C45.8562 141.711 45.7856 141.346 45.6273 141.019C45.469 140.691 45.2283 140.41 44.9287 140.203C44.6293 139.995 44.2811 139.87 43.9185 139.837C43.5558 139.805 43.1909 139.868 42.8594 140.018Z" fill="#6153BD"/>
<path d="M86.8373 91.066C86.5696 91.0948 86.3164 91.2022 86.1097 91.3749C85.9031 91.5475 85.7523 91.7775 85.6763 92.0359C85.6004 92.2942 85.6028 92.5693 85.6832 92.8263C85.7637 93.0832 85.9184 93.3106 86.1281 93.4796C86.3377 93.6487 86.5927 93.7517 86.8609 93.7758C87.1291 93.7998 87.3983 93.7438 87.6347 93.6149C87.8711 93.4859 88.0639 93.2898 88.1887 93.0512C88.3137 92.8127 88.365 92.5424 88.3364 92.2747C88.3198 92.0959 88.2674 91.9223 88.1826 91.7641C88.0978 91.6058 87.982 91.4662 87.8423 91.3535C87.7025 91.2409 87.5415 91.1574 87.3689 91.108C87.1963 91.0585 87.0155 91.0443 86.8373 91.066Z" fill="#6153BD"/>
<path d="M77.1732 102.298C76.9055 102.327 76.6523 102.434 76.4456 102.607C76.2391 102.78 76.0883 103.01 76.0124 103.268C75.9363 103.526 75.9387 103.801 76.0191 104.058C76.0996 104.315 76.2543 104.543 76.464 104.712C76.6736 104.881 76.9286 104.984 77.1968 105.008C77.465 105.032 77.7343 104.976 77.9706 104.847C78.207 104.718 78.3998 104.522 78.5248 104.283C78.6496 104.045 78.7009 103.774 78.6723 103.507C78.6535 103.329 78.5999 103.156 78.5143 102.999C78.4288 102.842 78.313 102.703 78.1738 102.591C78.0345 102.479 77.8744 102.395 77.7027 102.345C77.531 102.295 77.351 102.279 77.1732 102.298Z" fill="#6153BD"/>
<path d="M82.8971 117.135C82.6293 117.164 82.376 117.271 82.1692 117.443C81.9623 117.616 81.8113 117.846 81.7352 118.104C81.6591 118.363 81.6612 118.638 81.7416 118.895C81.8218 119.152 81.9766 119.379 82.1861 119.549C82.3957 119.718 82.6508 119.821 82.9191 119.845C83.1873 119.869 83.4566 119.813 83.6931 119.684C83.9295 119.555 84.1224 119.359 84.2473 119.121C84.3722 118.882 84.4236 118.612 84.3949 118.344C84.3759 118.166 84.3223 117.994 84.2367 117.837C84.1513 117.68 84.0356 117.541 83.8965 117.429C83.7575 117.317 83.5975 117.233 83.4261 117.183C83.2546 117.132 83.0748 117.116 82.8971 117.135Z" fill="#6153BD"/>
<path d="M70.3346 99.7368C70.0668 99.7653 69.8134 99.8726 69.6066 100.045C69.3998 100.218 69.2487 100.448 69.1727 100.706C69.0965 100.964 69.0988 101.239 69.1791 101.496C69.2593 101.754 69.414 101.981 69.6237 102.15C69.8332 102.319 70.0883 102.422 70.3565 102.447C70.6247 102.471 70.8941 102.415 71.1306 102.286C71.367 102.157 71.5599 101.961 71.6847 101.722C71.8097 101.484 71.861 101.213 71.8324 100.945C71.8135 100.768 71.7598 100.595 71.6742 100.439C71.5887 100.281 71.4731 100.143 71.334 100.031C71.1949 99.9184 71.035 99.8347 70.8635 99.7843C70.6921 99.7338 70.5123 99.7177 70.3346 99.7368Z" fill="#6153BD"/>
<path d="M98.3384 96.3784C98.0705 96.4069 97.8171 96.5143 97.6103 96.6869C97.4034 96.8594 97.2525 97.0895 97.1765 97.3479C97.1004 97.6063 97.1027 97.8815 97.1831 98.1385C97.2635 98.3957 97.4183 98.6231 97.6281 98.7921C97.8379 98.9613 98.093 99.0643 98.3613 99.0883C98.6295 99.1123 98.899 99.0562 99.1354 98.927C99.3718 98.7979 99.5645 98.6015 99.6893 98.3627C99.814 98.124 99.8652 97.8536 99.8361 97.5858C99.817 97.4081 99.7633 97.2361 99.6777 97.0793C99.5921 96.9224 99.4765 96.7839 99.3374 96.6718C99.1983 96.5598 99.0385 96.4761 98.8671 96.4258C98.6956 96.3754 98.5161 96.3593 98.3384 96.3784Z" fill="#6153BD"/>
<path d="M90.4622 107.397C90.1943 107.426 89.9412 107.534 89.7346 107.706C89.5279 107.879 89.3771 108.109 89.3012 108.367C89.2254 108.626 89.2278 108.901 89.3084 109.158C89.3889 109.415 89.5438 109.642 89.7535 109.811C89.9633 109.98 90.2184 110.083 90.4866 110.107C90.755 110.131 91.0242 110.075 91.2606 109.946C91.4969 109.816 91.6895 109.62 91.8142 109.381C91.939 109.143 91.9901 108.872 91.9612 108.605C91.9424 108.427 91.8885 108.254 91.8029 108.097C91.7173 107.941 91.6015 107.802 91.4622 107.69C91.323 107.578 91.163 107.494 90.9914 107.444C90.8198 107.394 90.6398 107.378 90.4622 107.397Z" fill="#6153BD"/>
<path d="M104.6 112.52C104.332 112.549 104.079 112.656 103.872 112.828C103.665 113.001 103.514 113.231 103.438 113.489C103.362 113.747 103.364 114.023 103.445 114.28C103.525 114.537 103.68 114.764 103.889 114.933C104.099 115.102 104.354 115.206 104.622 115.23C104.89 115.254 105.16 115.198 105.396 115.069C105.633 114.94 105.826 114.744 105.95 114.505C106.075 114.267 106.127 113.996 106.098 113.729C106.079 113.551 106.025 113.379 105.94 113.222C105.854 113.065 105.739 112.926 105.6 112.814C105.46 112.702 105.301 112.618 105.129 112.567C104.958 112.517 104.778 112.501 104.6 112.52Z" fill="#6153BD"/>
<path d="M110.471 89.0805C110.204 89.109 109.95 89.2163 109.743 89.3887C109.537 89.5613 109.386 89.7913 109.309 90.0496C109.233 90.308 109.236 90.5831 109.316 90.8401C109.396 91.0972 109.551 91.3247 109.76 91.4938C109.97 91.663 110.225 91.7661 110.493 91.7903C110.761 91.8145 111.031 91.7585 111.267 91.6296C111.504 91.5006 111.697 91.3045 111.822 91.0658C111.947 90.8272 111.998 90.557 111.969 90.2891C111.953 90.1105 111.9 89.937 111.815 89.7788C111.731 89.6208 111.615 89.4812 111.476 89.3685C111.336 89.2559 111.175 89.1723 111.003 89.1228C110.83 89.0734 110.649 89.059 110.471 89.0805Z" fill="#6153BD"/>
<path d="M123.132 111.939C122.864 111.968 122.61 112.075 122.403 112.248C122.197 112.42 122.046 112.65 121.97 112.908C121.893 113.167 121.896 113.442 121.976 113.699C122.056 113.956 122.211 114.184 122.421 114.353C122.63 114.522 122.885 114.625 123.153 114.649C123.422 114.673 123.691 114.617 123.927 114.488C124.164 114.359 124.357 114.163 124.482 113.925C124.607 113.686 124.658 113.416 124.629 113.148C124.591 112.789 124.411 112.46 124.131 112.234C123.85 112.007 123.49 111.901 123.132 111.939Z" fill="#6153BD"/>
<path d="M123.182 99.2527C123.36 99.234 123.532 99.1803 123.689 99.0949C123.846 99.0094 123.985 98.8938 124.097 98.7547C124.209 98.6155 124.293 98.4555 124.343 98.284C124.394 98.1124 124.41 97.9327 124.39 97.7549C124.343 97.4035 124.16 97.0845 123.881 96.8657C123.602 96.6469 123.248 96.5456 122.896 96.5835C122.543 96.6213 122.219 96.7953 121.993 97.0683C121.767 97.3412 121.656 97.6917 121.684 98.0453C121.703 98.2231 121.756 98.3954 121.842 98.5523C121.927 98.7093 122.043 98.8479 122.182 98.96C122.321 99.0722 122.481 99.1559 122.653 99.2061C122.824 99.2562 123.004 99.2722 123.182 99.2527Z" fill="#6153BD"/>
<path d="M137.944 114.815C137.676 114.843 137.423 114.951 137.215 115.123C137.009 115.296 136.857 115.526 136.782 115.784C136.706 116.042 136.708 116.317 136.789 116.575C136.869 116.832 137.023 117.059 137.233 117.228C137.442 117.397 137.698 117.501 137.965 117.525C138.234 117.549 138.503 117.493 138.74 117.364C138.977 117.235 139.169 117.039 139.294 116.8C139.419 116.562 139.469 116.291 139.441 116.024C139.422 115.846 139.369 115.674 139.284 115.517C139.198 115.36 139.082 115.221 138.943 115.109C138.803 114.997 138.644 114.913 138.472 114.862C138.302 114.812 138.121 114.796 137.944 114.815Z" fill="#6153BD"/>
<path d="M139.635 100.414C139.368 100.443 139.114 100.55 138.907 100.723C138.7 100.895 138.549 101.125 138.474 101.384C138.397 101.642 138.4 101.917 138.48 102.174C138.56 102.431 138.716 102.659 138.924 102.828C139.135 102.997 139.389 103.1 139.658 103.124C139.927 103.148 140.195 103.092 140.432 102.963C140.668 102.834 140.862 102.637 140.986 102.399C141.111 102.16 141.162 101.889 141.133 101.622C141.114 101.444 141.06 101.272 140.975 101.115C140.89 100.958 140.774 100.819 140.635 100.707C140.495 100.595 140.336 100.511 140.164 100.461C139.993 100.411 139.812 100.395 139.635 100.414Z" fill="#6153BD"/>
<path d="M151.72 95.5812C151.692 95.3133 151.583 95.06 151.411 94.8532C151.238 94.6464 151.009 94.4953 150.75 94.4193C150.492 94.3431 150.217 94.3454 149.96 94.4256C149.702 94.5059 149.476 94.6606 149.306 94.8703C149.137 95.0798 149.034 95.3349 149.009 95.6031C148.985 95.8713 149.041 96.1407 149.17 96.3772C149.3 96.6136 149.496 96.8065 149.734 96.9315C149.972 97.0563 150.244 97.1077 150.511 97.0789C150.689 97.0601 150.861 97.0064 151.018 96.9208C151.175 96.8353 151.313 96.7197 151.425 96.5806C151.538 96.4415 151.622 96.2817 151.673 96.1101C151.722 95.9387 151.739 95.759 151.72 95.5812Z" fill="#6153BD"/>
<path d="M192.048 19.9711C191.9 18.0975 191.09 16.3378 189.762 15.0084C188.432 13.679 186.673 12.8671 184.8 12.7186C182.926 12.57 181.062 13.0946 179.54 14.198C178.018 15.3014 176.94 16.9113 176.5 18.7383C174.317 17.7223 171.908 17.2856 169.508 17.4703C167.107 17.655 164.795 18.4548 162.793 19.7927C160.791 21.1306 159.167 22.9614 158.078 25.109C156.989 27.2565 156.472 29.6482 156.575 32.0538C159.486 31.2649 162.477 30.8106 165.491 30.6999C165.654 31.6898 165.879 32.6682 166.167 33.6292C166.433 34.2329 166.843 34.2813 167.568 33.1695C169.188 30.826 172.474 34.4507 168.631 37.2539C170.29 40.1241 172.396 42.7104 174.872 44.9146C177.907 43.937 180.52 41.9587 182.286 39.303C184.049 36.6474 184.861 33.4717 184.587 30.2949C184.537 29.712 184.452 29.1328 184.332 28.5603C184.507 28.5612 184.68 28.5514 184.853 28.531C185.887 28.4413 186.895 28.1489 187.816 27.6702C188.738 27.1916 189.555 26.536 190.223 25.7412C190.891 24.9463 191.397 24.0277 191.709 23.0376C192.022 22.0476 192.137 21.0056 192.048 19.9711Z" fill="#6153BD"/>
<path d="M89.6406 147.292L89.9068 157.098L93.3583 153.982C91.8531 151.91 90.6047 149.664 89.6406 147.292Z" fill="#6153BD"/>
<path d="M111.824 102.516L115.255 107.397L115.449 113.656L111.824 102.516Z" fill="#6153BD"/>
<path d="M105.904 69.4351C106.325 69.3582 106.704 69.1341 106.974 68.8031C107.244 68.4719 107.388 68.0556 107.379 67.6283C107.371 67.201 107.21 66.7908 106.927 66.471C106.643 66.1513 106.255 65.9428 105.832 65.8831C106.159 65.6439 106.396 65.3014 106.505 64.9109C106.614 64.5204 106.589 64.1046 106.432 63.7304C106.276 63.3564 105.998 63.0457 105.644 62.8487C105.29 62.6517 104.879 62.5796 104.479 62.6443C104.684 62.3039 104.771 61.9052 104.727 61.5103C104.682 61.1154 104.509 60.7461 104.233 60.4598C103.957 60.1735 103.595 59.9862 103.202 59.9268C102.809 59.8675 102.407 59.9394 102.059 60.1315C102.142 59.7261 102.084 59.3045 101.894 58.9369C101.704 58.5693 101.394 58.2778 101.015 58.1112C100.637 57.9445 100.212 57.9126 99.8128 58.021C99.4134 58.1293 99.0632 58.3711 98.8206 58.7063C98.7815 58.2708 98.5917 57.8625 98.2839 57.5518C97.976 57.2412 97.5695 57.0477 97.1342 57.0047C96.699 56.9618 96.2624 57.0719 95.8998 57.3162C95.5371 57.5606 95.271 57.9238 95.1475 58.3434C94.9766 57.967 94.682 57.6606 94.3127 57.475C93.9433 57.2895 93.5216 57.236 93.1176 57.3235C92.7137 57.4111 92.352 57.6343 92.0925 57.9562C91.8332 58.278 91.692 58.679 91.6922 59.0922C91.3906 58.8329 91.0123 58.68 90.6153 58.6569C90.2183 58.6337 89.8247 58.7417 89.4951 58.9642C89.1655 59.1867 88.9182 59.5114 88.7911 59.8882C88.6641 60.2651 88.6645 60.6732 88.7922 61.0498C88.4164 60.9099 88.0047 60.8994 87.6222 61.02C87.2397 61.1406 86.9085 61.3854 86.681 61.7156C86.4534 62.0458 86.3426 62.4426 86.366 62.8429C86.3896 63.2432 86.546 63.6242 86.8105 63.9256C86.3841 63.9021 85.9631 64.0302 85.6219 64.2871C85.2808 64.544 85.0414 64.9131 84.946 65.3294C84.8506 65.7457 84.9053 66.1822 85.1007 66.562C85.296 66.9419 85.6192 67.2405 86.0132 67.405C85.5944 67.4862 85.2179 67.7134 84.9509 68.0462C84.684 68.379 84.5438 68.7957 84.5554 69.2221C84.5671 69.6486 84.7297 70.0572 85.0144 70.3748C85.2991 70.6926 85.6873 70.8989 86.11 70.9571C85.7896 71.2002 85.5597 71.5435 85.4569 71.9323C85.3542 72.3212 85.3845 72.7333 85.5429 73.1029C85.7013 73.4726 85.979 73.7786 86.3314 73.9722C86.6839 74.1659 87.0911 74.2361 87.4881 74.1717C87.2877 74.5138 87.2056 74.9123 87.2542 75.3057C87.3028 75.6991 87.4795 76.0656 87.7571 76.3486C88.0346 76.6316 88.3976 76.8155 88.79 76.8718C89.1823 76.9282 89.5824 76.8539 89.9283 76.6603C89.8483 77.0648 89.9093 77.4844 90.101 77.8494C90.2927 78.2145 90.6037 78.5028 90.9819 78.6665C91.3603 78.8302 91.7834 78.8595 92.1808 78.7494C92.578 78.6392 92.9257 78.3964 93.1658 78.0612C93.1868 78.363 93.2823 78.6547 93.4438 78.9105C93.6053 79.1662 93.8278 79.3778 94.0912 79.5264C94.3547 79.6749 94.6508 79.7558 94.9532 79.7617C95.2556 79.7676 95.5547 79.6984 95.8238 79.5603C96.0416 79.2941 99.0078 75.6452 100.053 74.3156C97.4922 71.4169 99.6178 69.5319 100.996 71.4411C101.721 72.4803 102.779 72.1899 102.155 69.0964C102.956 68.7482 103.723 68.3279 104.447 67.8406C104.957 69.7968 105.339 71.4653 105.655 72.8662C106.022 72.7702 106.349 72.5617 106.592 72.2701C106.834 71.9784 106.979 71.6182 107.007 71.24C107.034 70.8617 106.943 70.4843 106.745 70.1607C106.547 69.8371 106.253 69.5834 105.904 69.4351Z" fill="#6153BD"/>
<path d="M105.663 72.8662C105.349 71.4653 104.962 69.7981 104.455 67.8406C103.731 68.3279 102.963 68.7482 102.163 69.0964C102.792 72.19 101.736 72.474 101.004 71.4411C99.6409 69.5205 97.5 71.4169 100.061 74.3156C99.022 75.6452 96.0494 79.2941 95.8316 79.5603C95.5625 79.6985 95.2634 79.7676 94.961 79.7618C94.6586 79.7558 94.3625 79.6749 94.099 79.5264C93.8356 79.3778 93.6131 79.1661 93.4516 78.9105C93.2901 78.6548 93.1946 78.363 93.1736 78.0613C92.9335 78.3963 92.5858 78.6392 92.1886 78.7494C91.7912 78.8594 91.3681 78.8303 90.9899 78.6665C90.6115 78.5027 90.3005 78.2144 90.1088 77.8493C89.9171 77.4845 89.8561 77.0648 89.9361 76.6603C89.5902 76.8539 89.1902 76.9281 88.7978 76.8718C88.4054 76.8156 88.0424 76.6316 87.7649 76.3487C87.4873 76.0655 87.3106 75.6991 87.2621 75.3057C87.2134 74.9123 87.2955 74.5138 87.4959 74.1717C87.0989 74.2361 86.6917 74.166 86.3392 73.9722C85.9868 73.7785 85.7091 73.4725 85.5507 73.1029C85.3923 72.7333 85.362 72.3211 85.4647 71.9323C85.5675 71.5435 85.7974 71.2003 86.1178 70.9571C85.6951 70.8989 85.3069 70.6926 85.0222 70.3748C84.7375 70.0571 84.5749 69.6486 84.5632 69.2221C84.5516 68.7957 84.6918 68.3788 84.9587 68.0461C85.2257 67.7134 85.6022 67.4862 86.0211 67.4051C85.627 67.2405 85.3038 66.9418 85.1084 66.5621C84.9131 66.1823 84.8584 65.7457 84.9538 65.3295C85.0492 64.9131 85.2886 64.5439 85.6297 64.287C85.9709 64.0303 86.3919 63.9021 86.8183 63.9256C86.5538 63.6242 86.3973 63.2432 86.3738 62.8429C86.3504 62.4425 86.4612 62.0457 86.6888 61.7156C86.9163 61.3854 87.2475 61.1406 87.63 61.02C88.0125 60.8994 88.4242 60.9098 88.8 61.0498C88.676 60.6742 88.678 60.2684 88.806 59.8941C88.934 59.5199 89.1807 59.1977 89.5088 58.9768C89.8368 58.7558 90.228 58.6482 90.623 58.6701C91.0179 58.6921 91.3948 58.8426 91.6962 59.0986C91.696 58.6854 91.8372 58.2843 92.0965 57.9625C92.3559 57.6407 92.7176 57.4174 93.1216 57.3299C93.5256 57.2424 93.9473 57.2957 94.3166 57.4813C94.686 57.6669 94.9806 57.9734 95.1515 58.3498C95.275 57.9302 95.5411 57.567 95.9038 57.3226C96.2664 57.0782 96.703 56.968 97.1382 57.0111C97.5735 57.0541 97.98 57.2476 98.2879 57.5582C98.5957 57.8688 98.7855 58.2772 98.8246 58.7127C99.0672 58.3775 99.4174 58.1357 99.8168 58.0273C100.216 57.919 100.641 57.9509 101.019 58.1176C101.398 58.2842 101.708 58.5756 101.898 58.9433C102.088 59.3109 102.146 59.7325 102.063 60.1379C102.411 59.9458 102.813 59.8739 103.206 59.9332C103.599 59.9926 103.961 60.1799 104.237 60.4662C104.513 60.7525 104.686 61.1217 104.731 61.5167C104.775 61.9116 104.688 62.3103 104.483 62.6507C104.883 62.586 105.294 62.658 105.648 62.855C106.002 63.052 106.28 63.3626 106.436 63.7368C106.593 64.1109 106.618 64.5267 106.509 64.9173C106.4 65.3078 106.163 65.6503 105.836 65.8895C106.259 65.9492 106.647 66.1576 106.931 66.4774C107.214 66.7972 107.375 67.2074 107.383 67.6346C107.392 68.0618 107.248 68.4783 106.978 68.8095C106.708 69.1405 106.329 69.3645 105.908 69.4415C106.255 69.5907 106.547 69.8441 106.743 70.1666C106.939 70.4891 107.03 70.8648 107.003 71.2413C106.976 71.6179 106.833 71.9766 106.592 72.2678C106.352 72.5591 106.027 72.7682 105.663 72.8662Z" stroke="#120071" stroke-linecap="round" stroke-linejoin="round"/>
<path d="M105.949 62.9587L112.425 62.4276C113.199 62.3601 113.977 62.4461 114.717 62.6808C115.457 62.9154 116.143 63.294 116.736 63.7948C117.329 64.2957 117.817 64.9088 118.172 65.5989C118.527 66.289 118.742 67.0426 118.805 67.8162L120.569 89.0076" stroke="#120071" stroke-linecap="round" stroke-linejoin="round"/>
<path d="M115.688 113.317L116.678 113.244C117.543 113.235 118.388 112.984 119.119 112.52" stroke="#120071" stroke-linecap="round" stroke-linejoin="round"/>
<path d="M70.8389 117.082L57.8392 118.193C56.2792 118.324 54.7313 117.83 53.5352 116.82C52.3393 115.809 51.5934 114.366 51.461 112.806L48.1497 73.7562C48.0185 72.1956 48.5125 70.647 49.523 69.4507C50.5335 68.2544 51.9779 67.5083 53.5383 67.3767L85.3241 64.6987" stroke="#120071" stroke-linecap="round" stroke-linejoin="round"/>
<path d="M112.691 192.745L190.112 186.22C192.227 186.039 194.183 185.027 195.551 183.404C196.92 181.782 197.588 179.683 197.41 177.568L192.916 124.77C192.735 122.656 191.722 120.7 190.1 119.332C188.478 117.964 186.379 117.295 184.265 117.472L142.899 120.953" stroke="#120071" stroke-linecap="round" stroke-linejoin="round"/>
<path d="M114.988 123.321L127.844 122.233" stroke="#120071" stroke-linecap="round" stroke-linejoin="round"/>
<path d="M156.695 36.3008L132.82 38.3551C130.633 38.5991 128.632 39.6999 127.255 41.4162C125.878 43.1326 125.238 45.3246 125.474 47.5123L130.259 102.583" stroke="#120071" stroke-linecap="round" stroke-linejoin="round"/>
<path d="M147.516 110.659L219.935 104.401C221.542 104.255 223.069 103.629 224.315 102.603C225.561 101.577 226.467 100.199 226.918 98.6489" stroke="#120071" stroke-linecap="round" stroke-linejoin="round"/>
<path d="M224.597 64.1434L222.446 39.1337C222.302 36.9365 221.293 34.886 219.64 33.4318C217.986 31.9776 215.823 31.2383 213.626 31.3762L184.461 33.8903" stroke="#120071" stroke-linecap="round" stroke-linejoin="round"/>
<path d="M198.09 71.4165C195.601 75.3303 190.358 86.7608 187.312 94.1783C193.158 96.4634 198.085 100.618 201.322 105.995" stroke="#120071" stroke-linecap="round" stroke-linejoin="round"/>
<path d="M159.16 83.9336C160.044 88.4845 161.198 92.979 162.615 97.393C161.286 102.394 160.755 106.841 160.127 109.571" stroke="#120071" stroke-linecap="round" stroke-linejoin="round"/>
<path d="M161.479 65.3276C159.654 68.1411 158.589 71.3793 158.387 74.7268" stroke="#120071" stroke-linecap="round" stroke-linejoin="round"/>
<path d="M187.288 94.2026C180.474 99.1085 167.594 101.717 162.617 97.393" stroke="#120071" stroke-linecap="round" stroke-linejoin="round"/>
<path d="M184.195 96.0635C187.83 98.906 190.743 102.565 192.699 106.744" stroke="#120071" stroke-linecap="round" stroke-linejoin="round"/>
<path d="M166.909 47.8768C167.622 46.3611 168.044 44.7251 168.152 43.0537C167.403 43.8752 166.7 44.5706 166.047 45.1743" stroke="#120071" stroke-linecap="round" stroke-linejoin="round"/>
<path d="M194.633 77.8932L203.284 92.5115C209.977 104.643 223.917 108.458 232.668 90.3375C236.798 81.7827 238.757 76.0324 242.381 70.0873C236.454 68.3975 231.056 65.2202 226.703 60.8575C222.68 66.9127 219.102 73.2519 215.997 79.8252C198.479 42.589 196.328 49.1544 184.657 48.5087C181.096 48.4105 177.666 47.1454 174.895 44.9082" stroke="#120071" stroke-linecap="round" stroke-linejoin="round"/>
<path d="M149.375 78.1821C152.83 66.4383 160.571 61.0102 163.969 57.3053C165.568 55.7719 166.634 53.7658 167.007 51.5822C167.381 49.3985 167.045 47.1525 166.048 45.1742C159.959 50.5386 156.6 46.2619 156.6 32.0562" stroke="#120071" stroke-linecap="round" stroke-linejoin="round"/>
<path d="M186.128 48.5566C181.284 52.449 176.913 56.8944 173.103 61.8021C172.505 62.5455 171.726 63.1214 170.84 63.4733C169.953 63.8252 168.99 63.9412 168.045 63.8099C167.101 63.6786 166.206 63.3045 165.45 62.7243C164.693 62.144 164.1 61.3773 163.728 60.4992C163.417 59.7732 163.147 59.0982 162.906 58.4449" stroke="#120071" stroke-linecap="round" stroke-linejoin="round"/>
<path d="M215.996 79.8252L213.121 86.3015" stroke="#120071" stroke-linecap="round" stroke-linejoin="round"/>
<path d="M95.826 79.5601C92.4484 83.8903 90.0579 83.6063 83.6962 86.4464C70.7437 92.2222 75.1899 115.371 75.1899 115.371" stroke="#120071" stroke-linecap="round" stroke-linejoin="round"/>
<path d="M105.66 72.8662C106.715 77.7607 106.62 79.6341 105.926 80.6466C105.416 81.3968 103.365 81.6375 101.504 81.6375" stroke="#120071" stroke-linecap="round" stroke-linejoin="round"/>
<path d="M106.148 80.2401C105.471 81.6411 102.906 80.2401 100.344 78.3794C100.828 80.6031 101.165 83.2675 102.978 83.3808C119.043 84.3882 120.739 86.2082 134.681 110.126" stroke="#120071" stroke-linecap="round" stroke-linejoin="round"/>
<path d="M132.966 107.155C133.57 105.464 137.316 97.7549 139.491 90.796C144.254 90.2832 149.042 91.5293 152.951 94.2996C151.452 101.404 147.103 112.182 143.357 120.104C142.72 121.443 141.773 122.611 140.595 123.512C139.417 124.413 138.043 125.021 136.584 125.285C135.125 125.55 133.624 125.463 132.205 125.033C130.786 124.602 129.49 123.841 128.424 122.81C122.168 116.659 116.609 109.837 111.848 102.467" stroke="#120071" stroke-linecap="round" stroke-linejoin="round"/>
<path d="M111.871 102.467L115.447 113.656" stroke="#120071" stroke-linecap="round" stroke-linejoin="round"/>
<path d="M85.4609 122.79C92.6377 125.083 104.913 124.215 114.507 121.606C115.956 118.754 115.352 107.494 115.352 107.494" stroke="#120071" stroke-linecap="round" stroke-linejoin="round"/>
<path d="M85.3885 122.233C82.2962 126.68 76.2186 126.844 73.4268 122.209C69.9092 116.351 68.4012 108.001 67.6523 98.7215C67.6523 98.7215 73.1288 96.9691 75.4213 97.6555" stroke="#120071" stroke-linecap="round" stroke-linejoin="round"/>
<path d="M93.3588 153.981L67.8422 176.575C66.1543 178.06 63.9856 178.883 61.7377 178.892C59.4898 178.899 57.3149 178.093 55.6157 176.622L30.5117 154.904" stroke="#120071" stroke-linecap="round" stroke-linejoin="round"/>
<path d="M64.2432 158.359L45.25 140.454" stroke="#120071" stroke-linecap="round" stroke-linejoin="round"/>
<path d="M81.4974 98.5532C81.4974 98.5532 85.7003 115.492 85.4367 123.224C80.3239 126.13 76.3732 130.715 74.2545 136.201C71.1685 144.539 60.4805 154.686 60.4805 154.686" stroke="#120071" stroke-linecap="round" stroke-linejoin="round"/>
<path d="M114.505 121.605C119.24 137.723 119.711 148.478 120.037 164.085C120.298 168.51 119.692 172.942 118.254 177.134L107.188 208.257C100.42 207.547 93.9135 205.254 88.1947 201.565L99.2623 169.861C99.4755 164.446 97.6587 159.146 94.1679 155.001C90.7121 150.791 88.5471 145.671 87.9336 140.26" stroke="#120071" stroke-linecap="round" stroke-linejoin="round"/>
<path d="M90.2695 83.8611C90.2695 83.8611 94.1349 88.1137 103.318 83.4014" stroke="#120071" stroke-linecap="round" stroke-linejoin="round"/>
<path d="M69.559 98.1661C69.4835 94.4791 69.0708 90.8069 68.3261 87.1953C67.6134 84.4155 66.5921 81.7243 65.281 79.1716C63.3578 75.4221 63.9819 74.407 67.0704 77.819C70.1203 81.6476 72.6321 85.8752 74.5362 90.3844" stroke="#120071" stroke-linecap="round" stroke-linejoin="round"/>
<path d="M73.4648 87.9964C74.9995 89.7361 75.9178 84.4303 76.4947 83.2561C77.292 81.6373 78.2778 79.8746 78.2103 84.8519C78.1912 86.2286 78.3555 88.4281 78.5733 90.6022" stroke="#120071" stroke-linecap="round" stroke-linejoin="round"/>
<path d="M66.8768 82.7248C66.1764 81.9518 64.5844 80.4069 64.1221 79.97C62.0104 77.9501 61.5901 78.6621 61.8296 79.0785C62.7466 80.6858 64.4659 83.1617 65.2683 84.6824C66.5521 87.1455 69.1579 91.8349 69.3031 94.2509" stroke="#120071" stroke-linecap="round" stroke-linejoin="round"/>
<path d="M65.1861 84.5371C64.7748 84.248 64.4347 84.0098 64.2437 83.885C61.7958 82.2892 61.5373 83.0152 61.8238 83.3756C62.9841 84.825 65.0906 86.9722 66.1261 88.3528C67.3417 90.0537 68.3933 91.8661 69.2668 93.7656" stroke="#120071" stroke-linecap="round" stroke-linejoin="round"/>
<path d="M151.817 93.5022C153.113 89.6374 154.746 85.8937 156.698 82.3149C158.35 79.6139 160.304 77.1088 162.521 74.8478C165.776 71.5365 165.45 70.2323 161.072 72.8177C156.605 75.8681 152.573 79.5097 149.086 83.6433" stroke="#120071" stroke-linecap="round" stroke-linejoin="round"/>
<path d="M151.118 81.3505C148.681 83.168 149.58 76.9604 149.352 75.4996C149.045 73.5408 148.603 71.3439 147.031 76.6357C146.597 78.0838 144.832 82.5719 141.504 90.6733" stroke="#120071" stroke-linecap="round" stroke-linejoin="round"/>
<path d="M159.666 78.061C160.657 77.4573 162.832 76.3696 163.46 76.0563C166.36 74.6057 166.55 75.5214 166.191 75.8627C164.705 77.2751 162.085 79.3206 160.754 80.6706C158.607 82.8497 154.326 86.9532 153.359 89.4673" stroke="#120071" stroke-linecap="round" stroke-linejoin="round"/>
<path d="M160.877 80.5512C161.408 80.3818 161.843 80.2378 162.085 80.1691C165.183 79.2202 165.225 80.1423 164.792 80.4353C163.093 81.5815 160.179 83.1697 158.629 84.3006C156.795 85.7022 155.097 87.2717 153.555 88.9888" stroke="#120071" stroke-linecap="round" stroke-linejoin="round"/>
<path d="M36.3831 132.141C32.0821 125.962 5.71731 147.276 7.05714 154.332C7.26473 155.424 8.20974 156.403 10.4143 156.103C18.8876 154.956 39.5607 136.713 36.3831 132.141Z" stroke="#120071" stroke-linecap="round" stroke-linejoin="round"/>
<path d="M36.3828 132.141C37.7112 133.832 42.2783 139.293 45.5413 143.348" stroke="#120071" stroke-linecap="round" stroke-linejoin="round"/>
<path d="M104.526 207.92C103.507 211.761 97.7886 220.192 102.181 230.996C104.432 236.529 105.733 244.597 102.691 246.627" stroke="#120071" stroke-linecap="round" stroke-linejoin="round"/>
<path d="M84.5195 216.039C85.2429 214.409 87.8729 208.461 90.2227 202.921" stroke="#120071" stroke-linecap="round" stroke-linejoin="round"/>
<path d="M85.292 215.313C79.8894 217.882 94.3116 244.294 100.927 246.704C102.754 247.37 103.628 246.067 103.555 244.127C103.255 236.058 89.4681 213.332 85.292 215.313Z" stroke="#120071" stroke-linecap="round" stroke-linejoin="round"/>
<path d="M42.8358 140.018C43.1671 139.868 43.5317 139.805 43.8943 139.837C44.2569 139.869 44.6049 139.995 44.9043 140.203C45.2037 140.409 45.4443 140.691 45.6025 141.018C45.7608 141.346 45.8312 141.709 45.8071 142.072C45.4072 147.167 35.9431 155.893 31.688 155.379C30.4144 155.224 29.607 154.323 30.0323 152.609" stroke="#120071" stroke-linecap="round" stroke-linejoin="round"/>
<path d="M105.684 199.261L113.1 175.805C114.387 172.139 114.929 168.254 114.694 164.376C113.667 147.583 112.423 134.605 109.403 122.79" stroke="#120071" stroke-linecap="round" stroke-linejoin="round"/>
<path d="M91.2109 192.913C96.6963 197.087 103.34 199.459 110.228 199.704" stroke="#120071" stroke-linecap="round" stroke-linejoin="round"/>
<path d="M37.6641 161.09C44.986 158.745 49.0946 153.448 51.559 146.542" stroke="#120071" stroke-linecap="round" stroke-linejoin="round"/>
<path d="M89.6383 147.292L69.0747 165.512C67.3833 167.018 65.1994 167.855 62.9343 167.864C60.6691 167.873 58.4786 167.054 56.7756 165.56L45.9258 156.039" stroke="#120071" stroke-linecap="round" stroke-linejoin="round"/>
<path d="M93.1175 129.216C92.8042 129.265 92.3445 135.355 93.1659 137.82C94.7373 139.991 96.7459 141.811 99.0627 143.16C100.388 140.953 101.979 138.915 103.799 137.095C103.557 134.025 103.267 132.407 102.929 129.168C99.6763 129.633 96.3749 129.649 93.1175 129.216Z" stroke="#120071" stroke-linecap="round" stroke-linejoin="round"/>
<path d="M79.4194 127.985C80.6599 128.003 81.878 128.317 82.9715 128.903C80.7478 129.99 78.5012 135.526 78.5012 135.526L73.5469 137.895" stroke="#120071" stroke-linecap="round" stroke-linejoin="round"/>
<path d="M236.629 49.0371C240.45 50.2445 242.574 52.202 245.035 55.344" stroke="#120071" stroke-linecap="round" stroke-linejoin="round"/>
<path d="M235.688 50.8291C237.021 52.1824 238.058 53.7988 238.731 55.5749C239.405 57.3511 239.701 59.2481 239.601 61.1453" stroke="#120071" stroke-linecap="round" stroke-linejoin="round"/>
<path d="M243.034 52.9546C244.516 51.0014 245.757 48.8755 246.727 46.6235C248.51 42.4436 249.603 43.6038 248.612 47.566C248.346 48.6295 248.081 49.5477 247.839 50.3208C247.141 52.5445 246.453 54.7899 245.809 57.039C245.125 59.4283 240.587 69.5318 240.587 69.5318C236.334 68.3957 231.912 65.3034 228.457 62.4518C228.53 62.3066 230.368 58.9252 230.438 58.803C230.812 58.1271 230.971 57.3531 230.894 56.5845C230.816 55.816 230.505 55.0894 230.003 54.502C228.256 52.4057 225.916 49.2803 226.692 48.4359C227.896 47.1279 231.693 51.5511 233.724 51.8198C234.448 51.9153 235.029 49.7171 235.149 48.9198C235.368 47.4705 236.131 42.5391 236.188 42.0577C236.714 37.5772 238.315 38.3362 238.291 42.2984C238.266 46.0682 238.266 48.5085 238.266 48.5085" stroke="#120071" stroke-linecap="round" stroke-linejoin="round"/>
<path d="M237.961 49.4752C237.961 49.4752 240.596 41.2121 240.763 40.6556C242.073 36.3317 243.448 37.3213 242.793 41.2109C242.166 44.9336 241.488 49.4752 241.488 49.4752" stroke="#120071" stroke-linecap="round" stroke-linejoin="round"/>
<path d="M240.84 50.8049C242.101 48.2777 243.214 45.6795 244.174 43.0232C245.741 38.7694 246.892 39.8558 246.156 43.725C245.752 46.1304 245.179 48.5044 244.44 50.8291" stroke="#120071" stroke-linecap="round" stroke-linejoin="round"/>
<path d="M214.519 124.988C214.585 125.565 214.535 126.15 214.373 126.707C214.212 127.265 213.942 127.786 213.579 128.239C213.214 128.692 212.765 129.068 212.255 129.345C211.746 129.624 211.185 129.799 210.609 129.859C210.03 129.92 209.447 129.865 208.89 129.699C208.334 129.533 207.816 129.259 207.366 128.891C206.916 128.523 206.544 128.07 206.271 127.558C205.997 127.046 205.827 126.485 205.771 125.907L205.071 119.284C204.96 118.129 205.309 116.978 206.043 116.08C206.778 115.182 207.836 114.61 208.99 114.489C210.142 114.368 211.298 114.707 212.202 115.433C213.106 116.159 213.687 117.213 213.818 118.366L214.519 124.988Z" stroke="#120071" stroke-linecap="round" stroke-linejoin="round"/>
<path d="M202.195 123.248L202.533 126.51C202.637 127.513 202.939 128.485 203.419 129.372C203.899 130.258 204.55 131.042 205.333 131.676C206.115 132.311 207.017 132.785 207.983 133.073C208.949 133.359 209.963 133.454 210.965 133.349C211.969 133.244 212.941 132.943 213.827 132.463C214.714 131.981 215.497 131.332 216.132 130.549C216.767 129.765 217.242 128.865 217.528 127.898C217.815 126.932 217.909 125.918 217.805 124.915L217.467 121.654" stroke="#120071" stroke-linecap="round" stroke-linejoin="round"/>
<path d="M210.969 133.349L211.621 139.438" stroke="#120071" stroke-linecap="round" stroke-linejoin="round"/>
<path d="M208.359 139.777L214.86 139.1" stroke="#120071" stroke-linecap="round" stroke-linejoin="round"/>
<path d="M157.782 158.383L165.588 162.032L164.185 145.455L157.105 150.384" stroke="#120071" stroke-linecap="round" stroke-linejoin="round"/>
<path d="M150.39 145.141C151.966 145.004 153.533 145.467 154.78 146.44C156.027 147.414 156.859 148.822 157.107 150.384L157.759 157.898C157.832 158.718 157.741 159.545 157.494 160.33C157.247 161.116 156.847 161.846 156.318 162.476C155.788 163.107 155.139 163.628 154.408 164.007C153.677 164.387 152.878 164.619 152.057 164.689L136.979 165.944C136.158 166.02 135.33 165.932 134.543 165.686C133.757 165.439 133.026 165.039 132.395 164.509C131.764 163.979 131.243 163.328 130.865 162.596C130.486 161.864 130.256 161.064 130.188 160.242L129.585 153.238C129.509 152.416 129.597 151.588 129.843 150.803C130.09 150.015 130.489 149.284 131.02 148.654C131.55 148.022 132.199 147.501 132.932 147.123C133.665 146.745 134.465 146.514 135.287 146.447L150.39 145.141Z" stroke="#120071" stroke-linecap="round" stroke-linejoin="round"/>
<path d="M192.046 19.9711C191.895 18.1022 191.085 16.3478 189.76 15.0219C188.434 13.6958 186.68 12.8847 184.81 12.7337C182.942 12.5826 181.08 13.1015 179.559 14.1975C178.037 15.2934 176.956 16.8948 176.508 18.7153C178.492 19.6306 180.234 20.9962 181.598 22.7036C182.962 24.4108 183.909 26.4128 184.362 28.55C185.441 28.5251 186.503 28.2791 187.484 27.8274C188.464 27.3758 189.341 26.7279 190.061 25.924C190.781 25.1201 191.329 24.177 191.67 23.1532C192.011 22.1293 192.139 21.0462 192.046 19.9711Z" stroke="#120071" stroke-linecap="round" stroke-linejoin="round"/>
<path d="M184.582 30.2896C184.278 26.6289 182.551 23.2335 179.77 20.8322C176.991 18.431 173.381 17.2153 169.714 17.4462C166.049 17.6771 162.619 19.3361 160.162 22.0672C157.706 24.7983 156.418 28.3837 156.575 32.0535C159.486 31.2647 162.477 30.8104 165.491 30.6997C165.654 31.6895 165.879 32.6679 166.167 33.629C166.433 34.2327 166.843 34.2811 167.568 33.1692C169.188 30.8258 172.474 34.4504 168.631 37.2536C170.29 40.1238 172.396 42.7101 174.872 44.9143C177.907 43.9356 180.52 41.9562 182.284 39.2996C184.047 36.643 184.858 33.4665 184.582 30.2896Z" stroke="#120071" stroke-linecap="round" stroke-linejoin="round"/>
<path d="M22.7773 111.843L27.8272 111.335" stroke="#120071" stroke-linecap="round" stroke-linejoin="round"/>
<path d="M36.7695 110.417L41.8206 109.91" stroke="#120071" stroke-linecap="round" stroke-linejoin="round"/>
<path d="M31.332 101.355L31.8402 106.406" stroke="#120071" stroke-linecap="round" stroke-linejoin="round"/>
<path d="M32.7578 115.347L33.2647 120.397" stroke="#120071" stroke-linecap="round" stroke-linejoin="round"/>
<path d="M24.8828 104.836L28.8208 108.025" stroke="#120071" stroke-linecap="round" stroke-linejoin="round"/>
<path d="M35.7773 113.704L39.7166 116.917" stroke="#120071" stroke-linecap="round" stroke-linejoin="round"/>
<path d="M38.3388 103.458L35.1484 107.397" stroke="#120071" stroke-linecap="round" stroke-linejoin="round"/>
<path d="M29.4711 114.356L26.2578 118.295" stroke="#120071" stroke-linecap="round" stroke-linejoin="round"/>
<path d="M139.783 53.9938L136.853 46.8412C138.644 44.179 139.51 41.0016 139.318 37.7987C138.787 29.3929 130.981 22.8657 121.678 23.1319C112.181 23.3968 104.691 30.6461 104.956 39.3219C105.22 48.4803 113.787 55.0368 123.147 54.4854C126.5 54.2739 129.733 53.1588 132.503 51.2581L139.783 53.9938Z" stroke="#120071" stroke-linecap="round" stroke-linejoin="round"/>
<path d="M84.1083 50.3452C83.6615 50.7731 83.0978 51.059 82.4885 51.1667C81.8794 51.2743 81.2519 51.1989 80.6855 50.9499C80.1191 50.7009 79.6392 50.2895 79.3067 49.7677C78.9742 49.2461 78.8038 48.6374 78.8171 48.0188C78.8305 47.4004 79.027 46.7996 79.3818 46.2928C79.7365 45.786 80.2336 45.3956 80.8103 45.1713C81.3869 44.947 82.0171 44.8988 82.6211 45.0325C83.2251 45.1663 83.7759 45.4763 84.2038 45.9232C84.7756 46.5232 85.0864 47.3254 85.0685 48.154C85.0506 48.9826 84.7054 49.7704 84.1083 50.3452Z" stroke="#120071" stroke-linecap="round" stroke-linejoin="round"/>
<path d="M213.336 9.12109L214.424 22.3156" stroke="#120071" stroke-linecap="round" stroke-linejoin="round"/>
<path d="M220.49 15.1616L207.297 16.2735" stroke="#120071" stroke-linecap="round" stroke-linejoin="round"/>
<path d="M33.4845 155.169C32.5649 154.042 31.378 153.162 30.0318 152.609C27.6884 151.762 25.3895 152.511 22.6589 153.285C17.157 154.813 11.2589 158.132 8.16406 155.841" stroke="#120071" stroke-linecap="round" stroke-linejoin="round"/>
<path d="M89.9068 157.102L89.6406 147.292" stroke="#120071" stroke-linecap="round" stroke-linejoin="round"/>
</svg>
