<svg width="25" height="24" viewBox="0 0 25 24" fill="none" xmlns="http://www.w3.org/2000/svg">
<path fill-rule="evenodd" clip-rule="evenodd" d="M9.6 19C10.9807 19 12.1 20.1193 12.1 21.5C12.1 22.8807 10.9807 24 9.6 24C8.21929 24 7.1 22.8807 7.1 21.5C7.1 20.1193 8.21929 19 9.6 19ZM20 19C21.3807 19 22.5 20.1193 22.5 21.5C22.5 22.8807 21.3807 24 20 24C18.6193 24 17.5 22.8807 17.5 21.5C17.5 20.1193 18.6193 19 20 19ZM9.6 21C9.32386 21 9.1 21.2239 9.1 21.5C9.1 21.7761 9.32386 22 9.6 22C9.87614 22 10.1 21.7761 10.1 21.5C10.1 21.2239 9.87614 21 9.6 21ZM20 21C19.7239 21 19.5 21.2239 19.5 21.5C19.5 21.7761 19.7239 22 20 22C20.2761 22 20.5 21.7761 20.5 21.5C20.5 21.2239 20.2761 21 20 21ZM22.5 2C23.9085 2 24.8505 3.40426 24.3804 4.68277L24.2889 4.89443L20.2889 12.8944C19.9877 13.4967 19.4071 13.9018 18.7497 13.9844L18.5 14H10.5C10.3765 14 10.2547 13.9886 10.1359 13.9666L9.11803 16H21.5C22.0523 16 22.5 16.4477 22.5 17C22.5 17.4909 22.1462 17.8992 21.6798 17.9839L21.5 18H9.11803C8.01346 18 7.11803 17.1046 7.11803 16C7.11803 15.7671 7.1587 15.5367 7.23761 15.3188L7.32918 15.1056L8.572 12.618L4.71115 4.89443C4.67288 4.8179 4.64002 4.74059 4.61235 4.66285L3.28 1.998L1.5 2C1.00908 2 0.600783 1.64625 0.516111 1.17975L0.5 1C0.5 0.50908 0.85375 0.100783 1.32025 0.0161113L1.5 0H3.9C4.21564 0 4.50871 0.148613 4.69566 0.394206L4.79443 0.552786L5.518 2H22.5ZM22.5 4H6.518L10.3944 11.7528L10.4604 11.9208L10.5 12H18.5L22.5 4Z" fill="#081C15"/>
</svg>
