<svg width="24" height="24" viewBox="0 0 24 24" fill="none" xmlns="http://www.w3.org/2000/svg">
<path fill-rule="evenodd" clip-rule="evenodd" d="M9.1 19C10.4807 19 11.6 20.1193 11.6 21.5C11.6 22.8807 10.4807 24 9.1 24C7.71929 24 6.6 22.8807 6.6 21.5C6.6 20.1193 7.71929 19 9.1 19ZM19.5 19C20.8807 19 22 20.1193 22 21.5C22 22.8807 20.8807 24 19.5 24C18.1193 24 17 22.8807 17 21.5C17 20.1193 18.1193 19 19.5 19ZM9.1 21C8.82386 21 8.6 21.2239 8.6 21.5C8.6 21.7761 8.82386 22 9.1 22C9.37614 22 9.6 21.7761 9.6 21.5C9.6 21.2239 9.37614 21 9.1 21ZM19.5 21C19.2239 21 19 21.2239 19 21.5C19 21.7761 19.2239 22 19.5 22C19.7761 22 20 21.7761 20 21.5C20 21.2239 19.7761 21 19.5 21ZM22 2C23.4085 2 24.3505 3.40426 23.8804 4.68277L23.7889 4.89443L19.7889 12.8944C19.4877 13.4967 18.9071 13.9018 18.2497 13.9844L18 14H10C9.8765 14 9.75473 13.9886 9.63594 13.9666L8.61803 16H21C21.5523 16 22 16.4477 22 17C22 17.4909 21.6462 17.8992 21.1798 17.9839L21 18H8.61803C7.51346 18 6.61803 17.1046 6.61803 16C6.61803 15.7671 6.6587 15.5367 6.73761 15.3188L6.82918 15.1056L8.072 12.618L4.21115 4.89443C4.17288 4.8179 4.14002 4.74059 4.11235 4.66285L2.78 1.998L1 2C0.50908 2 0.100783 1.64625 0.0161113 1.17975L0 1C0 0.50908 0.35375 0.100783 0.820249 0.0161113L1 0H3.4C3.71564 0 4.00871 0.148613 4.19566 0.394206L4.29443 0.552786L5.018 2H22ZM22 4H6.018L9.89443 11.7528L9.9604 11.9208L10 12H18L22 4Z" fill="#F4D35E"/>
</svg>
