<svg width="73" height="68" viewBox="0 0 73 68" fill="none" xmlns="http://www.w3.org/2000/svg">
<g filter="url(#filter0_d_336_1768)">
<path d="M45.2278 35.0522C45.3206 36.0439 45.349 37.0471 45.3131 38.0618C45.1442 39.0824 44.908 40.0973 44.6043 41.1064C44.166 42.0859 43.6619 43.0417 43.092 43.9735C42.3955 44.84 41.6396 45.6651 40.8242 46.4489C39.9 47.1337 38.9275 47.7614 37.9066 48.3321C36.8034 48.7753 35.6671 49.1487 34.4977 49.4525C33.28 49.6074 32.0477 49.6841 30.8008 49.6826C29.5451 49.5201 28.2955 49.2759 27.0519 48.9501C25.8419 48.4616 24.6594 47.8934 23.5044 47.2457C22.4255 46.4449 21.3949 45.5722 20.4124 44.6276C19.5457 43.5508 18.7457 42.4151 18.0124 41.2205C17.4287 39.9249 16.9265 38.5883 16.5061 37.2107C16.2604 35.7717 16.1065 34.3133 16.0443 32.8355C16.1715 31.3424 16.3948 29.8539 16.7141 28.3699C17.2253 26.9201 17.8304 25.4998 18.5297 24.109C19.4101 22.8018 20.3761 21.5483 21.4276 20.3484C22.637 19.2783 23.9173 18.2836 25.2683 17.3641C26.7421 16.6141 28.2665 15.9569 29.8415 15.3927C31.4941 15.0278 33.1728 14.768 34.8776 14.6131C36.6078 14.6756 38.3366 14.8487 40.0641 15.1324C41.7605 15.6375 43.4272 16.2517 45.064 16.9748C46.613 17.9089 48.1046 18.943 49.5385 20.0772C50.8315 21.3972 52.0418 22.8012 53.1695 24.2892C54.1102 25.9245 54.9477 27.6216 55.6819 29.3804C56.1937 31.2366 56.5876 33.1272 56.8639 35.0522C56.8955 37.0162 56.8021 38.984 56.5836 40.9555C56.1137 42.9027 55.5195 44.8216 54.801 46.7122C53.8408 48.5142 52.7652 50.2565 51.5743 51.939C50.1677 53.4723 48.6626 54.9172 47.0592 56.2735C45.2813 57.4276 43.429 58.4694 41.5024 59.3987C39.4556 60.0841 37.3642 60.6397 35.2283 61.0656C33.0364 61.2205 30.8338 61.2361 28.6204 61.1126C26.4212 60.7078 24.2468 60.1631 22.0975 59.4787C20.0338 58.5209 18.0304 57.4318 16.0873 56.2114C14.2983 54.7438 12.602 53.1624 10.9986 51.4671C9.60988 49.5678 8.34149 47.5801 7.19346 45.5041C6.30865 43.282 5.56475 41.0036 4.96177 38.669C4.65493 36.2578 4.501 33.8272 4.5 31.3771C4.80974 28.9271 5.2748 26.4968 5.89518 24.0864C6.82108 21.7551 7.89464 19.4828 9.11586 17.2695C10.6173 15.2117 12.2488 13.2494 14.0105 11.3826C16.0081 9.73994 18.1092 8.22422 20.3139 6.83546C22.6934 5.7268 25.1425 4.76921 27.6611 3.96268C30.2802 3.47574 32.9293 3.15484 35.6083 3C38.3049 3.18459 40.9887 3.53986 43.6598 4.06581C46.262 4.92957 48.8084 5.95768 51.2989 7.15016C53.6361 8.65683 55.8768 10.3107 58.0209 12.1117C59.9348 14.1823 61.7166 16.3729 63.3663 18.6835C64.7218 21.2003 65.9171 23.8013 66.9525 26.4867C67.6467 29.2997 68.1626 32.1549 68.5 35.0522" stroke="#081C15" stroke-width="5"/>
</g>
<defs>
<filter id="filter0_d_336_1768" x="0" y="0.495117" width="72.9844" height="67.1997" filterUnits="userSpaceOnUse" color-interpolation-filters="sRGB">
<feFlood flood-opacity="0" result="BackgroundImageFix"/>
<feColorMatrix in="SourceAlpha" type="matrix" values="0 0 0 0 0 0 0 0 0 0 0 0 0 0 0 0 0 0 127 0" result="hardAlpha"/>
<feOffset dy="2"/>
<feGaussianBlur stdDeviation="1"/>
<feComposite in2="hardAlpha" operator="out"/>
<feColorMatrix type="matrix" values="0 0 0 0 0 0 0 0 0 0 0 0 0 0 0 0 0 0 0.15 0"/>
<feBlend mode="normal" in2="BackgroundImageFix" result="effect1_dropShadow_336_1768"/>
<feBlend mode="normal" in="SourceGraphic" in2="effect1_dropShadow_336_1768" result="shape"/>
</filter>
</defs>
</svg>
