<svg width="192" height="192" viewBox="0 0 192 192" fill="none" xmlns="http://www.w3.org/2000/svg">
<path d="M138.511 53.4856C153.323 59.8151 169.981 60.3051 185.14 54.857M54.8538 185.143C60.297 169.937 59.8073 153.238 53.4824 138.377C48.5318 126.544 47.1924 113.511 49.6327 100.919C52.0731 88.3269 58.1842 76.7379 67.1967 67.6113C76.4356 58.4679 88.1746 52.2644 100.934 49.7827" stroke="#081C15" stroke-width="2" stroke-linecap="round" stroke-linejoin="round"/>
<path d="M90.5126 142.217C103.337 139.722 115.128 133.468 124.387 124.251M124.387 124.251C133.415 115.134 139.537 103.545 141.978 90.9486C144.419 78.3523 143.07 65.315 138.101 53.4855C131.905 38.6214 131.562 21.9635 137.141 6.85693M124.387 124.251L67.7469 67.6112M6.85547 137.143C22.0201 131.669 38.705 132.209 53.484 138.651" stroke="#081C15" stroke-width="2" stroke-linecap="round" stroke-linejoin="round"/>
</svg>
