<svg width="192" height="192" viewBox="0 0 192 192" fill="none" xmlns="http://www.w3.org/2000/svg">
<path d="M96 16C84.3305 16 73.1389 20.6357 64.8873 28.8873C56.6357 37.1389 52 48.3305 52 60C52 71.6695 56.6357 82.8611 64.8873 91.1127C73.1389 99.3643 84.3305 104 96 104C107.67 104 118.861 99.3643 127.113 91.1127C135.364 82.8611 140 71.6695 140 60C140 48.3305 135.364 37.1389 127.113 28.8873C118.861 20.6357 107.67 16 96 16ZM64 112C53.3913 112 43.2172 116.214 35.7157 123.716C28.2143 131.217 24 141.391 24 152V176H168V152C168 141.391 163.786 131.217 156.284 123.716C148.783 116.214 138.609 112 128 112H116.944L96 153.888L75.056 112H64Z" fill="#081C15"/>
</svg>
